<?xml version="1.0" standalone="no"?>
<!DOCTYPE svg PUBLIC "-//W3C//DTD SVG 20010904//EN"
 "http://www.w3.org/TR/2001/REC-SVG-20010904/DTD/svg10.dtd">
<svg version="1.0" xmlns="http://www.w3.org/2000/svg"
 width="3200.000000pt" height="3200.000000pt" viewBox="0 0 3200.000000 3200.000000"
 preserveAspectRatio="xMidYMid meet">
<metadata>
Created by potrace 1.14, written by Peter Selinger 2001-2017
</metadata>
<g transform="translate(0.000000,3200.000000) scale(0.100000,-0.100000)"
fill="#000000" stroke="none">
<path d="M19240 18879 c-353 -29 -634 -150 -837 -362 -220 -230 -314 -486
-330 -894 l-6 -173 -264 0 -263 0 2 -387 3 -388 262 -3 263 -2 2 -1298 3
-1297 500 0 500 0 3 1298 2 1297 430 0 430 0 0 390 0 390 -441 0 -441 0 4 158
c4 124 10 169 26 213 67 186 190 263 422 262 138 0 213 -18 323 -75 43 -22 79
-39 81 -37 14 19 256 713 252 724 -7 20 -126 78 -221 108 -116 36 -264 65
-395 77 -128 11 -159 11 -310 -1z"/>
<path d="M30974 18831 c-2 -2 -4 -375 -4 -828 0 -452 -2 -823 -5 -823 -2 0
-26 21 -52 46 -226 220 -521 335 -898 350 -328 14 -610 -44 -890 -182 -340
-167 -591 -432 -755 -795 -153 -340 -197 -815 -115 -1225 155 -770 742 -1283
1538 -1345 476 -37 907 102 1164 374 l53 55 2 -191 3 -192 474 -3 c373 -2 476
0 483 10 11 19 10 4735 -1 4743 -11 6 -990 12 -997 6z m-700 -2096 c178 -31
315 -103 447 -234 182 -182 259 -389 259 -696 0 -165 -17 -280 -60 -397 -99
-272 -332 -478 -600 -531 -310 -63 -594 9 -800 200 -128 120 -205 254 -252
440 -19 76 -23 115 -23 283 0 214 9 274 66 420 86 223 307 428 530 491 143 40
293 48 433 24z"/>
<path d="M1825 17570 c-179 -19 -353 -69 -497 -141 -116 -58 -189 -110 -285
-202 l-83 -80 0 192 0 191 -480 0 -480 0 0 -2350 0 -2350 500 0 500 0 0 801 0
801 71 -67 c174 -164 413 -276 684 -321 148 -25 443 -22 595 5 288 51 543 160
761 326 96 73 245 229 322 336 80 111 183 316 226 449 125 385 126 904 0 1281
-68 205 -190 417 -331 579 -229 262 -593 463 -958 530 -130 24 -413 34 -545
20z m270 -849 c319 -84 548 -338 617 -685 26 -134 21 -397 -11 -521 -55 -218
-170 -392 -337 -511 -214 -152 -527 -193 -799 -103 -380 126 -597 493 -571
967 15 283 107 498 278 657 120 111 256 180 416 210 107 20 301 13 407 -14z"/>
<path d="M6380 17574 c-423 -39 -751 -185 -950 -425 l-50 -60 0 221 0 220
-482 -2 -483 -3 0 -1725 0 -1725 500 0 500 0 5 900 c6 970 6 976 61 1138 92
274 298 454 603 524 54 13 120 17 274 17 l202 -1 0 464 0 463 -72 -2 c-40 0
-89 -3 -108 -4z"/>
<path d="M8475 17569 c-692 -72 -1263 -493 -1499 -1106 -128 -331 -153 -753
-66 -1113 81 -334 282 -660 537 -871 292 -241 609 -374 1038 -435 165 -23 525
-23 690 0 420 59 750 210 1003 459 40 40 71 77 70 83 -4 17 -519 574 -530 574
-5 0 -35 -22 -66 -49 -171 -146 -353 -228 -582 -262 -51 -7 -148 -10 -263 -6
-152 4 -198 9 -278 30 -271 71 -473 226 -584 447 -30 59 -65 155 -65 177 0 11
221 13 1298 15 l1297 3 8 60 c15 112 11 413 -7 525 -38 239 -102 429 -211 621
-90 157 -173 266 -298 385 -321 310 -779 478 -1286 473 -69 -1 -162 -5 -206
-10z m483 -788 c233 -68 417 -227 517 -445 29 -63 65 -182 65 -214 0 -9 -199
-12 -840 -12 l-839 0 5 33 c13 72 67 216 105 279 108 183 304 322 519 369 119
26 362 21 468 -10z"/>
<path d="M12280 17574 c-499 -44 -853 -182 -1095 -428 -135 -136 -209 -265
-258 -450 -18 -68 -21 -108 -21 -251 1 -149 4 -182 27 -266 63 -237 208 -409
455 -536 173 -90 449 -162 847 -223 617 -93 733 -142 743 -314 3 -52 -1 -69
-25 -116 -46 -90 -134 -142 -303 -178 -95 -20 -476 -22 -595 -4 -314 50 -604
145 -817 268 -44 25 -83 42 -87 37 -4 -4 -81 -167 -171 -361 -156 -338 -162
-353 -144 -367 36 -28 259 -134 354 -169 348 -128 711 -189 1125 -189 423 0
719 55 994 184 324 152 531 384 608 678 21 80 25 119 25 236 0 275 -63 453
-217 610 -215 218 -458 308 -1152 426 -390 66 -554 110 -626 170 -59 48 -80
99 -75 180 4 83 36 134 118 192 106 74 265 107 515 107 318 0 586 -59 864
-191 68 -33 126 -58 128 -56 5 6 333 707 333 713 0 11 -232 115 -332 148 -138
45 -394 102 -572 127 -135 19 -534 33 -646 23z"/>
<path d="M15680 17574 c-499 -44 -853 -182 -1095 -428 -135 -136 -209 -265
-258 -450 -18 -68 -21 -108 -21 -251 1 -149 4 -182 27 -266 63 -237 208 -409
455 -536 173 -90 449 -162 847 -223 617 -93 733 -142 743 -314 3 -52 -1 -69
-25 -116 -46 -90 -134 -142 -303 -178 -95 -20 -476 -22 -595 -4 -314 50 -604
145 -817 268 -44 25 -83 42 -87 37 -4 -4 -81 -167 -171 -361 -156 -338 -162
-353 -144 -367 36 -28 259 -134 354 -169 348 -128 711 -189 1125 -189 423 0
719 55 994 184 324 152 531 384 608 678 21 80 25 119 25 236 0 275 -63 453
-217 610 -215 218 -458 308 -1152 426 -390 66 -554 110 -626 170 -59 48 -80
99 -75 180 4 83 36 134 118 192 106 74 265 107 515 107 318 0 586 -59 864
-191 68 -33 126 -58 128 -56 5 6 333 707 333 713 0 11 -232 115 -332 148 -138
45 -394 102 -572 127 -135 19 -534 33 -646 23z"/>
<path d="M21785 17573 c-250 -21 -496 -91 -720 -204 -437 -221 -756 -616 -879
-1089 -77 -292 -76 -664 1 -960 159 -617 666 -1085 1334 -1234 206 -46 337
-59 574 -59 514 0 895 111 1210 352 72 55 215 190 215 203 0 10 -500 556 -524
572 -9 6 -31 -6 -75 -42 -252 -210 -470 -280 -844 -269 -153 4 -198 9 -279 30
-305 80 -524 267 -619 527 -16 44 -29 87 -29 95 0 13 165 15 1298 17 l1297 3
12 140 c47 528 -129 1047 -476 1409 -274 284 -667 464 -1106 506 -103 9 -298
11 -390 3z m430 -788 c212 -58 410 -216 509 -404 32 -61 86 -223 86 -257 0
-12 -130 -14 -840 -14 l-840 0 6 28 c47 212 112 332 248 459 110 103 257 175
414 203 77 14 348 4 417 -15z"/>
<path d="M25790 17570 c-806 -81 -1437 -631 -1589 -1385 -108 -533 17 -1088
332 -1480 290 -361 724 -589 1257 -661 152 -20 510 -23 650 -5 332 43 599 134
816 280 101 67 239 184 278 235 l26 35 -261 283 c-144 156 -266 284 -270 286
-5 2 -41 -23 -81 -56 -173 -142 -325 -212 -537 -247 -142 -24 -451 -16 -561
13 -210 57 -342 133 -471 270 -80 85 -153 212 -183 320 l-15 52 1298 0 c1213
0 1299 1 1305 17 14 35 19 408 7 503 -29 234 -79 409 -170 595 -209 425 -530
706 -976 854 -262 87 -569 119 -855 91z m389 -771 c232 -37 438 -178 565 -387
33 -54 85 -195 101 -269 l7 -33 -841 0 c-711 0 -841 2 -841 14 0 36 55 198 90
266 112 214 327 368 570 409 77 12 273 13 349 0z"/>
</g>
</svg>
