<svg width="74" height="72" viewBox="0 0 74 72" fill="none" xmlns="http://www.w3.org/2000/svg">
<g id="Group">
<g id="Layer 2">
<path id="Vector" d="M64.4997 26.7622L64.4879 26.9479L64.6104 27.0879C65.4814 28.0832 66.5082 28.9305 67.6506 29.5967C68.9033 30.4529 70.1877 31.3328 71.1661 32.3764C72.1392 33.4144 72.7758 34.5794 72.7758 36.0008C72.7758 37.4228 72.1412 38.5897 71.171 39.6288C70.1958 40.6733 68.9146 41.5541 67.6644 42.4081C66.5207 43.0745 65.4935 43.9233 64.6235 44.921L64.5008 45.0617L64.5134 45.248C64.607 46.6334 64.9411 47.9919 65.5008 49.2626L65.504 49.2716C66.0023 50.6725 66.51 52.1 66.6826 53.4796C66.8545 54.8539 66.6871 56.1328 65.8692 57.253C65.0511 58.3734 63.8764 58.9287 62.5032 59.1925C61.1292 59.4564 59.6056 59.42 58.1114 59.3842L58.0899 59.3837C56.7302 59.2489 55.3573 59.3451 54.0296 59.6684L53.8487 59.7124L53.7515 59.8711C53.0453 61.0245 52.5394 62.289 52.2551 63.6111C51.828 65.053 51.3878 66.5306 50.7023 67.7696C50.0202 69.0024 49.1183 69.956 47.7864 70.3892L47.7854 70.3895C46.503 70.8098 45.2516 70.5743 44.0054 69.9901C42.7536 69.4033 41.5543 68.4877 40.3838 67.5941C39.3269 66.6387 38.1035 65.8854 36.7744 65.3719L36.6103 65.3085L36.4466 65.3729C35.1253 65.893 33.9104 66.6505 32.8619 67.608L32.8618 67.6079L32.8528 67.6165C31.1884 69.2226 29.0628 70.2664 26.7748 70.6018C26.3346 70.5974 25.8974 70.5268 25.478 70.3925C24.1421 69.9523 23.2386 68.9972 22.5571 67.7657C21.8717 66.5274 21.433 65.0513 21.0095 63.6083C20.7249 62.2851 20.219 61.0195 19.5132 59.8646L19.4158 59.7053L19.2342 59.6614C17.9029 59.3394 16.5268 59.2455 15.1642 59.3837C13.6628 59.4178 12.1256 59.4501 10.7428 59.1824C9.36585 58.9159 8.19267 58.3609 7.38533 57.2533C6.57785 56.1455 6.41056 54.8667 6.58031 53.4881C6.75092 52.1024 7.25515 50.6656 7.7506 49.2646C8.30533 47.9891 8.63031 46.6255 8.71052 45.2368L8.72115 45.0527L8.59985 44.9139C7.73026 43.9185 6.70467 43.0712 5.56322 42.405C4.31219 41.5471 3.03122 40.6673 2.0558 39.6243C1.08571 38.5869 0.45122 37.4226 0.45122 36.0008C0.45122 34.5788 1.08583 33.4128 2.05592 32.3746C3.03126 31.3308 4.31243 30.4509 5.56296 29.5967C6.70487 28.9294 7.73065 28.0807 8.60008 27.084L8.7223 26.9439L8.71033 26.7583C8.62073 25.3695 8.28634 24.0074 7.72264 22.735L7.72114 22.7308C7.22242 21.3303 6.71382 19.9021 6.54104 18.5215C6.36911 17.1477 6.53653 15.8688 7.35448 14.7485C8.17277 13.6278 9.34788 13.0701 10.7208 12.8051C12.1011 12.5388 13.6333 12.5768 15.1334 12.6178C16.4974 12.7505 17.8741 12.6544 19.2066 12.3335L19.3892 12.2895L19.4867 12.1289C20.1868 10.9754 20.6888 9.71288 20.972 8.39367C21.399 6.95017 21.8393 5.47173 22.5248 4.23234C23.2069 2.9991 24.1088 2.04559 25.4406 1.61239L25.4407 1.61237C26.7283 1.19336 27.9799 1.43217 29.2246 2.01762C30.4508 2.59444 31.6243 3.48505 32.7725 4.35647L32.8404 4.40796C33.8971 5.36316 35.1203 6.11623 36.4492 6.62967L36.6133 6.6931L36.7771 6.62864C38.092 6.11106 39.3016 5.35831 40.3467 4.4073C41.5183 3.51576 42.7185 2.60354 43.9702 2.01755C45.2166 1.43407 46.4677 1.19665 47.7487 1.60891C49.0848 2.04905 49.9884 3.00429 50.67 4.23586C51.3553 5.47416 51.794 6.95014 52.2175 8.39311C52.5013 9.71749 53.0086 10.9839 53.7179 12.1379L53.8153 12.2964L53.9962 12.3402C55.3264 12.662 56.7014 12.7559 58.0629 12.6179C59.5574 12.5837 61.0939 12.5515 62.478 12.8192C63.8565 13.0858 65.0331 13.6409 65.842 14.7486C66.6509 15.8562 66.8182 17.1348 66.6476 18.5137C66.4762 19.8997 65.9704 21.3372 65.4732 22.74C64.9173 24.0139 64.5879 25.375 64.4997 26.7622Z" fill="#EEF4FF" stroke="#D7E4FB" stroke-width="0.902439"/>
</g>
</g>
</svg>
