<svg width="115" height="32" viewBox="0 0 115 32" fill="none" xmlns="http://www.w3.org/2000/svg">
<path d="M8.08626 0.240288C7.91999 0.461982 8.10473 0.517406 9.12083 0.628253C10.3586 0.757574 11.2084 1.12706 11.8366 1.82909C12.1506 2.16164 12.0213 2.6235 8.64049 13.3202C5.62915 22.8531 5.01949 24.6266 4.42831 25.4949C3.56001 26.7327 2.37764 27.4902 1.08443 27.6564C0.548665 27.7119 0.123752 27.8227 0.123752 27.9151C0.123752 27.989 0.0683281 28.1737 0.0129047 28.34C-0.0979423 28.5986 0.419344 28.6356 4.98254 28.6356C9.43489 28.6356 10.0815 28.5986 10.1739 28.34C10.3771 27.8227 10.2847 27.7119 9.69354 27.7119C8.84371 27.6934 7.60592 27.1022 7.21796 26.511C7.01474 26.1969 6.90389 25.6981 6.92236 25.1624C6.94084 24.6266 8.04931 20.6546 9.91523 14.595C11.5595 9.25584 12.945 4.76654 13.0005 4.61874C13.1667 4.2123 13.2961 5.20993 14.4415 15.4263C15.0142 20.5068 15.5869 25.5319 15.6977 26.6034C15.901 28.3769 15.9564 28.5432 16.3259 28.5986C16.603 28.6356 16.8801 28.4508 17.2681 27.952C17.8777 27.1946 28.8885 12.3041 32.177 7.77788C33.3039 6.26297 34.2831 5.00671 34.357 4.98823C34.4494 4.98823 34.4678 5.04366 34.4309 5.11755C34.3755 5.20993 33.0453 9.45906 31.438 14.595C29.8492 19.7309 28.2973 24.4419 28.0018 25.07C27.1889 26.7697 25.7109 27.7119 23.8635 27.7119C23.106 27.7119 22.8474 27.9151 22.8474 28.4693C22.8474 28.5617 25.323 28.6356 28.8146 28.6356C33.8951 28.6541 34.708 28.691 34.4309 28.8942C34.2461 29.042 33.5256 29.2083 32.8236 29.2822C31.9922 29.3746 31.5304 29.5039 31.4565 29.6701C31.3641 29.8918 32.4541 29.9288 38.8648 29.8918C44.3147 29.8549 46.3839 29.781 46.4393 29.6332C46.4947 29.4854 46.1437 29.3561 45.534 29.2822C43.6312 29.0235 43.0769 28.4508 43.2063 26.899C43.2986 25.9014 46.6795 14.595 46.9012 14.595C47.1044 14.595 50.7069 25.6612 50.8362 26.6958C50.9471 27.4717 50.8916 27.7119 50.5222 28.2476C50.1157 28.8573 49.8201 29.0051 48.6747 29.2637C48.3791 29.3376 48.1574 29.5039 48.1574 29.6517C48.1574 30.0766 61.3667 30.0766 61.533 29.6517C61.6069 29.4669 61.4775 29.3376 61.1265 29.2637C60.8494 29.2083 60.3875 29.0605 60.0735 28.9127C59.5931 28.691 60.1104 28.6541 64.4334 28.6541C68.7565 28.6356 69.3846 28.5986 69.477 28.34C69.6802 27.8412 69.6063 27.7858 68.738 27.7303C67.4817 27.6749 66.5211 27.2315 66.2624 26.5849C65.9484 25.8459 66.1146 24.9037 67.26 21.3012C67.7773 19.5831 68.4609 17.3846 68.7565 16.4055C69.3107 14.6134 69.3107 14.595 69.9019 14.595C70.4561 14.595 70.5116 14.6504 70.7887 15.5556C70.9365 16.0914 71.9156 19.2505 72.9502 22.5759L74.8346 28.6356H79.0652C83.222 28.6356 83.2959 28.6356 83.8686 29.079C84.7739 29.7625 85.8639 30.2613 87.4527 30.7047C88.6905 31.0557 89.3186 31.1296 91.8496 31.1112C95.2304 31.1112 96.5606 30.871 98.7036 29.8364C101.512 28.4878 103.655 25.772 105.114 21.6707C105.391 20.9317 106.574 17.1999 107.756 13.3572C108.938 9.51448 110.158 5.89348 110.472 5.3023C111.155 3.99061 112.024 3.25163 113.169 2.95604C114.666 2.58655 114.906 2.49418 114.998 2.25401C115.054 2.08774 113.89 2.03231 109.604 2.03231C106.075 2.03231 104.135 2.10621 104.135 2.21706C104.135 2.58655 104.228 2.64197 104.911 2.6974C106.149 2.78977 106.666 2.97451 107.183 3.51027C108.2 4.56332 108.126 4.96976 105.539 13.3387C102.417 23.4258 101.844 24.7929 99.9599 26.6773C97.6321 29.0051 93.2352 29.6886 90.6488 28.0998C89.3371 27.2869 88.7274 26.2893 88.6535 24.7375C88.5427 22.9824 88.7828 21.9109 90.4086 16.7195C91.7203 12.4519 93.0504 8.18432 93.4569 6.83568C93.7525 5.89348 94.5099 4.41552 94.9718 3.91671C95.5445 3.28858 96.228 2.97451 97.6136 2.71587C98.2972 2.58655 98.8699 2.38333 98.9253 2.25401C98.9807 2.08774 97.3735 2.03231 91.3138 2.03231C86.3072 2.03231 83.61 1.95842 83.5361 1.84757C83.3144 1.49655 81.7071 0.794523 80.3954 0.461982C79.2869 0.184865 77.9383 0.129441 70.8995 0.0555435C64.1748 -0.0183544 62.6784 0.0185945 62.5491 0.221814C62.2719 0.646727 62.3643 0.7391 63.0848 0.7391C63.9346 0.7391 65.154 1.07164 65.154 1.29333C65.154 1.40418 63.3435 1.47808 60.5538 1.47808C56.1938 1.47808 55.9537 1.49655 55.8613 1.82909C55.7874 2.10621 55.8982 2.21706 56.3601 2.29096C57.3947 2.49418 57.8565 3.01146 57.8565 3.95366C57.8565 4.61874 57.7457 4.89586 57.3023 5.35772C56.6926 6.00433 47.2891 14.0962 47.0305 14.1885C46.9566 14.2255 47.0859 13.5973 47.3445 12.8029C47.5847 12.0085 48.1759 10.0687 48.6378 8.49839C49.6723 5.0806 50.1527 3.95366 50.8547 3.28858C51.5383 2.66045 52.5728 2.21706 53.4042 2.21706C53.9399 2.21706 54.254 1.97689 54.254 1.55198C54.254 1.51503 51.7415 1.4596 48.6747 1.44113C43.1693 1.38571 43.0954 1.38571 43.779 1.05317C44.1485 0.886896 44.9613 0.683676 45.571 0.609778C46.3284 0.53588 46.6795 0.425033 46.6795 0.258763C46.6795 0.037069 45.7188 0.000120046 41.3773 0.000120046L36.0566 0.0185945L34.1907 2.5496C32.0107 5.50552 23.9928 16.2761 22.4964 18.2714L21.4618 19.657L21.3325 19.1027C21.2586 18.8072 20.8521 15.5372 20.4272 11.8238C20.0208 8.11042 19.5404 3.95366 19.3557 2.58655L19.0601 0.0924925L13.684 0.037069C9.2871 0.000120046 8.271 0.037069 8.08626 0.240288ZM75.5366 1.66282C77.4949 2.21706 78.4371 4.15688 78.0676 6.8911C77.6427 10.0318 75.4442 12.4519 72.396 13.0985C71.2875 13.3387 69.7726 13.3757 69.7726 13.154C69.7726 13.0801 70.567 10.4197 71.5646 7.26059L73.3751 1.47808H74.1141C74.5205 1.47808 75.1671 1.57045 75.5366 1.66282ZM65.7082 2.80824C65.7082 3.39943 65.5789 3.84281 62.9185 12.4704C59.1867 24.5158 58.6694 25.9937 58.1336 26.3263C58.0228 26.3817 57.7826 26.0676 57.5979 25.6242C57.1176 24.4973 52.776 11.9716 52.776 11.6945C52.776 11.4358 59.2606 5.89348 60.9787 4.71111C62.1426 3.87976 65.0246 2.42028 65.4865 2.4018C65.5973 2.4018 65.7082 2.58655 65.7082 2.80824ZM42.689 3.17773C43.0769 3.73197 43.0585 4.45247 42.5966 6.0967C41.913 8.59076 36.2968 26.4925 36.0751 26.9544L35.8349 27.3978L35.447 26.9544C34.7449 26.2339 34.9112 25.2732 36.6293 19.6755C41.7098 3.14078 41.8391 2.77129 42.2271 2.77129C42.3195 2.77129 42.5412 2.95604 42.689 3.17773ZM86.0301 3.30705C86.2703 3.4918 86.5289 3.84281 86.5844 4.08298C86.8061 4.95128 86.6952 5.32077 82.7047 18.1051C81.3561 22.4282 81.1529 23.9985 81.6886 25.772C81.8364 26.2708 81.9103 26.7142 81.8734 26.7697C81.6702 26.9544 80.6171 24.1463 79.1207 19.4907C78.2339 16.738 77.4764 14.4102 77.4395 14.2809C77.3841 14.1331 77.8275 13.9114 78.6403 13.6712C80.7464 13.0431 82.7601 11.9346 83.7208 10.8631C85.0879 9.34821 85.5313 8.31364 85.6237 6.44772C85.6976 4.84044 85.6791 4.74806 84.7739 2.88214C84.663 2.66045 85.4944 2.93756 86.0301 3.30705Z" fill="white"/>
</svg>
