<svg width="159" height="50" viewBox="0 0 159 50" fill="none" xmlns="http://www.w3.org/2000/svg">
<path d="M77.7592 0.170961C68.0763 0.948087 60.0252 7.72463 57.8182 17.0035C57.6472 17.6874 57.4607 18.2935 57.3985 18.3557C57.1809 18.5422 51.9897 20.1897 49.8604 20.7337C43.8765 22.2724 38.6853 23.0029 31.427 23.3293C24.0754 23.6713 14.0194 23.0185 3.03079 21.4642L0 21.0446V32.9501V44.8557L2.61114 45.3531C7.14956 46.2079 11.5636 46.7985 16.9414 47.2803C19.9721 47.5446 31.3648 47.5446 34.2713 47.2803C45.4774 46.239 55.005 43.9076 63.8642 40.022C64.7502 39.6334 65.5428 39.3226 65.605 39.3226C65.6827 39.3226 66.3199 39.7267 67.0194 40.2085C69.3041 41.7628 72.2106 42.9751 75.2414 43.6279C77.0909 44.0164 81.9091 44.0164 83.7742 43.6279C86.7894 42.9751 89.6493 41.7938 92.1672 40.1308C93.8613 38.9962 96.5346 36.4161 97.7625 34.7064C98.866 33.1522 100.389 30.1525 100.809 28.6759C101.135 27.5258 100.902 27.6346 103.824 27.2771C117.501 25.6141 138.841 26.2202 153.638 28.6915C154.928 28.9091 156.591 29.2199 157.353 29.3754C158.114 29.5463 158.751 29.6707 158.767 29.6396C158.782 29.624 157.741 23.8733 156.451 16.8636L154.089 4.1343L153.545 4.02551C152.643 3.82345 145.556 2.96862 142.836 2.71994C124.138 1.01026 107.01 1.61642 96.0994 4.3519L93.5971 4.9736L92.4314 4.14985C88.3592 1.22785 82.9349 -0.248687 77.7592 0.170961ZM83.6188 2.39354C85.1886 2.73548 87.0692 3.37272 88.1727 3.91671C89.1053 4.38298 89.3073 4.66275 88.7167 4.66275C88.1727 4.66275 86.8672 5.4865 86.1522 6.26363L85.4994 6.96304L84.5513 6.66774C83.4323 6.3258 81.6915 6.26363 81.7848 6.55894C81.8314 6.68328 82.3132 6.80762 82.9815 6.88533C84.7534 7.08738 85.7326 7.52257 86.805 8.61055C87.8308 9.63636 88.1261 10.3047 88.1261 11.5947C88.1261 13.1023 87.1158 14.2836 85.4062 14.7654C84.7068 14.9674 84.598 15.1229 84.8466 15.527C85.0487 15.8378 86.2455 15.4803 87.2402 14.812L88.0018 14.2991L89.012 15.185C91.8252 17.6563 95.1669 22.1015 94.8871 23.0029C94.7161 23.5469 92.9287 25.0079 91.561 25.7073C90.1933 26.4067 88.2038 27.0751 86.8361 27.2771C86.1522 27.3859 86.1056 27.417 86.1056 27.8522C86.1056 28.3029 86.1056 28.3185 86.7739 28.2097C87.893 28.0232 90.0223 27.3548 91.0326 26.8886C92.3692 26.2669 93.3173 25.6141 94.4519 24.5106L95.4155 23.578L95.6642 24.1842C96.3636 25.8472 96.5812 27.0751 96.5968 29.2199C96.5968 31.085 96.5502 31.4114 96.2393 32.0953C96.0372 32.515 95.6176 33.1367 95.3068 33.463C93.3795 35.468 89.183 37.4108 86.1367 37.7062C85.1575 37.7994 84.7068 38.0325 84.7068 38.4367C84.7068 38.6698 86.4631 38.4367 88.0484 38.017C89.9135 37.5041 91.8874 36.6648 93.1774 35.81C93.768 35.4369 94.312 35.1416 94.4053 35.1727C94.6384 35.2504 92.7422 37.1933 91.5455 38.0947C90.271 39.0584 87.9551 40.2551 86.3387 40.7836C84.256 41.4519 81.9091 41.856 81.9091 41.5296C81.9091 41.4674 82.1578 41.2498 82.4686 41.0323C82.9815 40.6903 84.2405 39.2138 84.2405 38.9651C84.2405 38.9029 83.2458 38.8563 82.0334 38.8563C78.2721 38.8563 75.5211 38.2501 71.7598 36.6182L71.1537 36.354L71.2158 38.0792C71.2625 39.8977 71.2003 40.0375 70.5631 39.5091C70.3144 39.307 70.19 38.9651 70.0812 38.0792C70.0035 37.4419 69.9724 36.6648 70.0191 36.354C70.1123 35.81 70.0812 35.7789 69.3663 35.3592C67.5323 34.3023 65.434 32.5616 64.5947 31.4114C64.144 30.8053 64.0352 30.51 64.0352 29.9349V29.2044L64.9367 30.2613C66.0868 31.5979 68.2783 33.3698 70.0346 34.3956C70.1589 34.4733 70.3299 34.0226 70.5631 33.0589C71.0293 31.1783 71.9619 28.4584 72.7079 26.8575L73.3141 25.5519L72.5214 25.0235C71.2936 24.1842 69.1642 21.9616 68.2628 20.6094C66.6463 18.1381 65.9469 15.6979 66.1024 12.978C66.1801 11.3305 66.693 9.40322 67.2991 8.4085C67.4856 8.12873 67.5944 7.86451 67.5478 7.81788C67.4235 7.69354 66.0557 8.36187 65.1076 9.01466C64.0974 9.69853 64.0352 9.72961 64.0352 9.41876C64.0352 9.10791 65.4496 7.84897 66.3044 7.41378C66.7241 7.19618 67.3768 6.93196 67.7654 6.82316C68.2161 6.69882 68.7601 6.34134 69.3197 5.82844C71.2936 3.97888 73.7182 2.79765 76.6713 2.23812C78.1323 1.95835 82.0334 2.05161 83.6188 2.39354ZM117.75 4.2431C119.475 4.61612 120.517 5.45542 121.263 7.08738C121.745 8.14428 121.745 10.2736 121.263 11.517C120.921 12.3718 120.268 13.2111 119.522 13.724C119.149 14.0038 119.133 14.0038 119.444 14.1748C119.615 14.268 120.113 14.7032 120.548 15.154C121.745 16.3663 122.211 18.1381 121.869 20.1431C121.636 21.4642 121.263 22.1636 120.439 22.9097C119.196 24.0443 117.455 24.495 113.771 24.666L111.44 24.7592V24.1997C111.44 23.6402 111.455 23.6246 112.062 23.6246H112.683V14.5323V5.43988H112.062C111.455 5.43988 111.44 5.42433 111.44 4.89589C111.44 4.44516 111.502 4.3519 111.797 4.33636C111.984 4.32081 112.916 4.25864 113.849 4.19647C116.522 4.02551 116.74 4.04105 117.75 4.2431ZM131.303 4.42961C131.381 4.50733 131.583 5.79735 131.754 7.25835L132.049 9.94721H131.645C131.303 9.94721 131.101 9.68299 130.029 7.72463C129.345 6.51231 128.785 5.50205 128.77 5.47096C128.754 5.45542 128.381 5.39325 127.931 5.33108L127.138 5.23782V9.23225V13.2111H127.993H128.848V12.1232C128.848 11.1595 128.879 11.0352 129.143 11.0352C129.935 11.0352 129.935 11.0196 129.935 14.2525C129.935 16.9569 129.904 17.2677 129.687 17.19C129.547 17.1434 129.314 17.0968 129.143 17.0968C128.879 17.0968 128.848 16.9724 128.848 16.102V15.1073L127.993 15.0452L127.138 14.9985V19.2416V23.4847L127.931 23.4381L128.739 23.3915L130.122 20.7026C131.381 18.3091 131.552 18.0293 131.909 18.0293C132.282 18.0293 132.298 18.0604 132.22 18.6821C132.174 19.0551 132.003 20.5628 131.847 22.0548L131.567 24.7592L128.692 24.666C127.107 24.6038 124.993 24.5572 123.998 24.5572H122.164V24.0132C122.164 23.4692 122.164 23.4692 122.864 23.4692H123.563V14.3768V5.28445H122.864C122.164 5.28445 122.164 5.28445 122.164 4.74046V4.18093L126.672 4.22756C129.407 4.25864 131.226 4.33636 131.303 4.42961ZM108.596 4.78709C109.45 5.23782 110.165 5.99941 110.632 6.99413C110.958 7.69354 111.051 8.14428 111.098 9.41876C111.16 10.771 111.113 11.0818 110.818 11.7812C110.165 13.3044 109 13.7862 107.865 13.0091C107.057 12.4651 106.699 11.6258 106.715 10.2581C106.715 8.89032 107.088 8.00439 107.896 7.44486C108.176 7.25835 108.425 7.08738 108.456 7.0563C108.596 6.96304 108.005 5.90615 107.71 5.75073C107.197 5.47096 106.497 5.51759 106.14 5.84398C105.394 6.51231 104.679 8.54838 104.259 11.1129C103.979 12.978 104.026 18.2314 104.352 20.0498C104.819 22.6299 105.301 23.8422 106.031 24.3085C106.87 24.8214 107.865 21.6974 107.865 18.5111V17.4542L108.922 17.361C109.497 17.2988 110.259 17.2522 110.632 17.2522H111.284V17.9361C111.284 19.0862 110.849 20.8425 110.274 22.0082C109.186 24.2152 107.616 25.4897 105.922 25.4897C103.84 25.4897 102.316 24.1375 101.322 21.4487C99.2546 15.7757 100.855 7.30498 104.399 5.11348C105.689 4.32081 107.399 4.18093 108.596 4.78709ZM140.396 4.74046C141.826 4.84926 143.022 4.95806 143.053 4.98914C143.069 5.02023 143.224 6.29472 143.395 7.80234L143.706 10.5689H143.302C142.96 10.5689 142.758 10.2891 141.608 8.23753C140.877 6.9475 140.24 5.90615 140.162 5.90615C140.1 5.90615 140.038 9.96275 140.038 14.9053C140.038 24.7281 139.976 24.0909 140.909 24.0909C141.235 24.0909 141.282 24.1686 141.282 24.6504V25.2255L140.085 25.1167C139.416 25.0701 138.173 24.9768 137.318 24.9302C135.08 24.8059 135.065 24.8059 135.065 24.1686C135.065 23.6402 135.08 23.6246 135.686 23.6246H136.308V14.5944C136.308 7.66246 136.261 5.57976 136.121 5.62639C136.013 5.67301 135.344 6.65219 134.629 7.81788C133.541 9.60527 133.277 9.94721 132.951 9.94721C132.5 9.94721 132.5 10.1493 132.889 6.99413C133.06 5.57976 133.199 4.39853 133.199 4.36744C133.199 4.28973 137.225 4.49178 140.396 4.74046ZM91.3745 5.75073C93.737 7.38269 95.0892 8.79706 96.5191 11.2062C97.5915 12.9625 97.5449 13.1023 96.2393 12.2164C94.5918 11.1129 91.3745 10.1026 89.4317 10.1026C88.7012 10.1026 88.6079 10.056 88.4525 9.66744C88.2504 9.17008 87.5044 8.33079 86.7428 7.74017L86.2144 7.33606L87.0692 6.48123C88.0639 5.4865 88.9188 4.98914 89.6959 4.9736C90.1155 4.9736 90.5197 5.16011 91.3745 5.75073ZM148.726 5.50205L150.358 5.67301L152.223 15.4648C153.249 20.8425 154.166 25.3032 154.26 25.3654C154.337 25.4276 154.648 25.4897 154.928 25.4897C155.41 25.4897 155.425 25.5053 155.425 26.127C155.425 26.7331 155.41 26.7487 155.006 26.671C154.757 26.6243 153.591 26.4845 152.394 26.3446C149.239 25.9871 149.364 26.0337 149.364 25.3809C149.364 24.8525 149.379 24.8369 149.908 24.8991C150.203 24.9302 150.452 24.9613 150.452 24.9457C150.452 24.8369 149.83 21.6974 149.799 21.6818C149.721 21.6196 145.245 21.1845 145.183 21.2311C145.121 21.2932 144.561 23.9044 144.545 24.1997C144.545 24.324 144.748 24.4018 145.089 24.4018C145.618 24.4018 145.633 24.4173 145.633 25.039C145.633 25.5674 145.587 25.6607 145.369 25.583C145.214 25.5519 144.468 25.4742 143.691 25.412C141.484 25.2721 141.437 25.2411 141.437 24.6038V24.0443L142.214 24.1375C142.649 24.1842 142.991 24.2152 142.991 24.1997C142.991 24.1842 143.753 20.3452 144.685 15.6979C145.618 11.0352 146.411 7.0563 146.426 6.8387C146.488 6.48123 146.442 6.45014 145.711 6.37243C144.934 6.29472 144.934 6.29472 144.887 5.7041L144.841 5.12903L145.975 5.22228C146.597 5.28445 147.84 5.40879 148.726 5.50205ZM92.4936 11.3305C95.1047 11.9988 96.6279 12.8226 97.1408 13.8173C97.5604 14.6566 97.576 16.8792 97.1563 18.5267C96.8765 19.6302 95.9129 21.7906 95.6176 21.9771C95.5399 22.0237 95.229 21.6041 94.9182 21.0757C93.9546 19.3971 92.478 17.563 90.4264 15.5114L88.4525 13.522L88.6701 12.9935C88.7944 12.6827 88.9032 12.0765 88.9032 11.6413V10.8331L90.1311 10.9419C90.7994 10.9886 91.8719 11.1751 92.4936 11.3305ZM98.6173 15.7912C99.8141 19.2727 99.8918 23.034 98.8504 27.1217C98.3531 29.0645 97.4827 31.256 97.1563 31.3648C97.0009 31.4114 96.9698 31.3648 97.0475 31.1472C97.1252 30.9762 97.2029 30.2613 97.2496 29.5308C97.3428 28.0232 96.9387 25.7229 96.2704 23.9821L95.8974 22.9408L96.5968 21.5419C97.5604 19.6302 97.949 18.0449 97.9645 16.0399C97.9645 15.1229 98.0267 14.5012 98.1044 14.5789C98.1821 14.6566 98.4153 15.2006 98.6173 15.7912ZM65.1387 16.9724C65.1387 17.0035 65.3097 18.4179 65.4962 20.1276C65.8226 22.9563 65.8381 23.2516 65.6205 23.4381C65.4806 23.5469 65.2941 23.6091 65.2009 23.578C65.1232 23.5469 64.4548 22.5833 63.7243 21.4331L62.4032 19.3349L61.8126 19.5836L61.2375 19.8167V28.707C61.2375 34.722 61.2842 37.6129 61.393 37.6129C61.4862 37.6129 61.8126 37.5041 62.1235 37.3798C62.4188 37.2554 62.6985 37.1466 62.7296 37.1466C62.7607 37.1466 62.7918 37.4108 62.7918 37.7372C62.7918 38.3123 62.7918 38.3123 61.6727 38.763C60.0874 39.3847 56.7458 40.566 56.5748 40.566C56.4815 40.566 56.4194 40.3328 56.4194 40.0375C56.4194 39.5713 56.4815 39.478 57.0411 39.2604L57.6628 39.0117V30.168V21.3088L57.0411 21.5264L56.4194 21.744V21.1689V20.5938L58.5642 19.7701C59.7299 19.3193 61.6416 18.4956 62.7918 17.9516C64.7812 17.0191 65.1076 16.8947 65.1387 16.9724ZM56.1085 21.2777C56.1085 21.8062 56.0619 21.8839 55.6111 22.0082L55.0982 22.1636L54.9894 24.5572C54.6009 33.2455 54.0569 36.7736 52.7047 39.5557C51.912 41.2032 51.2748 42.0425 50.4044 42.5865C48.6015 43.7367 46.9384 42.6953 46.9384 40.4261C46.9384 38.3434 48.3217 36.8358 49.7516 37.3331C50.249 37.5041 50.8241 38.4211 50.8241 39.0428C50.8241 39.2449 50.8862 39.4935 50.9639 39.6179C51.2592 40.0842 52.2695 37.4264 52.5959 35.2971L52.7047 34.6132L52.083 35.1572C51.3214 35.8721 50.6997 36.012 49.9692 35.6545C49.0677 35.2349 48.7569 34.4733 47.6378 29.9971C46.2079 24.2308 46.3478 24.6815 46.037 24.7748C45.8971 24.8059 45.6173 24.8836 45.4153 24.9457C45.0733 25.039 45.0578 25.0079 45.1044 24.4639L45.151 23.8889L47.7622 23.2205C49.1921 22.863 50.4977 22.5056 50.6842 22.4589C50.9639 22.3657 50.995 22.4123 50.9484 22.9408C50.9018 23.4692 50.8396 23.5625 50.3889 23.6868C50.0314 23.7801 49.907 23.9044 49.9537 24.0754C50.0003 24.2152 50.4199 26.0648 50.9018 28.2097C51.9431 32.8103 52.254 33.5097 52.7669 32.2818C53.0933 31.4891 53.2798 29.6085 53.4041 25.9715L53.5129 22.6921L52.8446 22.9252C52.4871 23.0496 52.1607 23.1584 52.1141 23.1584C52.083 23.1584 52.0675 22.8941 52.0985 22.5833L52.1452 22.0237L54.088 21.3554C55.1604 20.9979 56.0463 20.6871 56.0774 20.6871C56.093 20.6715 56.1085 20.9358 56.1085 21.2777ZM4.66276 23.7801C7.77126 24.3551 8.54839 24.5883 9.58974 25.2877C11.0663 26.2824 11.7035 27.7279 11.7035 30.0748C11.7035 31.1783 11.6413 31.629 11.3616 32.2507C10.973 33.1211 10.3979 33.805 9.74516 34.1314L9.30997 34.3645L10.0716 35.0484C11.8589 36.6648 12.5584 39.4935 11.7191 41.856C11.2372 43.2393 10.1026 44.1563 8.50176 44.4672C7.75572 44.6226 7.25836 44.5915 5.33109 44.3117C4.0566 44.1097 2.7044 43.8921 2.30029 43.7988C1.58534 43.6589 1.55425 43.6279 1.55425 43.0994V42.5399L2.25367 42.6331L2.95308 42.7419V33.6651V24.5883L2.25367 24.495C1.58534 24.3862 1.55425 24.3551 1.55425 23.8422C1.55425 23.1894 1.42991 23.1894 4.66276 23.7801ZM43.6123 25.0701C47.9176 27.246 46.3478 35.7012 41.3897 37.1622L40.7214 37.3487V40.3795V43.4103L41.4208 43.317L42.1202 43.2082V43.7677C42.1202 44.063 42.027 44.3428 41.9337 44.3739C41.3276 44.5915 36.1364 45.2132 31.5979 45.6173L30.4633 45.7261V45.1821C30.4633 44.7003 30.5255 44.6226 30.9296 44.5293C31.1938 44.4672 31.3959 44.405 31.3959 44.3584C31.3959 44.2962 29.8416 38.5765 29.4375 37.1777C29.2666 36.556 29.1422 36.3695 28.9091 36.3695C28.6138 36.3695 28.5982 36.4938 28.5982 40.4883V44.607H29.2199C29.8261 44.607 29.8416 44.6226 29.8416 45.1355C29.8416 45.6328 29.8106 45.6639 29.1267 45.7572C28.7226 45.8038 27.3548 45.8504 26.0959 45.8504H23.7801V45.3064C23.7801 44.7625 23.7801 44.7625 24.4795 44.7625H25.1789V35.8255V26.8886H24.4795H23.7801V26.2979V25.7229L26.8109 25.6918L29.8416 25.6762V26.2824C29.8416 26.8886 29.8416 26.8886 29.2199 26.8886H28.5982V30.6965C28.5982 33.805 28.6449 34.5044 28.8158 34.5044C28.9713 34.5044 31.2405 29.3443 32.1109 26.9974C32.1886 26.7798 32.1109 26.7331 31.7223 26.7331C31.2716 26.7331 31.2405 26.6865 31.2405 26.1891C31.2405 25.5519 31.2405 25.5519 33.6962 25.412L35.437 25.3188V25.8472C35.437 26.329 35.3903 26.3757 34.7842 26.5155L34.1314 26.6554L32.5305 30.4633C31.6446 32.5616 30.9296 34.3179 30.9296 34.3645C30.9296 34.4111 31.1628 34.5666 31.4581 34.7064C32.515 35.2038 32.7792 35.7789 33.9138 40.0686C34.4889 42.2446 35.0018 44.063 35.0328 44.1097C35.0795 44.1408 35.5768 44.1252 36.1364 44.063L37.1466 43.9542V35.095V26.2202L36.5094 26.329L35.8877 26.4223L35.9343 25.8472L35.9809 25.2721L38.0947 25.0079C39.2604 24.868 40.3484 24.7126 40.5038 24.666C41.2188 24.4639 42.8352 24.666 43.6123 25.0701ZM20.0809 25.5985C22.1326 26.7176 23.376 29.5463 23.8111 33.9915C24.122 37.1622 23.6091 41.0012 22.6299 43.0839C21.7595 44.9334 20.5472 45.8504 18.8065 45.9592C15.6979 46.1768 13.6153 43.5191 12.8848 38.4211C12.6205 36.4628 12.7915 32.1264 13.1956 30.4633C13.895 27.6968 15.2161 25.754 16.7393 25.2721C17.7806 24.9302 19.1018 25.0701 20.0809 25.5985Z" fill="white"/>
<path d="M76.4701 3.10839C74.8537 3.45033 74.0144 3.76118 72.8953 4.38288C72.2581 4.74036 70.0977 6.2169 70.0977 6.27907C70.0977 6.29461 70.8126 6.29461 71.6985 6.31015C73.6414 6.32569 75.1801 6.57437 77.0296 7.16499L78.444 7.61572L79.3455 7.07173C79.8428 6.77643 80.4801 6.48112 80.7754 6.43449C81.0551 6.38786 81.2883 6.27907 81.2883 6.2169C81.2883 6.15473 81.0085 5.67291 80.651 5.16C79.8894 4.00986 78.5839 2.79754 78.1176 2.81308C77.9466 2.81308 77.2006 2.95297 76.4701 3.10839Z" fill="white"/>
<path d="M69.8334 7.25832C69.336 7.30494 69.1029 7.42928 68.8853 7.74013C67.9061 9.12342 67.1445 11.4703 67.1445 13.1334C67.1445 14.439 67.3 15.5425 67.502 15.5425C67.5797 15.5425 68.1237 15.2472 68.6832 14.8897C70.3618 13.8328 73.2061 12.5272 75.4442 11.7967L77.5269 11.1129L77.5891 10.0249C77.6357 9.41873 77.6979 8.84365 77.729 8.71931C77.9155 8.08207 72.1959 7.02518 69.8334 7.25832Z" fill="white"/>
<path d="M80.8506 7.38262C80.0268 7.7401 79.4362 8.22192 79.1564 8.75037C78.0063 10.9729 79.4051 13.5375 82.2805 14.5011C83.0887 14.7809 84.3942 14.8586 84.3942 14.641C84.3942 14.0815 82.9333 9.51195 82.2805 8.08204C81.8297 7.07177 81.7054 7.0096 80.8506 7.38262Z" fill="white"/>
<path d="M75.5366 12.9623C72.5369 14.0969 68.5269 16.133 67.9518 16.8324C67.3301 17.5629 70.4231 21.8216 72.941 23.7177L73.858 24.4016L74.9149 22.5054C76.1583 20.2051 76.8888 19.0084 78.5208 16.5837L79.7486 14.7342L78.8938 13.8172C78.4275 13.3198 78.0079 12.7603 77.9457 12.5893C77.8058 12.1541 77.5727 12.2007 75.5366 12.9623Z" fill="white"/>
<path d="M79.7797 17.0501C78.6917 18.7287 76.9354 21.7129 75.7231 23.951L75.0703 25.1322L76.2826 25.6917C78.9093 26.9041 81.3184 27.4014 84.1627 27.3237L85.8724 27.2771L85.8568 25.3343C85.8257 23.3448 85.4838 20.0343 85.0797 17.7961C84.7378 15.9155 84.7844 16.0088 83.9606 16.0088C83.3234 16.0088 82.2354 15.7912 81.1941 15.4648C80.9143 15.3715 80.7122 15.5891 79.7797 17.0501Z" fill="white"/>
<path d="M73.8252 27.7745C72.5818 30.5877 71.1985 34.9085 71.4472 35.1261C71.6959 35.3437 74.2604 36.3539 75.5349 36.7425C77.5865 37.3642 79.4361 37.6284 82.2337 37.7217L84.7983 37.8149L85.1713 36.5871C85.6531 34.9396 85.9484 32.6548 85.9484 30.3856V28.5205H83.5704C80.5241 28.505 78.6434 28.1164 75.8147 26.8885L74.478 26.3135L73.8252 27.7745Z" fill="white"/>
<path d="M116.41 9.4032C116.41 12.0454 116.472 13.522 116.566 13.522C116.908 13.522 117.933 12.2786 118.182 11.5636C118.959 9.26332 118.384 6.21699 117.032 5.51757C116.783 5.39323 116.55 5.28444 116.488 5.28444C116.441 5.28444 116.41 7.134 116.41 9.4032Z" fill="white"/>
<path d="M116.41 19.0395C116.41 22.1636 116.457 23.3137 116.597 23.3137C116.985 23.3137 117.964 22.0548 118.229 21.1689C118.602 19.9721 118.586 17.765 118.213 16.6615C117.918 15.7911 117.078 14.7653 116.659 14.7653C116.441 14.7653 116.41 15.185 116.41 19.0395Z" fill="white"/>
<path d="M147.455 9.79171C147.393 9.91605 146.957 12.1231 146.444 14.7031L145.543 19.3814L147.486 19.5524C148.543 19.6612 149.429 19.7234 149.444 19.7078C149.475 19.6768 149.04 17.392 148.512 14.6099C147.983 11.8278 147.501 9.66737 147.455 9.79171Z" fill="white"/>
<path d="M6.52344 29.2977V33.4165H6.88092C7.76684 33.4165 8.69939 31.5048 8.69939 29.7018C8.69939 27.9145 7.89118 25.8784 6.98971 25.4121L6.52344 25.1634V29.2977Z" fill="white"/>
<path d="M6.52345 39.0117C6.52345 43.7833 6.50791 43.7522 7.42492 42.9751C7.6736 42.7575 8.04662 42.2601 8.24867 41.856C8.57507 41.2032 8.62169 40.8924 8.60615 39.3226C8.60615 37.8305 8.54398 37.3798 8.24867 36.6337C7.90674 35.7633 7.03636 34.6598 6.69442 34.6598C6.57008 34.6598 6.52345 35.8721 6.52345 39.0117Z" fill="white"/>
<path d="M40.7188 31.0074C40.7188 35.9966 40.7343 36.2142 40.9985 36.0432C41.4337 35.779 41.9155 34.9863 42.2885 33.9605C42.5839 33.1678 42.6305 32.686 42.646 30.7743C42.6616 28.2253 42.444 27.2617 41.6202 26.3291C40.7188 25.3033 40.7188 25.2722 40.7188 31.0074Z" fill="white"/>
<path d="M17.862 26.4222C17.4734 26.6554 16.9761 27.9454 16.6963 29.4686C16.3544 31.3181 16.23 36.9601 16.4632 39.4002C16.8517 43.3325 17.6444 45.3064 18.6391 44.778C19.7426 44.1873 20.5042 39.3536 20.3022 34.1935C20.1001 28.5205 19.1831 25.6451 17.862 26.4222Z" fill="white"/>
<path d="M100.719 37.5194C100.719 37.5505 100.843 37.6749 100.999 37.7837C101.232 37.9857 101.247 37.9702 101.045 37.7215C100.843 37.4728 100.719 37.3951 100.719 37.5194Z" fill="white"/>
<path d="M98.8159 37.9547C98.7382 38.1567 100.028 39.167 100.339 39.167C100.417 39.167 100.634 39.0582 100.805 38.9183C101.101 38.6852 101.101 38.6852 100.774 38.7784C100.541 38.8406 100.215 38.7007 99.7173 38.3122C98.9091 37.706 98.8936 37.6905 98.8159 37.9547Z" fill="white"/>
<path d="M97.7953 39.2758C97.6398 39.3379 97.6709 39.4156 97.9041 39.5866C98.0906 39.7109 98.2305 39.9285 98.2305 40.084C98.2305 40.3637 99.1941 40.8145 99.4739 40.6435C99.707 40.5036 99.6604 40.2549 99.4117 40.3482C99.2873 40.3948 99.1475 40.3637 99.0853 40.2705C99.0387 40.1772 98.8522 40.0995 98.6967 40.0995C98.4947 40.0995 98.417 40.0218 98.4791 39.8664C98.5413 39.742 98.4947 39.5244 98.3859 39.4001C98.1838 39.1514 98.1217 39.1359 97.7953 39.2758Z" fill="white"/>
<path d="M96.9852 40.0218C96.8764 40.1462 97.0784 40.4104 97.6691 40.9233C98.384 41.545 98.5394 41.6072 98.6949 41.4207C98.8347 41.2497 98.8347 41.1875 98.7104 41.1875C98.6016 41.1875 98.213 40.8767 97.84 40.5037C97.3271 40.0063 97.1095 39.882 96.9852 40.0218Z" fill="white"/>
<path d="M94.2985 42.3687C94.1586 42.5241 94.3762 43.0371 94.5627 42.9593C94.6559 42.9283 94.8891 43.006 95.06 43.1614C95.573 43.6277 95.9926 43.8142 96.1947 43.6743C96.3656 43.581 96.3501 43.5344 96.1947 43.4256C96.0703 43.3634 95.6196 43.0681 95.1844 42.8039C94.7337 42.5241 94.3451 42.3221 94.2985 42.3687Z" fill="white"/>
<path d="M97.1367 42.5863C97.1367 42.664 97.2144 42.7417 97.2921 42.7417C97.3854 42.7417 97.4476 42.664 97.4476 42.5863C97.4476 42.493 97.3854 42.4308 97.2921 42.4308C97.2144 42.4308 97.1367 42.493 97.1367 42.5863Z" fill="white"/>
<path d="M92.914 43.4723C93.0228 43.519 93.1627 43.5034 93.2093 43.4568C93.2715 43.4102 93.1782 43.3635 93.0073 43.3791C92.8363 43.3791 92.7897 43.4257 92.914 43.4723Z" fill="white"/>
<path d="M92.2166 43.7676C92.0767 43.8298 92.6518 44.98 93.1803 45.6638C93.1958 45.6794 93.3201 45.6638 93.46 45.6017C93.6932 45.5239 93.6932 45.4773 93.4911 45.2753C93.3668 45.1509 93.0715 44.7468 92.8539 44.3583C92.6363 43.9852 92.4342 43.6744 92.4342 43.6899C92.4187 43.6899 92.3254 43.7366 92.2166 43.7676Z" fill="white"/>
<path d="M67.5668 45.3529C67.4735 46.5963 67.5046 46.7984 67.7844 46.5186C68.0486 46.2544 68.1108 44.3427 67.8621 44.2494C67.7067 44.1873 67.629 44.4515 67.5668 45.3529Z" fill="white"/>
<path d="M91.5655 44.3892C91.5655 44.5602 91.6122 44.6068 91.6588 44.4825C91.7054 44.3737 91.6899 44.2338 91.6433 44.1872C91.5966 44.125 91.55 44.2183 91.5655 44.3892Z" fill="white"/>
<path d="M90.3194 44.8089C90.3504 44.8245 90.5059 44.9488 90.6613 45.0576C90.8944 45.2441 90.9255 45.2441 90.8323 45.011C90.7856 44.8711 90.6302 44.7623 90.4903 44.7623C90.366 44.7623 90.2883 44.7778 90.3194 44.8089Z" fill="white"/>
<path d="M68.997 45.3376C68.7949 45.6018 68.7949 45.6018 69.0903 45.3842C69.2612 45.2599 69.4322 45.1355 69.4633 45.12C69.4944 45.0889 69.4633 45.0734 69.37 45.0734C69.2768 45.0734 69.1058 45.1977 68.997 45.3376Z" fill="white"/>
<path d="M89.5427 45.2285C89.3873 45.3218 89.4339 45.5549 89.7603 46.301C90.009 46.8294 90.2732 47.2335 90.3665 47.2024C90.5685 47.1247 90.5685 47.0936 90.1022 45.9746C89.838 45.3529 89.6826 45.1353 89.5427 45.2285Z" fill="white"/>
<path d="M70.2838 45.695C69.631 45.9592 69.3668 47.1404 69.8486 47.5445C69.9885 47.6689 70.0196 47.5756 69.973 47.2026C69.9419 46.8606 70.0352 46.5343 70.3149 46.1146C70.5325 45.8038 70.6879 45.5395 70.6724 45.5551C70.6569 45.5551 70.4859 45.6172 70.2838 45.695Z" fill="white"/>
<path d="M88.2377 45.8037C88.1756 45.8503 88.1289 46.2855 88.1289 46.7673V47.6222L87.6627 47.1714C87.414 46.9228 87.1653 46.6119 87.1187 46.4565C87.0565 46.2855 86.9322 46.2233 86.7301 46.27C86.4659 46.3477 86.5281 46.4565 87.2275 47.2647C87.6627 47.7776 88.0512 48.1506 88.0823 48.1195C88.1445 48.0574 88.4087 45.6949 88.3621 45.6949C88.3465 45.6949 88.2844 45.7415 88.2377 45.8037Z" fill="white"/>
<path d="M90.5467 45.8349C90.5001 45.9126 90.5623 46.0058 90.6866 46.0525C90.8265 46.1146 90.8731 46.068 90.811 45.9126C90.7177 45.6639 90.6555 45.6484 90.5467 45.8349Z" fill="white"/>
<path d="M71.2826 46.5964C71.236 46.9228 71.0495 47.3424 70.8785 47.5289C70.6298 47.7931 70.6143 47.8708 70.7853 47.8708C71.1894 47.8708 71.6557 47.2181 71.6557 46.6896C71.6557 45.9591 71.407 45.8969 71.2826 46.5964Z" fill="white"/>
<path d="M72.8369 46.4876C72.868 46.5653 72.8058 47.016 72.6815 47.5134C72.495 48.1973 72.495 48.4304 72.6349 48.5237C72.7592 48.6014 72.8835 48.4304 73.0234 47.9797C73.1322 47.6222 73.2721 47.1404 73.3498 46.9072C73.4586 46.5498 73.4431 46.4876 73.1167 46.4254C72.9146 46.3943 72.7903 46.4254 72.8369 46.4876Z" fill="white"/>
<path d="M91.4054 46.5655C91.4054 46.7365 91.452 46.7831 91.4986 46.6588C91.5453 46.55 91.5297 46.4101 91.4831 46.3634C91.4365 46.3013 91.3898 46.3945 91.4054 46.5655Z" fill="white"/>
<path d="M85.4047 46.7828C85.3581 46.8605 85.3892 46.9382 85.4669 46.9382C85.5601 46.9382 85.6379 46.8605 85.6379 46.7828C85.6379 46.6896 85.6068 46.6274 85.5757 46.6274C85.5291 46.6274 85.4513 46.6896 85.4047 46.7828Z" fill="white"/>
<path d="M74.2891 46.9384C74.2891 47.0161 74.3979 47.0472 74.5222 47.0006C74.6465 46.9384 74.7553 46.8762 74.7553 46.8451C74.7553 46.814 74.6465 46.783 74.5222 46.783C74.3979 46.783 74.2891 46.8451 74.2891 46.9384Z" fill="white"/>
<path d="M84.351 47.0472C84.2888 47.0939 84.2422 47.2804 84.2422 47.4358C84.2422 47.7311 84.5841 47.9332 85.3923 48.1041C85.7498 48.1818 85.812 48.2596 85.7498 48.5393C85.6566 48.8657 85.6566 48.8657 85.8742 48.586C85.9985 48.415 86.1073 48.2285 86.1073 48.1663C86.1073 47.9643 85.4234 47.5601 85.0815 47.5601C84.724 47.5601 84.3354 47.2027 84.5064 47.0472C84.553 46.9851 84.5686 46.9384 84.522 46.9384C84.4909 46.9384 84.3976 46.9851 84.351 47.0472Z" fill="white"/>
<path d="M75.7657 47.8243C75.7191 48.244 75.6414 48.7258 75.5947 48.9123C75.5481 49.1765 75.5947 49.2698 75.7968 49.2698C76.0144 49.2698 76.0921 49.1299 76.1076 48.6792C76.1387 48.3683 76.1854 47.8709 76.232 47.5912C76.3097 47.2182 76.2631 47.0938 76.0921 47.0938C75.9367 47.0938 75.8279 47.327 75.7657 47.8243Z" fill="white"/>
<path d="M76.751 47.2026C76.9996 47.2959 76.9841 48.0109 76.7199 48.1197C76.409 48.244 76.8131 49.332 77.2017 49.3786C77.3571 49.4097 77.3882 49.3786 77.2949 49.332C77.1861 49.2853 77.0929 49.0833 77.0929 48.8812C77.0929 48.6792 77.0152 48.4616 76.9064 48.3994C76.7976 48.3217 76.8442 48.244 77.0618 48.1663C77.4815 48.0109 77.5125 47.4669 77.1084 47.2493C76.9375 47.1716 76.751 47.0938 76.6732 47.1094C76.6111 47.1094 76.6422 47.156 76.751 47.2026Z" fill="white"/>
<path d="M78.4607 47.358C78.585 47.4046 78.6472 47.7621 78.6472 48.3371C78.6472 49.3319 78.8493 49.5961 79.6108 49.565C79.9683 49.5494 79.9683 49.5494 79.5797 49.4406C79.2223 49.3474 79.1912 49.2386 79.1446 48.4304C79.1135 47.7931 79.1601 47.4667 79.3 47.389C79.4243 47.2958 79.2689 47.2647 78.8803 47.2647C78.5384 47.2647 78.3519 47.3113 78.4607 47.358Z" fill="white"/>
<path d="M80.1249 47.4048C80.187 47.498 80.2958 47.5291 80.3735 47.4825C80.5911 47.3426 80.5445 47.2493 80.2647 47.2493C80.1404 47.2493 80.0782 47.3271 80.1249 47.4048Z" fill="white"/>
<path d="M81.6031 47.5444C81.1834 48.3526 81.6497 49.4406 82.4268 49.4095H82.7688L82.4424 49.2696C81.9761 49.0831 81.8984 48.9121 81.8829 48.0262C81.8829 47.1714 81.8518 47.1092 81.6031 47.5444Z" fill="white"/>
<path d="M82.9366 47.4514C82.9832 47.6068 83.0765 47.6846 83.1231 47.6379C83.1697 47.5913 83.1231 47.467 83.0143 47.3582C82.8589 47.2183 82.8434 47.2338 82.9366 47.4514Z" fill="white"/>
<path d="M73.4836 47.498C73.3592 47.6068 73.7012 48.6947 73.9032 48.8346C74.2296 49.0833 74.2607 48.9434 74.012 48.1818C73.7789 47.4358 73.6701 47.2959 73.4836 47.498Z" fill="white"/>
<path d="M80.2462 48.5703C80.2462 48.9123 80.2773 49.0366 80.3084 48.8346C80.3395 48.6481 80.3395 48.3683 80.3084 48.2129C80.2618 48.073 80.2307 48.2284 80.2462 48.5703Z" fill="white"/>
<path d="M82.8398 48.8034C82.8398 49.1453 82.902 49.2385 83.073 49.1764C83.1973 49.1142 83.3061 48.9121 83.3061 48.7101C83.3061 48.477 83.2129 48.3371 83.073 48.3371C82.9176 48.3371 82.8398 48.4925 82.8398 48.8034Z" fill="white"/>
<path d="M84.3945 48.6324C84.3945 48.7723 84.8608 49.0054 84.9541 48.9122C84.9851 48.8966 84.8608 48.7878 84.7054 48.679C84.5344 48.5702 84.3945 48.5547 84.3945 48.6324Z" fill="white"/>
</svg>
