<svg width="133" height="41" viewBox="0 0 133 41" fill="none" xmlns="http://www.w3.org/2000/svg">
<path d="M17.623 0.18396C10.7735 0.98649 4.57233 5.55088 1.81258 11.8374C-1.59554 19.6286 0.0669572 28.423 6.08521 34.3751C11.6546 39.9092 20.0336 41.5644 27.4317 38.6051C32.0368 36.766 36.0933 32.8369 38.0883 28.2892C41.4965 20.498 39.834 11.7036 33.8157 5.75151C30.657 2.60827 26.4841 0.652103 21.9455 0.16724C20.1333 -0.0166728 19.3686 -0.0166728 17.623 0.18396ZM26.933 20.0466V32.0845L25.0211 32.1347C23.9571 32.1681 23.0261 32.1681 22.943 32.1347C22.8432 32.1013 22.7767 28.3227 22.7767 21.7018V11.3358L20.815 11.4027C19.0028 11.4528 18.7701 11.503 17.8723 11.9544C17.1242 12.3389 16.7751 12.6566 16.3761 13.2752C15.9106 14.061 15.8773 14.1948 15.8773 15.7831C15.8773 17.2544 15.9272 17.5888 16.3096 18.3914C16.825 19.4948 17.8391 20.498 19.9172 21.986C20.7485 22.5879 21.4467 23.1062 21.4467 23.1397C21.4467 23.1898 19.2855 26.6006 16.8083 30.4795L15.761 32.1013H13.4501C12.17 32.1013 11.1392 32.0678 11.1392 32.0177C11.1392 31.9508 12.8848 29.3258 15.5947 25.3299L16.4925 24.0091L16.1101 23.7583C15.894 23.6078 15.0627 22.8554 14.2813 22.0696C12.2531 20.0466 11.6546 18.6422 11.638 15.9671C11.638 12.6901 13.0677 10.2825 15.8441 8.96163C17.4235 8.22598 18.687 8.05879 22.9928 8.04207L26.933 8.02535V20.0466Z" fill="white"/>
<path d="M87.0488 7.52373C83.0588 8.15907 79.9499 9.9982 78.1711 12.7569C76.6249 15.1143 75.9766 17.6724 75.9766 21.3172C75.9766 24.1762 76.2426 25.5472 77.1403 27.3696C78.5368 30.2287 81.2301 31.7334 85.8518 32.2517C93.1502 33.0709 99.5009 30.9141 101.446 26.9684C101.895 26.0488 101.995 25.6308 102.045 24.4103C102.128 22.6213 101.828 21.451 100.964 20.2806C99.3181 18.0402 96.2424 16.7696 91.5043 16.3683C86.6664 15.967 82.1444 16.9869 79.8169 18.9932L79.0854 19.6286L79.2018 18.5585C79.6008 15.0307 81.3631 12.3724 84.1228 11.1518C87.8634 9.49662 94.6797 9.78085 99.2682 11.7705C100.016 12.1048 100.665 12.3724 100.698 12.3724C100.731 12.3724 100.748 11.7705 100.748 11.0348V9.69725L100.133 9.37958C99.0354 8.84456 97.1402 8.20923 95.4611 7.85812C93.6157 7.45685 88.7113 7.27294 87.0488 7.52373ZM93.6157 19.5282C96.8243 20.3977 98.5866 22.0362 98.5866 24.1762C98.5866 26.6005 96.9241 28.239 93.5159 29.1921C92.0363 29.5933 87.2816 29.7104 85.5359 29.376C82.1611 28.7239 80.2159 27.3028 79.8169 25.1627C79.2683 22.1866 81.3298 20.1301 85.6523 19.2942C87.4644 18.9598 91.9532 19.0768 93.6157 19.5282Z" fill="white"/>
<path d="M114.994 7.62412C113.215 7.89163 111.038 8.62728 109.757 9.37965C108.211 10.2992 106.383 12.2387 105.684 13.71C104.803 15.5825 104.554 16.7027 104.454 19.2441C104.338 22.1533 104.62 23.7082 105.684 25.8984C107.38 29.4596 110.871 31.6499 115.792 32.2518C121.062 32.9038 126.249 31.7 129.142 29.1587C131.802 26.818 132.966 23.6747 132.783 19.2441C132.633 15.4989 131.802 13.3589 129.674 11.1853C128.278 9.7642 126.948 8.94495 124.986 8.27617C122.343 7.39004 118.186 7.12253 114.994 7.62412ZM122.276 10.4497C125.751 11.2021 128.128 13.4759 128.959 16.8365C129.342 18.3914 129.325 21.6182 128.943 23.0728C128.062 26.3833 125.618 28.5735 121.993 29.3259C120.314 29.677 116.923 29.677 115.244 29.3259C111.536 28.5568 109.192 26.3833 108.278 22.9056C107.895 21.4176 107.912 18.1908 108.294 16.7362C109.309 12.9409 111.935 10.8008 116.291 10.2156C117.787 9.99827 120.78 10.132 122.276 10.4497Z" fill="white"/>
<path d="M49.7084 9.36288V10.7004L58.5529 10.7339L67.4141 10.784L60.3983 14.78L53.3826 18.7592L53.8979 19.7958C54.1806 20.3475 54.4133 20.8324 54.4299 20.8491C54.4632 20.8825 55.2113 20.6986 56.1257 20.4646C57.4058 20.1302 58.3202 20.0131 60.2819 19.9462C66.6493 19.7122 70.0574 21.3005 70.0574 24.4772C70.0574 26.751 68.4448 28.3394 65.2861 29.1586C63.5903 29.6101 60.4814 29.794 57.9378 29.5933C55.0617 29.376 53.6319 29.0918 51.2047 28.2391C50.1573 27.8712 49.1598 27.5201 49.0102 27.47C48.7442 27.3864 48.7109 27.5201 48.7109 28.7406V30.1116L49.5921 30.5129C51.9362 31.5495 55.2944 32.2183 58.9353 32.3855C65.8846 32.6697 71.3043 30.6634 73.0666 27.1356C73.5154 26.2662 73.5487 25.9987 73.5653 24.4939C73.5653 22.9056 73.5321 22.7718 73.0001 21.7687C71.4872 18.9598 68.4947 17.6055 63.4074 17.4049L60.7308 17.3046L66.6992 13.9607L72.6509 10.6168V9.31272V8.02533H61.1797H49.7084V9.36288Z" fill="white"/>
</svg>
