<svg width="18" height="18" viewBox="0 0 18 18" fill="none" xmlns="http://www.w3.org/2000/svg">
<g id="Frame 41">
<g id="Group">
<path id="Vector" d="M7.07482 14.2499C6.63523 14.2499 6.70993 14.0839 6.55832 13.6654L5.26562 9.41098L15.2162 3.50781" fill="#ECECEC"/>
<path id="Vector_2" d="M7.07422 14.2523C7.41344 14.2523 7.56332 14.0971 7.75267 13.913L9.56186 12.1538L7.30512 10.793" fill="#BBBBBB"/>
<path id="Vector_3" d="M7.30396 10.7924L12.7722 14.8324C13.3962 15.1767 13.8466 14.9984 14.002 14.2531L16.2279 3.76392C16.4558 2.85025 15.8796 2.43585 15.2827 2.70687L2.21238 7.74672C1.32021 8.10457 1.32541 8.60231 2.04976 8.8241L5.40389 9.87098L13.1691 4.97202C13.5356 4.74972 13.8721 4.86923 13.596 5.11431" fill="white"/>
</g>
</g>
</svg>
