<svg width="18" height="18" viewBox="0 0 18 18" fill="none" xmlns="http://www.w3.org/2000/svg">
<g id="Frame 40">
<path id="Youtube" fill-rule="evenodd" clip-rule="evenodd" d="M16.83 6.07788C16.83 6.07788 16.6637 4.89811 16.1543 4.37868C15.5077 3.69655 14.7831 3.69337 14.4511 3.65379C12.0721 3.48047 8.50372 3.48047 8.50372 3.48047H8.49628C8.49628 3.48047 4.92787 3.48047 2.54894 3.65379C2.21637 3.69337 1.49228 3.69655 0.845219 4.37868C0.33575 4.89824 0.17 6.07788 0.17 6.07788C0.17 6.07788 0 7.46365 0 8.84875V10.1478C0 11.5334 0.17 12.9187 0.17 12.9187C0.17 12.9187 0.33575 14.0984 0.845219 14.6179C1.49228 15.3 2.34175 15.2786 2.72 15.3498C4.08 15.4814 8.5 15.522 8.5 15.522C8.5 15.522 12.0721 15.5167 14.4511 15.3434C14.7831 15.3033 15.5077 15.3001 16.1543 14.618C16.6637 14.0984 16.83 12.9188 16.83 12.9188C16.83 12.9188 17 11.5336 17 10.1478V8.84875C17 7.46365 16.83 6.07788 16.83 6.07788ZM6.74475 11.7219L6.74422 6.91155L11.3374 9.32502L6.74475 11.7219Z" fill="white"/>
</g>
</svg>
