<svg width="18" height="18" viewBox="0 0 18 18" fill="none" xmlns="http://www.w3.org/2000/svg">
<g id="Frame" clip-path="url(#clip0_2270_7343)">
<g id="Group">
<path id="Vector" d="M9.97841 1.1641C9.83821 1.22258 9.74673 1.35905 9.74673 1.51048L9.74673 5.61835L0.374886 5.61835C0.167955 5.61835 -4.84249e-07 5.78631 -4.75203e-07 5.99324L-2.13022e-07 11.9912C-2.03977e-07 12.1982 0.167955 12.3661 0.374886 12.3661L9.74677 12.3661L9.74677 16.4897C9.74688 16.5638 9.76886 16.6362 9.80994 16.6978C9.85102 16.7594 9.90938 16.8075 9.9777 16.8361C10.1179 16.8939 10.2791 16.8624 10.3863 16.7552L17.8898 9.2764C17.9603 9.20594 18 9.11069 18 9.01099C18 8.91128 17.9603 8.81604 17.8906 8.74558L10.3871 1.24507C10.3347 1.19258 10.2678 1.15686 10.1951 1.14244C10.1223 1.12802 10.0469 1.13556 9.97841 1.1641Z" fill="#4054F9"/>
</g>
</g>
<defs>
<clipPath id="clip0_2270_7343">
<rect width="18" height="18" fill="white" transform="translate(0 18) rotate(-90)"/>
</clipPath>
</defs>
</svg>
