<svg width="60" height="60" viewBox="0 0 60 60" fill="none" xmlns="http://www.w3.org/2000/svg">
<path d="M56.9989 8.47479V52.5137C56.9973 53.9652 56.42 55.3569 55.3936 56.3833C54.3672 57.4097 52.9755 57.987 51.524 57.9886H7.47596C6.75677 57.9889 6.04458 57.8474 5.38009 57.5723C4.71559 57.2972 4.11182 56.8939 3.60328 56.3853C3.09473 55.8768 2.69139 55.273 2.41629 54.6085C2.14119 53.944 1.99973 53.2318 2 52.5127V8.4758C1.99987 7.7567 2.14142 7.04461 2.41658 6.38024C2.69174 5.71586 3.09511 5.11221 3.60364 4.60377C4.11217 4.09534 4.71589 3.69208 5.38032 3.41705C6.04475 3.14201 6.75686 3.00059 7.47596 3.00085H51.524C52.9759 3.0022 54.3679 3.57956 55.3946 4.60621C56.4212 5.63286 56.9986 7.02491 56.9999 8.47681L56.9989 8.47479Z" fill="#DEE9FF"/>
<path d="M56.9989 8.47495V13.8252H2V8.47495C1.99987 7.75584 2.14142 7.04376 2.41658 6.37938C2.69174 5.71501 3.09511 5.11135 3.60364 4.60292C4.11217 4.09448 4.71589 3.69123 5.38032 3.41619C6.04475 3.14116 6.75686 2.99973 7.47596 3H51.524C52.9759 3.00134 54.3679 3.5787 55.3946 4.60535C56.4212 5.632 56.9986 7.02406 56.9999 8.47596L56.9989 8.47495Z" fill="#4054F9"/>
<path d="M8.12161 9.85291C8.91689 9.85291 9.56159 9.20821 9.56159 8.41294C9.56159 7.61766 8.91689 6.97296 8.12161 6.97296C7.32634 6.97296 6.68164 7.61766 6.68164 8.41294C6.68164 9.20821 7.32634 9.85291 8.12161 9.85291Z" fill="white"/>
<path d="M13.2925 9.85291C14.0878 9.85291 14.7325 9.20821 14.7325 8.41294C14.7325 7.61766 14.0878 6.97296 13.2925 6.97296C12.4972 6.97296 11.8525 7.61766 11.8525 8.41294C11.8525 9.20821 12.4972 9.85291 13.2925 9.85291Z" fill="white"/>
<path d="M18.4634 9.85291C19.2587 9.85291 19.9034 9.20821 19.9034 8.41294C19.9034 7.61766 19.2587 6.97296 18.4634 6.97296C17.6681 6.97296 17.0234 7.61766 17.0234 8.41294C17.0234 9.20821 17.6681 9.85291 18.4634 9.85291Z" fill="white"/>
<path d="M50.9173 9.85291H34.5107C34.3269 9.85291 34.1448 9.81668 33.975 9.74629C33.8051 9.6759 33.6508 9.57273 33.5208 9.44267C33.3909 9.31262 33.2878 9.15823 33.2176 8.98833C33.1473 8.81843 33.1112 8.63634 33.1113 8.45248V8.37237C33.1113 7.59965 33.738 6.97296 34.5107 6.97296H50.9183C51.6911 6.97296 52.3177 7.59965 52.3177 8.37237V8.45248C52.3177 8.82363 52.1703 9.17958 51.9079 9.44202C51.6454 9.70446 51.2895 9.8519 50.9183 9.8519L50.9173 9.85291Z" fill="white"/>
<g clip-path="url(#clip0_2270_6946)">
<path d="M33.345 62.3988H6.8751C6.7492 62.3988 6.62846 62.3561 6.53943 62.2801C6.4504 62.2041 6.40039 62.1011 6.40039 61.9936C6.40039 61.8861 6.4504 61.783 6.53943 61.707C6.62846 61.631 6.7492 61.5883 6.8751 61.5883H33.345C33.4709 61.5883 33.5917 61.631 33.6807 61.707C33.7697 61.783 33.8197 61.8861 33.8197 61.9936C33.8197 62.1011 33.7697 62.2041 33.6807 62.2801C33.5917 62.3561 33.4709 62.3988 33.345 62.3988ZM10.3215 58.3027H6.8751C6.7492 58.3027 6.62846 58.26 6.53943 58.184C6.4504 58.108 6.40039 58.005 6.40039 57.8975C6.40039 57.79 6.4504 57.6869 6.53943 57.6109C6.62846 57.5349 6.7492 57.4922 6.8751 57.4922H10.3215C10.4474 57.4922 10.5682 57.5349 10.6572 57.6109C10.7462 57.6869 10.7962 57.79 10.7962 57.8975C10.7962 58.005 10.7462 58.108 10.6572 58.184C10.5682 58.26 10.4474 58.3027 10.3215 58.3027ZM49.9248 58.3027H13.2486C13.1227 58.3027 13.0019 58.26 12.9129 58.184C12.8239 58.108 12.7739 58.005 12.7739 57.8975C12.7739 57.79 12.8239 57.6869 12.9129 57.6109C13.0019 57.5349 13.1227 57.4922 13.2486 57.4922H49.9248C50.0507 57.4922 50.1715 57.5349 50.2605 57.6109C50.3495 57.6869 50.3995 57.79 50.3995 57.8975C50.3995 58.005 50.3495 58.108 50.2605 58.184C50.1715 58.26 50.0507 58.3027 49.9248 58.3027ZM30.4968 54.2066H6.8751C6.7492 54.2066 6.62846 54.1639 6.53943 54.0879C6.4504 54.0119 6.40039 53.9088 6.40039 53.8014C6.40039 53.6939 6.4504 53.5908 6.53943 53.5148C6.62846 53.4388 6.7492 53.3961 6.8751 53.3961H30.4968C30.6227 53.3961 30.7434 53.4388 30.8324 53.5148C30.9215 53.5908 30.9715 53.6939 30.9715 53.8014C30.9715 53.9088 30.9215 54.0119 30.8324 54.0879C30.7434 54.1639 30.6227 54.2066 30.4968 54.2066ZM49.9248 54.2066H33.345C33.2191 54.2066 33.0984 54.1639 33.0094 54.0879C32.9203 54.0119 32.8703 53.9088 32.8703 53.8014C32.8703 53.6939 32.9203 53.5908 33.0094 53.5148C33.0984 53.4388 33.2191 53.3961 33.345 53.3961H49.9248C50.0507 53.3961 50.1715 53.4388 50.2605 53.5148C50.3495 53.5908 50.3995 53.6939 50.3995 53.8014C50.3995 53.9088 50.3495 54.0119 50.2605 54.0879C50.1715 54.1639 50.0507 54.2066 49.9248 54.2066ZM11.4285 50.1105H6.8751C6.7492 50.1105 6.62846 50.0678 6.53943 49.9918C6.4504 49.9158 6.40039 49.8127 6.40039 49.7053C6.40039 49.5978 6.4504 49.4947 6.53943 49.4187C6.62846 49.3427 6.7492 49.3 6.8751 49.3H11.4295C11.5554 49.3 11.6761 49.3427 11.7652 49.4187C11.8542 49.4947 11.9042 49.5978 11.9042 49.7053C11.9042 49.8127 11.8542 49.9158 11.7652 49.9918C11.6761 50.0678 11.5544 50.1105 11.4285 50.1105ZM37.1427 50.1105H14.8313C14.7054 50.1105 14.5846 50.0678 14.4956 49.9918C14.4066 49.9158 14.3566 49.8127 14.3566 49.7053C14.3566 49.5978 14.4066 49.4947 14.4956 49.4187C14.5846 49.3427 14.7054 49.3 14.8313 49.3H37.1427C37.2686 49.3 37.3894 49.3427 37.4784 49.4187C37.5674 49.4947 37.6174 49.5978 37.6174 49.7053C37.6174 49.8127 37.5674 49.9158 37.4784 49.9918C37.3894 50.0678 37.2686 50.1105 37.1427 50.1105ZM49.9248 50.1105H40.4657C40.3398 50.1105 40.2191 50.0678 40.13 49.9918C40.041 49.9158 39.991 49.8127 39.991 49.7053C39.991 49.5978 40.041 49.4947 40.13 49.4187C40.2191 49.3427 40.3398 49.3 40.4657 49.3H49.9248C50.0507 49.3 50.1715 49.3427 50.2605 49.4187C50.3495 49.4947 50.3995 49.5978 50.3995 49.7053C50.3995 49.8127 50.3495 49.9158 50.2605 49.9918C50.1715 50.0678 50.0507 50.1105 49.9248 50.1105ZM16.3342 17.0102H13.1698C13.0439 17.0102 12.9231 16.9675 12.8341 16.8915C12.7451 16.8155 12.6951 16.7124 12.6951 16.6049C12.6951 16.4975 12.7451 16.3944 12.8341 16.3184C12.9231 16.2424 13.0439 16.1997 13.1698 16.1997H16.3342C16.4601 16.1997 16.5809 16.2424 16.6699 16.3184C16.7589 16.3944 16.8089 16.4975 16.8089 16.6049C16.8089 16.7124 16.7589 16.8155 16.6699 16.8915C16.5809 16.9675 16.4601 17.0102 16.3342 17.0102ZM11.1912 17.0102H6.8751C6.7492 17.0102 6.62846 16.9675 6.53943 16.8915C6.4504 16.8155 6.40039 16.7124 6.40039 16.6049C6.40039 16.4975 6.4504 16.3944 6.53943 16.3184C6.62846 16.2424 6.7492 16.1997 6.8751 16.1997H11.1921C11.318 16.1997 11.4388 16.2424 11.5278 16.3184C11.6168 16.3944 11.6668 16.4975 11.6668 16.6049C11.6668 16.7124 11.6168 16.8155 11.5278 16.8915C11.4388 16.9675 11.3171 17.0102 11.1912 17.0102ZM10.5589 19.4002H6.8751C6.7492 19.4002 6.62846 19.3576 6.53943 19.2816C6.4504 19.2056 6.40039 19.1025 6.40039 18.995C6.40039 18.8875 6.4504 18.7845 6.53943 18.7085C6.62846 18.6325 6.7492 18.5898 6.8751 18.5898H10.5589C10.6848 18.5898 10.8055 18.6325 10.8945 18.7085C10.9836 18.7845 11.0336 18.8875 11.0336 18.995C11.0336 19.1025 10.9836 19.2056 10.8945 19.2816C10.8055 19.3576 10.6848 19.4002 10.5589 19.4002Z" fill="#262626"/>
<path d="M23.7086 39.5428C23.7046 40.0126 23.5156 40.4619 23.1826 40.7932C23.0173 40.9571 22.8212 41.0866 22.6057 41.1744C22.3901 41.2622 22.1593 41.3064 21.9266 41.3047L19.5049 41.2909L19.525 37.7463L21.9467 37.7609C22.4164 37.7643 22.8656 37.9538 23.1959 38.2878C23.5261 38.6218 23.7105 39.0731 23.7086 39.5428Z" fill="#FFD86B"/>
<path d="M44.6303 29.6071C44.645 27.1296 43.0024 25.1114 40.9615 25.0993C38.9206 25.0871 37.2542 27.0857 37.2395 29.5633C37.2248 32.0408 38.8674 34.059 40.9083 34.0711C42.9492 34.0832 44.6156 32.0846 44.6303 29.6071Z" fill="#4054F9"/>
<path d="M39.0905 18.9663L39.0925 18.9656C39.2849 18.9011 39.4898 18.8836 39.6903 18.9144C39.8908 18.9453 40.081 19.0236 40.2451 19.1428C40.4093 19.262 40.5425 19.4187 40.6338 19.5999C40.7251 19.7811 40.7717 19.9814 40.7699 20.1842L40.7699 20.186L40.665 38.9706L40.665 38.9709C40.664 39.1742 40.6146 39.3744 40.5209 39.5548C40.4272 39.7353 40.2919 39.8909 40.1262 40.0087C39.9605 40.1265 39.7691 40.2032 39.5679 40.2324L39.6397 40.7272L39.5679 40.2324C39.3665 40.2616 39.1605 40.2424 38.9682 40.1766L24.6128 35.2538L24.6781 23.7252L39.0905 18.9663ZM18.1675 45.0608H18.1671C17.987 45.0602 17.8087 45.024 17.6426 44.9544L17.4493 45.4155L17.6426 44.9544C17.4765 44.8848 17.3257 44.783 17.199 44.655C17.0722 44.527 16.972 44.3752 16.904 44.2084L16.4423 44.3966L16.904 44.2084C16.836 44.0416 16.8016 43.863 16.8028 43.6828L16.8028 43.6824L16.854 34.6053L21.2498 34.6299L19.5244 43.937L19.5243 43.9371C19.4657 44.2537 19.2977 44.5396 19.0498 44.745L19.3687 45.1301L19.0498 44.745C18.8018 44.9504 18.4895 45.0622 18.1675 45.0608Z" fill="white" stroke="#262626"/>
<path d="M24.9252 36L17.5875 35.9573C17.1136 35.955 16.6448 35.8621 16.2079 35.684C15.7711 35.5059 15.3747 35.246 15.0416 34.9193C14.7084 34.5925 14.4449 34.2053 14.2662 33.7798C14.0875 33.3543 13.9971 32.8988 14.0001 32.4394L14.0344 26.4779C14.0365 26.0184 14.1321 25.5638 14.3157 25.1401C14.4993 24.7165 14.7673 24.3321 15.1044 24.009C15.4415 23.6859 15.841 23.4305 16.2801 23.2574C16.7192 23.0843 17.1892 22.9968 17.6632 23.0001L25 23.0428L24.9252 36Z" fill="#4054F9"/>
<path d="M21.6188 26.3366H21.6163L16.6794 26.3084C16.5724 26.3082 16.4699 26.2655 16.3944 26.1897C16.3189 26.1139 16.2766 26.0112 16.2768 25.9042C16.2771 25.7973 16.3198 25.6948 16.3955 25.6193C16.4713 25.5438 16.574 25.5015 16.681 25.5017H16.6834L21.6212 25.5299C21.6741 25.5301 21.7266 25.5407 21.7754 25.5611C21.8243 25.5815 21.8687 25.6114 21.906 25.6489C21.9434 25.6865 21.9729 25.7311 21.9931 25.7801C22.0132 25.8291 22.0235 25.8815 22.0233 25.9345C22.0232 25.9875 22.0126 26.0399 21.9921 26.0888C21.9717 26.1376 21.9419 26.182 21.9043 26.2194C21.8668 26.2567 21.8222 26.2863 21.7732 26.3064C21.7242 26.3265 21.6717 26.3368 21.6188 26.3366ZM21.605 29.8603H21.6026L16.6649 29.832C16.5579 29.8317 16.4554 29.7889 16.38 29.713C16.3046 29.6372 16.2624 29.5345 16.2627 29.4275C16.263 29.3205 16.3058 29.218 16.3817 29.1426C16.4576 29.0672 16.5603 29.025 16.6673 29.0253H16.6697L21.6067 29.0536C21.6596 29.0537 21.7121 29.0642 21.7609 29.0846C21.8098 29.105 21.8542 29.1348 21.8916 29.1723C21.929 29.2098 21.9586 29.2543 21.9788 29.3033C21.999 29.3523 22.0093 29.4048 22.0092 29.4577C22.0091 29.5107 21.9985 29.5631 21.9782 29.612C21.9578 29.6609 21.928 29.7053 21.8905 29.7427C21.853 29.7801 21.8084 29.8097 21.7595 29.8299C21.7105 29.85 21.658 29.8604 21.605 29.8603ZM21.5784 33.3847H21.576L16.639 33.3565C16.586 33.3563 16.5335 33.3456 16.4846 33.3251C16.4357 33.3046 16.3913 33.2746 16.354 33.2369C16.3167 33.1992 16.2872 33.1545 16.2672 33.1054C16.2471 33.0563 16.237 33.0037 16.2373 32.9507C16.2389 32.7281 16.4067 32.5256 16.6431 32.5498L21.5808 32.578C21.6878 32.5783 21.7903 32.6211 21.8657 32.697C21.9411 32.7729 21.9833 32.8756 21.983 32.9826C21.9827 33.0895 21.9399 33.192 21.864 33.2674C21.7881 33.3428 21.6854 33.385 21.5784 33.3847Z" fill="white"/>
</g>
<defs>
<clipPath id="clip0_2270_6946">
<rect width="46.1991" height="39.5992" fill="white" transform="translate(6.40039 16.1997)"/>
</clipPath>
</defs>
</svg>
