<svg width="140" height="140" viewBox="0 0 140 140" fill="none" xmlns="http://www.w3.org/2000/svg">
<g id="Frame">
<g id="Group">
<path id="Vector" d="M108.739 44.1V122.747C108.739 126.638 105.589 129.788 101.698 129.788H14.424C10.5328 129.788 7.38281 126.638 7.38281 122.747V44.1C7.38281 40.2088 10.5328 37.0588 14.424 37.0588H101.698C105.589 37.0588 108.739 40.2088 108.739 44.1Z" fill="#B9B9B9"/>
<path id="Vector_2" d="M113.138 27.0324V112.803C113.138 118.106 108.833 122.412 103.509 122.412H12.6118C7.28731 122.412 2.98242 118.106 2.98242 112.803V27.0324C2.98242 21.7284 7.28864 17.403 12.6118 17.403H103.509C108.832 17.403 113.138 21.7284 113.138 27.0324Z" fill="white" stroke="#262626"/>
<path id="Vector_3" d="M113.638 26.5588V42.5971H2.48242V26.5588C2.48242 21.2265 6.80595 16.903 12.1383 16.903H103.982C109.315 16.903 113.638 21.2265 113.638 26.5588Z" fill="#4054F9"/>
<path id="Vector_4" d="M24.3982 37.0527C28.4302 37.0527 31.6988 33.7841 31.6988 29.7521C31.6988 25.7201 28.4302 22.4515 24.3982 22.4515C20.3662 22.4515 17.0977 25.7201 17.0977 29.7521C17.0977 33.7841 20.3662 37.0527 24.3982 37.0527Z" fill="#FEFEFE"/>
<path id="Vector_5" d="M56.9236 37.0527C60.9556 37.0527 64.2242 33.7841 64.2242 29.7521C64.2242 25.7201 60.9556 22.4515 56.9236 22.4515C52.8916 22.4515 49.623 25.7201 49.623 29.7521C49.623 33.7841 52.8916 37.0527 56.9236 37.0527Z" fill="#FEFEFE"/>
<path id="Vector_6" d="M89.451 37.0527C93.483 37.0527 96.7516 33.7841 96.7516 29.7521C96.7516 25.7201 93.483 22.4515 89.451 22.4515C85.419 22.4515 82.1504 25.7201 82.1504 29.7521C82.1504 33.7841 85.419 37.0527 89.451 37.0527Z" fill="#FEFEFE"/>
<path id="Vector_7" d="M93.0498 13.7941V27.1559C93.0498 29.1324 91.4439 30.7383 89.4468 30.7383C87.4704 30.7383 85.8645 29.1324 85.8645 27.1559V13.7941C85.8645 11.8177 87.4704 10.2118 89.4468 10.2118C90.4351 10.2118 91.3615 10.603 91.9998 11.2618C92.638 11.9206 93.0498 12.8059 93.0498 13.7941ZM59.4704 11.2618C60.1292 11.9206 60.5204 12.8059 60.5204 13.7941V27.1559C60.5204 29.1324 58.9145 30.7383 56.9174 30.7383C54.941 30.7383 53.3351 29.1324 53.3351 27.1559V13.7941C53.3351 11.8177 54.941 10.2118 56.9174 10.2118C57.9263 10.2118 58.8321 10.603 59.4704 11.2618ZM27.991 13.753V27.2177C27.991 29.1736 26.4057 30.7589 24.4498 30.7589H24.3468C22.391 30.7589 20.8057 29.1736 20.8057 27.2177V13.753C20.8057 11.7971 22.391 10.2118 24.3468 10.2118H24.4498C26.4057 10.2118 27.991 11.7971 27.991 13.753Z" fill="#515151"/>
<path id="Vector_8" d="M62.3714 61.8388H53.7491C53.2744 61.8383 52.8193 61.6493 52.4839 61.3135C52.1484 60.9776 51.96 60.5223 51.96 60.0476V53.0229C51.96 52.0347 52.7629 51.2338 53.7511 51.2338H62.3714C63.3597 51.2338 64.1605 52.0368 64.1605 53.025V60.0497C64.1605 61.0379 63.3576 61.8409 62.3694 61.8409L62.3714 61.8388Z" fill="#B9B9B9"/>
<path id="Vector_9" d="M82.9895 61.8388H74.3692C73.8945 61.8383 73.4394 61.6493 73.104 61.3135C72.7685 60.9776 72.5801 60.5223 72.5801 60.0476V53.0229C72.5801 52.0347 73.383 51.2338 74.3713 51.2338H82.9915C83.9798 51.2338 84.7807 52.0368 84.7807 53.025V60.0497C84.7807 61.0379 83.9777 61.8409 82.9895 61.8409V61.8388Z" fill="#4054F9"/>
<path id="Vector_10" d="M103.61 61.8388H94.9873C94.5126 61.8383 94.0575 61.6493 93.722 61.3135C93.3866 60.9776 93.1982 60.5223 93.1982 60.0476V53.0229C93.1982 52.0347 94.0011 51.2338 94.9893 51.2338H103.61C104.598 51.2338 105.399 52.0368 105.399 53.025V60.0497C105.399 61.0379 104.596 61.8409 103.608 61.8409L103.61 61.8388ZM21.1332 79.4521H12.5108C12.0365 79.4515 11.5817 79.2628 11.2463 78.9274C10.9109 78.592 10.7222 78.1373 10.7217 77.6629V70.6382C10.7217 69.65 11.5246 68.8491 12.5129 68.8491H21.1332C22.1214 68.8491 22.9223 69.6521 22.9223 70.6403V77.665C22.9223 78.6532 22.1193 79.4562 21.1311 79.4562L21.1332 79.4521ZM41.7502 79.4521H33.1299C32.6556 79.4515 32.2008 79.2628 31.8654 78.9274C31.53 78.592 31.3413 78.1373 31.3408 77.6629V70.6382C31.3408 69.65 32.1437 68.8491 33.132 68.8491H41.7523C42.7405 68.8491 43.5414 69.6521 43.5414 70.6403V77.665C43.5414 78.6532 42.7384 79.4562 41.7502 79.4562V79.4521ZM62.3714 79.4521H53.749C53.2747 79.4515 52.8199 79.2628 52.4845 78.9274C52.1491 78.592 51.9605 78.1373 51.9599 77.6629V70.6382C51.9599 69.65 52.7629 68.8491 53.7511 68.8491H62.3714C63.3596 68.8491 64.1605 69.6521 64.1605 70.6403V77.665C64.1605 78.6532 63.3576 79.4562 62.3693 79.4562L62.3714 79.4521Z" fill="#B9B9B9"/>
<path id="Vector_11" d="M82.9895 79.4521H74.3692C73.8949 79.4515 73.4401 79.2628 73.1047 78.9274C72.7693 78.592 72.5806 78.1373 72.5801 77.6629V70.6382C72.5801 69.65 73.383 68.8491 74.3713 68.8491H82.9915C83.9798 68.8491 84.7807 69.6521 84.7807 70.6403V77.665C84.7807 78.6532 83.9777 79.4562 82.9895 79.4562V79.4521Z" fill="#4054F9"/>
<path id="Vector_12" d="M103.61 79.4521H94.9873C94.5129 79.4515 94.0582 79.2628 93.7228 78.9274C93.3874 78.592 93.1987 78.1373 93.1982 77.6629V70.6382C93.1982 69.65 94.0011 68.8491 94.9893 68.8491H103.61C104.598 68.8491 105.399 69.6521 105.399 70.6403V77.665C105.399 78.6532 104.596 79.4562 103.608 79.4562L103.61 79.4521ZM21.1332 97.0674H12.5108C12.0361 97.0668 11.581 96.8779 11.2456 96.542C10.9101 96.2062 10.7217 95.7509 10.7217 95.2762V88.2515C10.7217 87.2632 11.5246 86.4603 12.5129 86.4603H21.1332C22.1214 86.4603 22.9223 87.2632 22.9223 88.2515V95.2762C22.9223 96.2644 22.1193 97.0674 21.1311 97.0674H21.1332ZM41.7502 97.0674H33.1299C32.6552 97.0668 32.2002 96.8779 31.8647 96.542C31.5292 96.2062 31.3408 95.7509 31.3408 95.2762V88.2515C31.3408 87.2632 32.1437 86.4603 33.132 86.4603H41.7523C42.7405 86.4603 43.5414 87.2632 43.5414 88.2515V95.2762C43.5414 96.2644 42.7384 97.0674 41.7502 97.0674ZM62.3714 97.0674H53.749C53.2743 97.0668 52.8193 96.8779 52.4838 96.542C52.1483 96.2062 51.9599 95.7509 51.9599 95.2762V88.2515C51.9599 87.2632 52.7629 86.4603 53.7511 86.4603H62.3714C63.3596 86.4603 64.1605 87.2632 64.1605 88.2515V95.2762C64.1605 96.2644 63.3576 97.0674 62.3693 97.0674H62.3714Z" fill="#B9B9B9"/>
<path id="Vector_13" d="M82.9895 97.0673H74.3692C73.8945 97.0668 73.4394 96.8778 73.104 96.542C72.7685 96.2061 72.5801 95.7508 72.5801 95.2762V88.2514C72.5801 87.2632 73.383 86.4603 74.3713 86.4603H82.9915C83.9798 86.4603 84.7807 87.2632 84.7807 88.2514V95.2762C84.7807 96.2644 83.9777 97.0673 82.9895 97.0673Z" fill="#4054F9"/>
<path id="Vector_14" d="M21.1332 114.681H12.5108C12.0361 114.68 11.581 114.491 11.2456 114.155C10.9101 113.819 10.7217 113.364 10.7217 112.889V105.865C10.7217 104.876 11.5246 104.074 12.5129 104.074H21.1332C22.1214 104.074 22.9223 104.876 22.9223 105.865V112.891C22.9223 113.88 22.1193 114.681 21.1311 114.681H21.1332ZM41.7502 114.681H33.1299C32.6552 114.68 32.2002 114.491 31.8647 114.155C31.5292 113.819 31.3408 113.364 31.3408 112.889V105.865C31.3408 104.876 32.1437 104.074 33.132 104.074H41.7523C42.7405 104.074 43.5414 104.876 43.5414 105.865V112.891C43.5414 113.88 42.7384 114.681 41.7502 114.681ZM62.3714 114.681H53.749C53.2743 114.68 52.8193 114.491 52.4838 114.155C52.1483 113.819 51.9599 113.364 51.9599 112.889V105.865C51.9599 104.876 52.7629 104.074 53.7511 104.074H62.3714C63.3596 104.074 64.1605 104.876 64.1605 105.865V112.891C64.1605 113.88 63.3576 114.681 62.3693 114.681H62.3714Z" fill="#B9B9B9"/>
<path id="Vector_15" d="M82.9895 114.681H74.3692C73.8945 114.68 73.4394 114.491 73.104 114.155C72.7685 113.819 72.5801 113.364 72.5801 112.889V105.865C72.5801 104.876 73.383 104.074 74.3713 104.074H82.9915C83.9798 104.074 84.7807 104.876 84.7807 105.865V112.891C84.7807 113.88 83.9777 114.681 82.9895 114.681Z" fill="#4054F9"/>
<path id="Vector_16" d="M105.7 129.786C121.064 129.786 133.519 117.331 133.519 101.967C133.519 86.6035 121.064 74.1486 105.7 74.1486C90.3358 74.1486 77.8809 86.6035 77.8809 101.967C77.8809 117.331 90.3358 129.786 105.7 129.786Z" fill="#515151"/>
<path id="Vector_17" d="M126.444 101.974C126.444 102.324 126.444 102.653 126.424 103.003C126.181 107.782 124.289 112.329 121.071 115.871C120.638 116.385 120.144 116.879 119.609 117.332C116.072 120.572 111.512 122.473 106.721 122.706C106.371 122.726 106.041 122.726 105.691 122.726C105.341 122.726 105.012 122.726 104.662 122.706C99.7208 122.459 95.212 120.482 91.7738 117.353C89.7488 115.528 88.1043 113.32 86.9348 110.858C85.7654 108.395 85.0939 105.726 84.9591 103.003C84.9385 102.653 84.9385 102.324 84.9385 101.974C84.9385 101.624 84.9385 101.294 84.9591 100.944C85.2061 96.003 87.1826 91.5147 90.3326 88.0559C90.7649 87.5618 91.2591 87.0677 91.7738 86.5941C95.212 83.4647 99.7208 81.4883 104.662 81.2412C105.012 81.2206 105.341 81.2206 105.691 81.2206C110.843 81.2114 115.81 83.1365 119.609 86.6147C120.124 87.0677 120.618 87.5618 121.071 88.0559C124.2 91.5147 126.177 96.003 126.424 100.944C126.444 101.294 126.444 101.624 126.444 101.974Z" fill="white"/>
<path id="Vector_18" d="M106.721 81.2412V83.4235C106.721 83.9794 106.268 84.4529 105.691 84.4529C105.136 84.4529 104.662 83.9794 104.662 83.4235V81.2412C105.012 81.2206 105.341 81.2206 105.691 81.2206C106.041 81.2206 106.371 81.2206 106.721 81.2412ZM106.721 120.524V122.706C106.371 122.726 106.041 122.726 105.691 122.726C105.341 122.726 105.012 122.726 104.662 122.706V120.524C104.662 119.947 105.136 119.494 105.691 119.494C106.268 119.494 106.721 119.947 106.721 120.524ZM88.1914 101.974C88.1914 102.529 87.7179 103.003 87.162 103.003H84.9591C84.9385 102.653 84.9385 102.324 84.9385 101.974C84.9385 101.624 84.9385 101.294 84.9591 100.944H87.162C87.7179 100.944 88.1914 101.397 88.1914 101.974ZM126.444 101.974C126.444 102.324 126.444 102.653 126.424 103.003H124.241C123.686 103.003 123.212 102.529 123.212 101.974C123.212 101.397 123.686 100.944 124.241 100.944H126.424C126.444 101.294 126.444 101.624 126.444 101.974ZM93.3179 89.5794C93.112 89.7853 92.8444 89.8882 92.5767 89.8882C92.3297 89.8882 92.062 89.7853 91.8561 89.5794L90.3326 88.0559C90.7649 87.5618 91.2591 87.0676 91.7738 86.5941L93.3179 88.1176C93.7091 88.5294 93.7091 89.1882 93.3179 89.5794ZM121.071 115.871C120.638 116.385 120.144 116.879 119.609 117.332L118.086 115.809C117.897 115.612 117.792 115.35 117.792 115.078C117.792 114.806 117.897 114.544 118.086 114.347C118.497 113.956 119.136 113.956 119.547 114.347L121.071 115.871ZM93.3179 115.809L91.7738 117.353C91.2591 116.879 90.7649 116.385 90.312 115.891L91.8561 114.347C92.2679 113.956 92.9061 113.956 93.3179 114.347C93.7091 114.759 93.7091 115.418 93.3179 115.809ZM121.071 88.0559L119.547 89.5794C119.341 89.7853 119.074 89.8882 118.827 89.8882C118.559 89.8882 118.291 89.7853 118.086 89.5794C117.897 89.3828 117.792 89.1209 117.792 88.8485C117.792 88.5761 117.897 88.3143 118.086 88.1176L119.609 86.6147C120.124 87.0676 120.618 87.5618 121.071 88.0559ZM113.702 110.999C113.567 111 113.434 110.973 113.309 110.922C113.184 110.87 113.071 110.794 112.976 110.699L104.973 102.696C104.78 102.504 104.671 102.242 104.67 101.969V87.2941C104.67 87.0211 104.779 86.7593 104.972 86.5662C105.165 86.3732 105.427 86.2647 105.7 86.2647C105.973 86.2647 106.235 86.3732 106.428 86.5662C106.621 86.7593 106.729 87.0211 106.729 87.2941V101.541L114.429 109.241C114.573 109.385 114.672 109.568 114.712 109.768C114.751 109.968 114.731 110.175 114.653 110.363C114.576 110.551 114.444 110.712 114.274 110.826C114.105 110.939 113.906 110.999 113.702 110.999Z" fill="#262626"/>
<path id="Vector_19" d="M105.699 105.278C107.528 105.278 109.01 103.796 109.01 101.967C109.01 100.139 107.528 98.6568 105.699 98.6568C103.871 98.6568 102.389 100.139 102.389 101.967C102.389 103.796 103.871 105.278 105.699 105.278Z" fill="#515151"/>
</g>
</g>
</svg>
