<svg width="140" height="140" viewBox="0 0 140 140" fill="none" xmlns="http://www.w3.org/2000/svg">
<g id="Frame">
<g id="Group">
<path id="Vector" d="M97.6104 122.63H25.2708C22.7571 122.63 20.3464 121.631 18.569 119.854C16.7915 118.076 15.793 115.666 15.793 113.152V18.4778C15.793 15.9641 16.7915 13.5534 18.569 11.776C20.3464 9.99855 22.7571 9 25.2708 9H97.6104C100.124 9 102.535 9.99855 104.312 11.776C106.09 13.5534 107.088 15.9641 107.088 18.4778V113.152C107.088 115.666 106.09 118.076 104.312 119.854C102.535 121.631 100.124 122.63 97.6104 122.63Z" fill="#515151"/>
<path id="Vector_2" d="M82.8212 129.385H10.4778C8.09675 129.385 5.8132 128.439 4.12954 126.755C2.44587 125.071 1.5 122.788 1.5 120.407V25.7326C1.5 23.3515 2.44587 21.068 4.12954 19.3843C5.81321 17.7006 8.09675 16.7548 10.4778 16.7548H82.8212C85.2023 16.7548 87.4858 17.7006 89.1695 19.3843C90.8531 21.068 91.799 23.3515 91.799 25.7326V120.407C91.799 122.788 90.8531 125.071 89.1695 126.755C87.4858 128.439 85.2023 129.385 82.8212 129.385Z" fill="white" stroke="#262626"/>
<path id="Vector_3" d="M46.6491 123.274H8.55278C8.30231 123.274 8.06211 123.174 7.885 122.997C7.7079 122.82 7.6084 122.58 7.6084 122.33C7.6084 122.079 7.7079 121.839 7.885 121.662C8.06211 121.485 8.30231 121.385 8.55278 121.385H46.6246C46.7513 121.38 46.8777 121.401 46.9962 121.447C47.1146 121.492 47.2226 121.561 47.3137 121.649C47.4048 121.737 47.477 121.843 47.5261 121.96C47.5752 122.077 47.6 122.203 47.5992 122.33C47.5992 122.851 47.1704 123.274 46.6491 123.274ZM84.7436 60.3233H25.4157C25.1652 60.3233 24.925 60.2238 24.7479 60.0467C24.5708 59.8696 24.4713 59.6294 24.4713 59.379C24.4713 59.1285 24.5708 58.8883 24.7479 58.7112C24.925 58.5341 25.1652 58.4346 25.4157 58.4346H84.7417C84.9921 58.4346 85.2324 58.5341 85.4095 58.7112C85.5866 58.8883 85.6861 59.1285 85.6861 59.379C85.6861 59.6294 85.5866 59.8696 85.4095 60.0467C85.2324 60.2238 84.9921 60.3233 84.7417 60.3233H84.7436ZM18.0967 60.3233H8.55278C8.30231 60.3233 8.06211 60.2238 7.885 60.0467C7.7079 59.8696 7.6084 59.6294 7.6084 59.379C7.6084 59.1285 7.7079 58.8883 7.885 58.7112C8.06211 58.5341 8.30231 58.4346 8.55278 58.4346H18.0967C18.3472 58.4346 18.5874 58.5341 18.7645 58.7112C18.9416 58.8883 19.0411 59.1285 19.0411 59.379C19.0411 59.6294 18.9416 59.8696 18.7645 60.0467C18.5874 60.2238 18.3472 60.3233 18.0967 60.3233ZM84.7436 72.9138H67.2045C66.9541 72.9138 66.7138 72.8143 66.5367 72.6372C66.3596 72.4601 66.2601 72.2199 66.2601 71.9694C66.2601 71.719 66.3596 71.4788 66.5367 71.3017C66.7138 71.1246 66.9541 71.0251 67.2045 71.0251H84.7436C84.994 71.0251 85.2342 71.1246 85.4113 71.3017C85.5885 71.4788 85.688 71.719 85.688 71.9694C85.688 72.2199 85.5885 72.4601 85.4113 72.6372C85.2342 72.8143 84.994 72.9138 84.7436 72.9138ZM58.9412 72.9138H8.55278C8.30231 72.9138 8.06211 72.8143 7.885 72.6372C7.7079 72.4601 7.6084 72.2199 7.6084 71.9694C7.6084 71.719 7.7079 71.4788 7.885 71.3017C8.06211 71.1246 8.30231 71.0251 8.55278 71.0251H58.9412C59.1917 71.0251 59.4319 71.1246 59.609 71.3017C59.7861 71.4788 59.8856 71.719 59.8856 71.9694C59.8856 72.2199 59.7861 72.4601 59.609 72.6372C59.4319 72.8143 59.1917 72.9138 58.9412 72.9138ZM84.7436 85.5043H40.2897C40.0392 85.5043 39.799 85.4048 39.6219 85.2277C39.4448 85.0506 39.3453 84.8104 39.3453 84.5599C39.3453 84.3095 39.4448 84.0693 39.6219 83.8922C39.799 83.715 40.0392 83.6156 40.2897 83.6156H84.7436C84.994 83.6156 85.2342 83.715 85.4113 83.8922C85.5885 84.0693 85.688 84.3095 85.688 84.5599C85.688 84.8104 85.5885 85.0506 85.4113 85.2277C85.2342 85.4048 84.994 85.5043 84.7436 85.5043ZM32.0263 85.5043H8.55278C8.30231 85.5043 8.06211 85.4048 7.885 85.2277C7.7079 85.0506 7.6084 84.8104 7.6084 84.5599C7.6084 84.3095 7.7079 84.0693 7.885 83.8922C8.06211 83.715 8.30231 83.6156 8.55278 83.6156H32.0263C32.2768 83.6156 32.517 83.715 32.6941 83.8922C32.8712 84.0693 32.9707 84.3095 32.9707 84.5599C32.9707 84.8104 32.8712 85.0506 32.6941 85.2277C32.517 85.4048 32.2768 85.5043 32.0263 85.5043ZM84.7436 98.0948H58.9412C58.6907 98.0948 58.4505 97.9953 58.2734 97.8182C58.0963 97.6411 57.9968 97.4009 57.9968 97.1504C57.9968 96.9 58.0963 96.6598 58.2734 96.4826C58.4505 96.3055 58.6907 96.206 58.9412 96.206H84.7417C84.9921 96.206 85.2324 96.3055 85.4095 96.4826C85.5866 96.6598 85.6861 96.9 85.6861 97.1504C85.6861 97.4009 85.5866 97.6411 85.4095 97.8182C85.2324 97.9953 84.9921 98.0948 84.7417 98.0948H84.7436ZM52.3305 98.0948H8.55278C8.30231 98.0948 8.06211 97.9953 7.885 97.8182C7.7079 97.6411 7.6084 97.4009 7.6084 97.1504C7.6084 96.9 7.7079 96.6598 7.885 96.4826C8.06211 96.3055 8.30231 96.206 8.55278 96.206H52.3305C52.581 96.206 52.8212 96.3055 52.9983 96.4826C53.1754 96.6598 53.2749 96.9 53.2749 97.1504C53.2749 97.4009 53.1754 97.6411 52.9983 97.8182C52.8212 97.9953 52.581 98.0948 52.3305 98.0948ZM84.7436 110.683H29.1932C28.9427 110.683 28.7025 110.584 28.5254 110.407C28.3483 110.23 28.2488 109.989 28.2488 109.739C28.2488 109.489 28.3483 109.248 28.5254 109.071C28.7025 108.894 28.9427 108.795 29.1932 108.795H84.7417C84.9921 108.795 85.2324 108.894 85.4095 109.071C85.5866 109.248 85.6861 109.489 85.6861 109.739C85.6861 109.989 85.5866 110.23 85.4095 110.407C85.2324 110.584 84.9921 110.683 84.7417 110.683H84.7436ZM18.0967 110.683H8.55278C8.30231 110.683 8.06211 110.584 7.885 110.407C7.7079 110.23 7.6084 109.989 7.6084 109.739C7.6084 109.489 7.7079 109.248 7.885 109.071C8.06211 108.894 8.30231 108.795 8.55278 108.795H18.0967C18.3472 108.795 18.5874 108.894 18.7645 109.071C18.9416 109.248 19.0411 109.489 19.0411 109.739C19.0411 109.989 18.9416 110.23 18.7645 110.407C18.5874 110.584 18.3472 110.683 18.0967 110.683Z" fill="#262626"/>
<path id="Vector_4" d="M84.7513 27.593V43.0053C84.7513 45.1018 83.0514 46.7828 80.9549 46.7828H12.3361C11.3343 46.7828 10.3734 46.3848 9.66501 45.6764C8.95658 44.9679 8.55859 44.0071 8.55859 43.0053V27.593C8.55859 26.5911 8.95658 25.6303 9.66501 24.9218C10.3734 24.2134 11.3343 23.8154 12.3361 23.8154H80.9549C83.0514 23.8154 84.7513 25.4964 84.7513 27.593Z" fill="#4054F9"/>
<path id="Vector_5" d="M96.1166 129.886C108.741 129.886 118.974 119.653 118.974 107.029C118.974 94.4046 108.741 84.1708 96.1166 84.1708C83.4926 84.1708 73.2588 94.4046 73.2588 107.029C73.2588 119.653 83.4926 129.886 96.1166 129.886Z" fill="#4054F9"/>
<path id="Vector_6" d="M91.6188 115.283C91.4945 115.283 91.3714 115.258 91.2567 115.211C91.1419 115.163 91.0377 115.093 90.9502 115.005L85.3254 109.382C85.2352 109.295 85.1633 109.191 85.1138 109.076C85.0643 108.96 85.0382 108.836 85.0371 108.711C85.0361 108.586 85.06 108.461 85.1074 108.345C85.1549 108.229 85.225 108.124 85.3137 108.035C85.4024 107.946 85.5078 107.876 85.6239 107.829C85.7399 107.781 85.8643 107.757 85.9897 107.758C86.1151 107.76 86.239 107.786 86.3542 107.835C86.4694 107.885 86.5737 107.956 86.6608 108.047L91.6188 113.003L105.569 99.0505C105.656 98.9603 105.761 98.8884 105.876 98.8389C105.991 98.7894 106.115 98.7633 106.24 98.7622C106.366 98.7612 106.49 98.785 106.606 98.8325C106.722 98.88 106.828 98.9501 106.916 99.0388C107.005 99.1275 107.075 99.2329 107.123 99.349C107.17 99.465 107.194 99.5894 107.193 99.7148C107.192 99.8402 107.166 99.9641 107.116 100.079C107.067 100.195 106.995 100.299 106.905 100.386L92.2855 115.005C92.1982 115.093 92.0943 115.163 91.9799 115.21C91.8654 115.258 91.7427 115.282 91.6188 115.283Z" fill="white"/>
</g>
</g>
</svg>
