<svg width="60" height="60" viewBox="0 0 60 60" fill="none" xmlns="http://www.w3.org/2000/svg">
<g id="Frame">
<g id="Group">
<path id="Vector" d="M51 9.97725V50.0134C50.9985 51.333 50.4737 52.5981 49.5405 53.5313C48.6074 54.4644 47.3423 54.9892 46.0227 54.9907H5.97824C5.32442 54.9909 4.67696 54.8623 4.07286 54.6122C3.46877 54.3621 2.91987 53.9955 2.45755 53.5331C1.99523 53.0708 1.62855 52.5219 1.37845 51.9178C1.12836 51.3137 0.999758 50.6663 1 50.0125V9.97817C0.999879 9.32443 1.12857 8.67707 1.37872 8.07308C1.62887 7.46909 1.99557 6.92031 2.45788 6.45808C2.92019 5.99586 3.46904 5.62926 4.07308 5.37922C4.67712 5.12918 5.3245 5.00061 5.97824 5.00085H46.0227C47.3426 5.00208 48.6081 5.52696 49.5415 6.4603C50.4748 7.39363 50.9997 8.65916 51.0009 9.9791L51 9.97725Z" fill="#DEE9FF"/>
<path id="Vector_2" d="M46.6986 19.0939H41.8217C41.6995 19.0939 41.5822 19.0453 41.4958 18.9589C41.4093 18.8724 41.3608 18.7552 41.3608 18.6329C41.3608 18.5107 41.4093 18.3935 41.4958 18.307C41.5822 18.2206 41.6995 18.172 41.8217 18.172H46.7004C46.8227 18.172 46.9399 18.2206 47.0263 18.307C47.1128 18.3935 47.1613 18.5107 47.1613 18.6329C47.1613 18.7552 47.1128 18.8724 47.0263 18.9589C46.9399 19.0453 46.8227 19.0939 46.7004 19.0939H46.6986ZM39.2727 19.0939H24.5777C24.4554 19.0939 24.3382 19.0453 24.2517 18.9589C24.1653 18.8724 24.1167 18.7552 24.1167 18.6329C24.1167 18.5107 24.1653 18.3935 24.2517 18.307C24.3382 18.2206 24.4554 18.172 24.5777 18.172H39.2727C39.3949 18.172 39.5122 18.2206 39.5986 18.307C39.6851 18.3935 39.7336 18.5107 39.7336 18.6329C39.7336 18.7552 39.6851 18.8724 39.5986 18.9589C39.5122 19.0453 39.3949 19.0939 39.2727 19.0939ZM22.5043 19.0939H11.2664C11.1441 19.0939 11.0269 19.0453 10.9404 18.9589C10.854 18.8724 10.8054 18.7552 10.8054 18.6329C10.8054 18.5107 10.854 18.3935 10.9404 18.307C11.0269 18.2206 11.1441 18.172 11.2664 18.172H22.5043C22.6266 18.172 22.7438 18.2206 22.8302 18.307C22.9167 18.3935 22.9653 18.5107 22.9653 18.6329C22.9653 18.7552 22.9167 18.8724 22.8302 18.9589C22.7438 19.0453 22.6266 19.0939 22.5043 19.0939ZM8.99483 19.0939H5.30171C5.17946 19.0939 5.06222 19.0453 4.97577 18.9589C4.88933 18.8724 4.84077 18.7552 4.84077 18.6329C4.84077 18.5107 4.88933 18.3935 4.97577 18.307C5.06222 18.2206 5.17946 18.172 5.30171 18.172H8.99483C9.11708 18.172 9.23433 18.2206 9.32077 18.307C9.40722 18.3935 9.45578 18.5107 9.45578 18.6329C9.45578 18.7552 9.40722 18.8724 9.32077 18.9589C9.23433 19.0453 9.11708 19.0939 8.99483 19.0939ZM46.6986 23.6895H37.2003C37.078 23.6895 36.9608 23.641 36.8743 23.5545C36.7879 23.4681 36.7393 23.3509 36.7393 23.2286C36.7393 23.1063 36.7879 22.9891 36.8743 22.9027C36.9608 22.8162 37.078 22.7677 37.2003 22.7677H46.6986C46.8208 22.7677 46.9381 22.8162 47.0245 22.9027C47.1109 22.9891 47.1595 23.1063 47.1595 23.2286C47.1595 23.3509 47.1109 23.4681 47.0245 23.5545C46.9381 23.641 46.8208 23.6895 46.6986 23.6895ZM33.8814 23.6895H18.5936C18.4714 23.6895 18.3541 23.641 18.2677 23.5545C18.1812 23.4681 18.1327 23.3509 18.1327 23.2286C18.1327 23.1063 18.1812 22.9891 18.2677 22.9027C18.3541 22.8162 18.4714 22.7677 18.5936 22.7677H33.8814C34.0037 22.7677 34.1209 22.8162 34.2074 22.9027C34.2938 22.9891 34.3424 23.1063 34.3424 23.2286C34.3424 23.3509 34.2938 23.4681 34.2074 23.5545C34.1209 23.641 34.0037 23.6895 33.8814 23.6895ZM15.9671 23.6895H5.30079C5.17854 23.6895 5.0613 23.641 4.97485 23.5545C4.88841 23.4681 4.83984 23.3509 4.83984 23.2286C4.83984 23.1063 4.88841 22.9891 4.97485 22.9027C5.0613 22.8162 5.17854 22.7677 5.30079 22.7677H15.9671C16.0894 22.7677 16.2066 22.8162 16.2931 22.9027C16.3795 22.9891 16.4281 23.1063 16.4281 23.2286C16.4281 23.3509 16.3795 23.4681 16.2931 23.5545C16.2066 23.641 16.0894 23.6895 15.9671 23.6895ZM46.6986 28.2852H28.964C28.8418 28.2852 28.7245 28.2366 28.6381 28.1502C28.5516 28.0638 28.5031 27.9465 28.5031 27.8243C28.5031 27.702 28.5516 27.5848 28.6381 27.4983C28.7245 27.4119 28.8418 27.3633 28.964 27.3633H46.7004C46.8227 27.3633 46.9399 27.4119 47.0263 27.4983C47.1128 27.5848 47.1613 27.702 47.1613 27.8243C47.1613 27.9465 47.1128 28.0638 47.0263 28.1502C46.9399 28.2366 46.8227 28.2852 46.7004 28.2852H46.6986ZM26.0001 28.2852H13.3204C13.1981 28.2852 13.0809 28.2366 12.9944 28.1502C12.908 28.0638 12.8594 27.9465 12.8594 27.8243C12.8594 27.702 12.908 27.5848 12.9944 27.4983C13.0809 27.4119 13.1981 27.3633 13.3204 27.3633H26.0001C26.1224 27.3633 26.2396 27.4119 26.3261 27.4983C26.4125 27.5848 26.4611 27.702 26.4611 27.8243C26.4611 27.9465 26.4125 28.0638 26.3261 28.1502C26.2396 28.2366 26.1224 28.2852 26.0001 28.2852ZM11.2664 28.2852H5.30171C5.17946 28.2852 5.06222 28.2366 4.97577 28.1502C4.88933 28.0638 4.84077 27.9465 4.84077 27.8243C4.84077 27.702 4.88933 27.5848 4.97577 27.4983C5.06222 27.4119 5.17946 27.3633 5.30171 27.3633H11.2664C11.3886 27.3633 11.5059 27.4119 11.5923 27.4983C11.6788 27.5848 11.7273 27.702 11.7273 27.8243C11.7273 27.9465 11.6788 28.0638 11.5923 28.1502C11.5059 28.2366 11.3886 28.2852 11.2664 28.2852ZM46.6986 32.8809H37.2003C37.078 32.8809 36.9608 32.8323 36.8743 32.7459C36.7879 32.6594 36.7393 32.5422 36.7393 32.4199C36.7393 32.2977 36.7879 32.1804 36.8743 32.094C36.9608 32.0075 37.078 31.959 37.2003 31.959H46.6986C46.8208 31.959 46.9381 32.0075 47.0245 32.094C47.1109 32.1804 47.1595 32.2977 47.1595 32.4199C47.1595 32.5422 47.1109 32.6594 47.0245 32.7459C46.9381 32.8323 46.8208 32.8809 46.6986 32.8809ZM34.7692 32.8809H16.8853C16.7631 32.8809 16.6459 32.8323 16.5594 32.7459C16.473 32.6594 16.4244 32.5422 16.4244 32.4199C16.4244 32.2977 16.473 32.1804 16.5594 32.094C16.6459 32.0075 16.7631 31.959 16.8853 31.959H34.7701C34.8924 31.959 35.0096 32.0075 35.0961 32.094C35.1825 32.1804 35.2311 32.2977 35.2311 32.4199C35.2311 32.5422 35.1825 32.6594 35.0961 32.7459C35.0096 32.8323 34.8915 32.8809 34.7692 32.8809ZM14.0911 32.8809H5.30171C5.17946 32.8809 5.06222 32.8323 4.97577 32.7459C4.88933 32.6594 4.84077 32.5422 4.84077 32.4199C4.84077 32.2977 4.88933 32.1804 4.97577 32.094C5.06222 32.0075 5.17946 31.959 5.30171 31.959H14.0911C14.2133 31.959 14.3306 32.0075 14.417 32.094C14.5035 32.1804 14.552 32.2977 14.552 32.4199C14.552 32.5422 14.5035 32.6594 14.417 32.7459C14.3306 32.8323 14.2133 32.8809 14.0911 32.8809ZM46.6986 37.4765H44.3247C44.2024 37.4765 44.0852 37.4279 43.9987 37.3415C43.9123 37.2551 43.8637 37.1378 43.8637 37.0156C43.8637 36.8933 43.9123 36.7761 43.9987 36.6896C44.0852 36.6032 44.2024 36.5546 44.3247 36.5546H46.6995C46.8217 36.5546 46.939 36.6032 47.0254 36.6896C47.1119 36.7761 47.1604 36.8933 47.1604 37.0156C47.1604 37.1378 47.1119 37.2551 47.0254 37.3415C46.939 37.4279 46.8208 37.4765 46.6986 37.4765ZM41.9489 37.4765H24.1047C23.9825 37.4765 23.8652 37.4279 23.7788 37.3415C23.6923 37.2551 23.6438 37.1378 23.6438 37.0156C23.6438 36.8933 23.6923 36.7761 23.7788 36.6896C23.8652 36.6032 23.9825 36.5546 24.1047 36.5546H41.9489C42.0712 36.5546 42.1884 36.6032 42.2749 36.6896C42.3613 36.7761 42.4099 36.8933 42.4099 37.0156C42.4099 37.1378 42.3613 37.2551 42.2749 37.3415C42.1884 37.4279 42.0712 37.4765 41.9489 37.4765ZM21.6746 37.4765H8.99483C8.87258 37.4765 8.75534 37.4279 8.66889 37.3415C8.58245 37.2551 8.53388 37.1378 8.53388 37.0156C8.53388 36.8933 8.58245 36.7761 8.66889 36.6896C8.75534 36.6032 8.87258 36.5546 8.99483 36.5546H21.6746C21.7969 36.5546 21.9141 36.6032 22.0005 36.6896C22.087 36.7761 22.1355 36.8933 22.1355 37.0156C22.1355 37.1378 22.087 37.2551 22.0005 37.3415C21.9141 37.4279 21.7969 37.4765 21.6746 37.4765ZM6.92149 37.4765H5.30171C5.17946 37.4765 5.06222 37.4279 4.97577 37.3415C4.88933 37.2551 4.84077 37.1378 4.84077 37.0156C4.84077 36.8933 4.88933 36.7761 4.97577 36.6896C5.06222 36.6032 5.17946 36.5546 5.30171 36.5546H6.92149C7.04374 36.5546 7.16098 36.6032 7.24743 36.6896C7.33387 36.7761 7.38243 36.8933 7.38243 37.0156C7.38243 37.1378 7.33387 37.2551 7.24743 37.3415C7.16098 37.4279 7.04374 37.4765 6.92149 37.4765ZM30.7064 51.2635H5.30171C5.17946 51.2635 5.06222 51.2149 4.97577 51.1285C4.88933 51.042 4.84077 50.9248 4.84077 50.8025C4.84077 50.6803 4.88933 50.563 4.97577 50.4766C5.06222 50.3901 5.17946 50.3416 5.30171 50.3416H30.7064C30.8287 50.3416 30.9459 50.3901 31.0324 50.4766C31.1188 50.563 31.1674 50.6803 31.1674 50.8025C31.1674 50.9248 31.1188 51.042 31.0324 51.1285C30.9459 51.2149 30.8287 51.2635 30.7064 51.2635Z" fill="#262626"/>
<path id="Vector_3" d="M51 9.97732V14.8412H1V9.97732C0.999879 9.32358 1.12857 8.67622 1.37872 8.07223C1.62887 7.46824 1.99557 6.91945 2.45788 6.45723C2.92019 5.995 3.46904 5.6284 4.07308 5.37836C4.67711 5.12833 5.3245 4.99976 5.97824 5H46.0227C47.3426 5.00122 48.6081 5.5261 49.5415 6.45944C50.4748 7.39278 50.9997 8.6583 51.0009 9.97824L51 9.97732Z" fill="#4054F9"/>
<path id="Vector_4" d="M6.56593 11.2301C7.28892 11.2301 7.87502 10.644 7.87502 9.92103C7.87502 9.19804 7.28892 8.61194 6.56593 8.61194C5.84294 8.61194 5.25684 9.19804 5.25684 9.92103C5.25684 10.644 5.84294 11.2301 6.56593 11.2301Z" fill="white"/>
<path id="Vector_5" d="M11.2661 11.2301C11.9891 11.2301 12.5752 10.644 12.5752 9.92103C12.5752 9.19804 11.9891 8.61194 11.2661 8.61194C10.5431 8.61194 9.95703 9.19804 9.95703 9.92103C9.95703 10.644 10.5431 11.2301 11.2661 11.2301Z" fill="white"/>
<path id="Vector_6" d="M15.9673 11.2301C16.6903 11.2301 17.2764 10.644 17.2764 9.92103C17.2764 9.19804 16.6903 8.61194 15.9673 8.61194C15.2443 8.61194 14.6582 9.19804 14.6582 9.92103C14.6582 10.644 15.2443 11.2301 15.9673 11.2301Z" fill="white"/>
<path id="Vector_7" d="M45.4718 11.2301H30.5564C30.3893 11.2301 30.2237 11.1972 30.0693 11.1332C29.9149 11.0692 29.7746 10.9754 29.6565 10.8572C29.5383 10.7389 29.4446 10.5986 29.3808 10.4441C29.3169 10.2897 29.2841 10.1241 29.2842 9.95699V9.88416C29.2842 9.18167 29.8539 8.61194 30.5564 8.61194H45.4727C46.1752 8.61194 46.7449 9.18167 46.7449 9.88416V9.95699C46.7449 10.2944 46.6109 10.618 46.3723 10.8566C46.1337 11.0952 45.8101 11.2292 45.4727 11.2292L45.4718 11.2301Z" fill="white"/>
<path id="Vector_8" d="M46.6986 42.0722H41.8218C41.6995 42.0722 41.5823 42.0237 41.4958 41.9372C41.4094 41.8508 41.3608 41.7335 41.3608 41.6113C41.3608 41.489 41.4094 41.3718 41.4958 41.2853C41.5823 41.1989 41.6995 41.1503 41.8218 41.1503H46.7005C46.8227 41.1503 46.94 41.1989 47.0264 41.2853C47.1128 41.3718 47.1614 41.489 47.1614 41.6113C47.1614 41.7335 47.1128 41.8508 47.0264 41.9372C46.94 42.0237 46.8227 42.0722 46.7005 42.0722H46.6986ZM37.8309 42.0722H24.5786C24.4564 42.0722 24.3391 42.0237 24.2527 41.9372C24.1662 41.8508 24.1177 41.7335 24.1177 41.6113C24.1177 41.489 24.1662 41.3718 24.2527 41.2853C24.3391 41.1989 24.4564 41.1503 24.5786 41.1503H37.83C37.9522 41.1503 38.0695 41.1989 38.1559 41.2853C38.2424 41.3718 38.2909 41.489 38.2909 41.6113C38.2909 41.7335 38.2424 41.8508 38.1559 41.9372C38.0695 42.0237 37.9531 42.0722 37.8309 42.0722ZM22.5044 42.0722H11.2664C11.1442 42.0722 11.0269 42.0237 10.9405 41.9372C10.8541 41.8508 10.8055 41.7335 10.8055 41.6113C10.8055 41.489 10.8541 41.3718 10.9405 41.2853C11.0269 41.1989 11.1442 41.1503 11.2664 41.1503H22.5044C22.6266 41.1503 22.7439 41.1989 22.8303 41.2853C22.9167 41.3718 22.9653 41.489 22.9653 41.6113C22.9653 41.7335 22.9167 41.8508 22.8303 41.9372C22.7439 42.0237 22.6266 42.0722 22.5044 42.0722ZM8.99489 42.0722H5.30177C5.17952 42.0722 5.06227 42.0237 4.97583 41.9372C4.88938 41.8508 4.84082 41.7335 4.84082 41.6113C4.84082 41.489 4.88938 41.3718 4.97583 41.2853C5.06227 41.1989 5.17952 41.1503 5.30177 41.1503H8.99489C9.11714 41.1503 9.23438 41.1989 9.32083 41.2853C9.40727 41.3718 9.45584 41.489 9.45584 41.6113C9.45584 41.7335 9.40727 41.8508 9.32083 41.9372C9.23438 42.0237 9.11714 42.0722 8.99489 42.0722ZM46.6986 46.6679H28.9641C28.8418 46.6679 28.7246 46.6193 28.6382 46.5329C28.5517 46.4464 28.5031 46.3292 28.5031 46.2069C28.5031 46.0847 28.5517 45.9674 28.6382 45.881C28.7246 45.7945 28.8418 45.746 28.9641 45.746H46.7005C46.8227 45.746 46.94 45.7945 47.0264 45.881C47.1128 45.9674 47.1614 46.0847 47.1614 46.2069C47.1614 46.3292 47.1128 46.4464 47.0264 46.5329C46.94 46.6193 46.8227 46.6679 46.7005 46.6679H46.6986ZM26.0002 46.6679H13.3204C13.1982 46.6679 13.0809 46.6193 12.9945 46.5329C12.908 46.4464 12.8595 46.3292 12.8595 46.2069C12.8595 46.0847 12.908 45.9674 12.9945 45.881C13.0809 45.7945 13.1982 45.746 13.3204 45.746H26.0002C26.1224 45.746 26.2397 45.7945 26.3261 45.881C26.4126 45.9674 26.4611 46.0847 26.4611 46.2069C26.4611 46.3292 26.4126 46.4464 26.3261 46.5329C26.2397 46.6193 26.1224 46.6679 26.0002 46.6679ZM11.2664 46.6679H5.30177C5.17952 46.6679 5.06227 46.6193 4.97583 46.5329C4.88938 46.4464 4.84082 46.3292 4.84082 46.2069C4.84082 46.0847 4.88938 45.9674 4.97583 45.881C5.06227 45.7945 5.17952 45.746 5.30177 45.746H11.2664C11.3887 45.746 11.5059 45.7945 11.5924 45.881C11.6788 45.9674 11.7274 46.0847 11.7274 46.2069C11.7274 46.3292 11.6788 46.4464 11.5924 46.5329C11.5059 46.6193 11.3887 46.6679 11.2664 46.6679Z" fill="#262626"/>
<path id="Vector_9" d="M49.0621 44.884L40.1133 40.9033L50.6275 17.2658C51.1554 16.079 52.1331 15.1505 53.3456 14.6846C53.9459 14.4539 54.5859 14.3437 55.2288 14.3603C55.8717 14.3769 56.5051 14.5199 57.0928 14.7813C57.6804 15.0427 58.2108 15.4173 58.6537 15.8836C59.0966 16.35 59.4433 16.899 59.674 17.4994C59.9047 18.0998 60.0149 18.7397 59.9983 19.3826C59.9817 20.0256 59.8387 20.6589 59.5773 21.2466L49.0621 44.884Z" fill="#4054F9"/>
<path id="Vector_10" d="M58.148 24.4576L59.577 21.2466C60.0839 20.0633 60.1045 18.7279 59.6344 17.5295C59.1644 16.331 58.2414 15.3658 57.0652 14.8426C55.8889 14.3195 54.554 14.2804 53.3492 14.7339C52.1444 15.1874 51.1665 16.0969 50.6272 17.2658L49.1982 20.4768L58.148 24.4576Z" fill="white"/>
<path id="Vector_11" d="M59.2105 22.0708L59.5774 21.2466C60.0843 20.0633 60.105 18.7279 59.6349 17.5295C59.1649 16.331 58.2419 15.3658 57.0656 14.8426C55.8894 14.3195 54.5545 14.2804 53.3497 14.7339C52.1449 15.1874 51.167 16.0969 50.6277 17.2658L50.2607 18.09L59.2105 22.0708Z" fill="#262626"/>
<path id="Vector_12" d="M49.0614 44.8867L44.0204 49.2326L42.0577 50.9233C41.3866 51.5023 40.343 51.0376 40.3227 50.1508L40.2637 47.5621L40.1162 40.9078L49.0614 44.8867Z" fill="#FFD86B"/>
<path id="Vector_13" d="M44.0204 49.2326L42.0577 50.9234C41.3865 51.5023 40.343 51.0377 40.3227 50.1508L40.2637 47.5621C40.9856 47.4149 41.7356 47.4978 42.408 47.7991C43.0994 48.107 43.6581 48.6177 44.0204 49.2326Z" fill="#262626"/>
</g>
</g>
</svg>
