<svg width="55" height="55" viewBox="0 0 55 55" fill="none" xmlns="http://www.w3.org/2000/svg">
<g id="Group">
<path id="Vector" d="M54.9989 5.47479V49.5137C54.9973 50.9652 54.42 52.3569 53.3936 53.3833C52.3672 54.4097 50.9755 54.987 49.524 54.9886H5.47596C4.75677 54.9889 4.04458 54.8474 3.38009 54.5723C2.71559 54.2972 2.11182 53.8939 1.60328 53.3853C1.09473 52.8768 0.691388 52.273 0.41629 51.6085C0.141192 50.944 -0.000266138 50.2318 3.75893e-07 49.5127V5.4758C-0.00013289 4.7567 0.141423 4.04461 0.416581 3.38024C0.691739 2.71586 1.09511 2.11221 1.60364 1.60377C2.11217 1.09534 2.71589 0.692082 3.38032 0.417048C4.04475 0.142013 4.75686 0.000588423 5.47596 0.000854868H49.524C50.9759 0.00219736 52.3679 0.579558 53.3946 1.60621C54.4212 2.63286 54.9986 4.02491 54.9999 5.47681L54.9989 5.47479Z" fill="#DEE9FF"/>
<path id="Vector_2" d="M54.9989 5.47495V10.8252H9.40082e-08V5.47495C-0.000133172 4.75584 0.141423 4.04376 0.416581 3.37938C0.691739 2.71501 1.09511 2.11135 1.60364 1.60292C2.11217 1.09448 2.71589 0.691228 3.38032 0.416193C4.04475 0.141158 4.75686 -0.00026607 5.47596 3.75789e-07H49.524C50.9759 0.00134287 52.3679 0.578703 53.3946 1.60535C54.4212 2.632 54.9986 4.02406 54.9999 5.47596L54.9989 5.47495Z" fill="#4054F9"/>
<path id="Vector_3" d="M6.12161 6.85291C6.91689 6.85291 7.56159 6.20821 7.56159 5.41294C7.56159 4.61766 6.91689 3.97296 6.12161 3.97296C5.32634 3.97296 4.68164 4.61766 4.68164 5.41294C4.68164 6.20821 5.32634 6.85291 6.12161 6.85291Z" fill="white"/>
<path id="Vector_4" d="M11.2925 6.85291C12.0878 6.85291 12.7325 6.20821 12.7325 5.41294C12.7325 4.61766 12.0878 3.97296 11.2925 3.97296C10.4972 3.97296 9.85254 4.61766 9.85254 5.41294C9.85254 6.20821 10.4972 6.85291 11.2925 6.85291Z" fill="white"/>
<path id="Vector_5" d="M16.4634 6.85291C17.2587 6.85291 17.9034 6.20821 17.9034 5.41294C17.9034 4.61766 17.2587 3.97296 16.4634 3.97296C15.6681 3.97296 15.0234 4.61766 15.0234 5.41294C15.0234 6.20821 15.6681 6.85291 16.4634 6.85291Z" fill="white"/>
<path id="Vector_6" d="M48.9173 6.85291H32.5107C32.3269 6.85291 32.1448 6.81668 31.975 6.74629C31.8051 6.6759 31.6508 6.57273 31.5208 6.44267C31.3909 6.31262 31.2878 6.15823 31.2176 5.98833C31.1473 5.81843 31.1112 5.63634 31.1113 5.45248V5.37237C31.1113 4.59965 31.738 3.97296 32.5107 3.97296H48.9183C49.6911 3.97296 50.3177 4.59965 50.3177 5.37237V5.45248C50.3177 5.82363 50.1703 6.17958 49.9079 6.44202C49.6454 6.70446 49.2895 6.8519 48.9183 6.8519L48.9173 6.85291Z" fill="white"/>
</g>
</svg>
