<svg width="47" height="40" viewBox="0 0 47 40" fill="none" xmlns="http://www.w3.org/2000/svg">
<g id="Frame 965" clip-path="url(#clip0_2270_6954)">
<g id="Group 48096694">
<path id="Vector" d="M27.345 46.3988H0.875103C0.749201 46.3988 0.628456 46.3561 0.53943 46.2801C0.450404 46.2041 0.400391 46.1011 0.400391 45.9936C0.400391 45.8861 0.450404 45.783 0.53943 45.707C0.628456 45.631 0.749201 45.5883 0.875103 45.5883H27.345C27.4709 45.5883 27.5917 45.631 27.6807 45.707C27.7697 45.783 27.8197 45.8861 27.8197 45.9936C27.8197 46.1011 27.7697 46.2041 27.6807 46.2801C27.5917 46.3561 27.4709 46.3988 27.345 46.3988ZM4.32151 42.3027H0.875103C0.749201 42.3027 0.628456 42.26 0.53943 42.184C0.450404 42.108 0.400391 42.005 0.400391 41.8975C0.400391 41.79 0.450404 41.6869 0.53943 41.6109C0.628456 41.5349 0.749201 41.4922 0.875103 41.4922H4.32151C4.44741 41.4922 4.56816 41.5349 4.65718 41.6109C4.74621 41.6869 4.79622 41.79 4.79622 41.8975C4.79622 42.005 4.74621 42.108 4.65718 42.184C4.56816 42.26 4.44741 42.3027 4.32151 42.3027ZM43.9248 42.3027H7.24858C7.12268 42.3027 7.00194 42.26 6.91291 42.184C6.82389 42.108 6.77387 42.005 6.77387 41.8975C6.77387 41.79 6.82389 41.6869 6.91291 41.6109C7.00194 41.5349 7.12268 41.4922 7.24858 41.4922H43.9248C44.0507 41.4922 44.1715 41.5349 44.2605 41.6109C44.3495 41.6869 44.3995 41.79 44.3995 41.8975C44.3995 42.005 44.3495 42.108 44.2605 42.184C44.1715 42.26 44.0507 42.3027 43.9248 42.3027ZM24.4968 38.2066H0.875103C0.749201 38.2066 0.628456 38.1639 0.53943 38.0879C0.450404 38.0119 0.400391 37.9088 0.400391 37.8014C0.400391 37.6939 0.450404 37.5908 0.53943 37.5148C0.628456 37.4388 0.749201 37.3961 0.875103 37.3961H24.4968C24.6227 37.3961 24.7434 37.4388 24.8324 37.5148C24.9215 37.5908 24.9715 37.6939 24.9715 37.8014C24.9715 37.9088 24.9215 38.0119 24.8324 38.0879C24.7434 38.1639 24.6227 38.2066 24.4968 38.2066ZM43.9248 38.2066H27.345C27.2191 38.2066 27.0984 38.1639 27.0094 38.0879C26.9203 38.0119 26.8703 37.9088 26.8703 37.8014C26.8703 37.6939 26.9203 37.5908 27.0094 37.5148C27.0984 37.4388 27.2191 37.3961 27.345 37.3961H43.9248C44.0507 37.3961 44.1715 37.4388 44.2605 37.5148C44.3495 37.5908 44.3995 37.6939 44.3995 37.8014C44.3995 37.9088 44.3495 38.0119 44.2605 38.0879C44.1715 38.1639 44.0507 38.2066 43.9248 38.2066ZM5.42854 34.1105H0.875103C0.749201 34.1105 0.628456 34.0678 0.53943 33.9918C0.450404 33.9158 0.400391 33.8127 0.400391 33.7053C0.400391 33.5978 0.450404 33.4947 0.53943 33.4187C0.628456 33.3427 0.749201 33.3 0.875103 33.3H5.42949C5.55539 33.3 5.67613 33.3427 5.76516 33.4187C5.85419 33.4947 5.9042 33.5978 5.9042 33.7053C5.9042 33.8127 5.85419 33.9158 5.76516 33.9918C5.67613 34.0678 5.55444 34.1105 5.42854 34.1105ZM31.1427 34.1105H8.83127C8.70537 34.1105 8.58463 34.0678 8.4956 33.9918C8.40658 33.9158 8.35656 33.8127 8.35656 33.7053C8.35656 33.5978 8.40658 33.4947 8.4956 33.4187C8.58463 33.3427 8.70537 33.3 8.83127 33.3H31.1427C31.2686 33.3 31.3894 33.3427 31.4784 33.4187C31.5674 33.4947 31.6174 33.5978 31.6174 33.7053C31.6174 33.8127 31.5674 33.9158 31.4784 33.9918C31.3894 34.0678 31.2686 34.1105 31.1427 34.1105ZM43.9248 34.1105H34.4657C34.3398 34.1105 34.2191 34.0678 34.13 33.9918C34.041 33.9158 33.991 33.8127 33.991 33.7053C33.991 33.5978 34.041 33.4947 34.13 33.4187C34.2191 33.3427 34.3398 33.3 34.4657 33.3H43.9248C44.0507 33.3 44.1715 33.3427 44.2605 33.4187C44.3495 33.4947 44.3995 33.5978 44.3995 33.7053C44.3995 33.8127 44.3495 33.9158 44.2605 33.9918C44.1715 34.0678 44.0507 34.1105 43.9248 34.1105ZM10.3342 1.01017H7.16978C7.04388 1.01017 6.92314 0.967481 6.83411 0.891485C6.74508 0.815489 6.69507 0.712416 6.69507 0.604941C6.69507 0.497466 6.74508 0.394394 6.83411 0.318397C6.92314 0.242401 7.04388 0.199707 7.16978 0.199707H10.3342C10.4601 0.199707 10.5809 0.242401 10.6699 0.318397C10.7589 0.394394 10.8089 0.497466 10.8089 0.604941C10.8089 0.712416 10.7589 0.815489 10.6699 0.891485C10.5809 0.967481 10.4601 1.01017 10.3342 1.01017ZM5.19118 1.01017H0.875103C0.749201 1.01017 0.628456 0.967481 0.53943 0.891485C0.450404 0.815489 0.400391 0.712416 0.400391 0.604941C0.400391 0.497466 0.450404 0.394394 0.53943 0.318397C0.628456 0.242401 0.749201 0.199707 0.875103 0.199707H5.19213C5.31803 0.199707 5.43878 0.242401 5.5278 0.318397C5.61683 0.394394 5.66685 0.497466 5.66685 0.604941C5.66685 0.712416 5.61683 0.815489 5.5278 0.891485C5.43878 0.967481 5.31708 1.01017 5.19118 1.01017ZM4.55887 3.40024H0.875103C0.749201 3.40024 0.628456 3.35755 0.53943 3.28155C0.450404 3.20556 0.400391 3.10249 0.400391 2.99501C0.400391 2.88754 0.450404 2.78446 0.53943 2.70847C0.628456 2.63247 0.749201 2.58978 0.875103 2.58978H4.55887C4.68477 2.58978 4.80551 2.63247 4.89454 2.70847C4.98356 2.78446 5.03358 2.88754 5.03358 2.99501C5.03358 3.10249 4.98356 3.20556 4.89454 3.28155C4.80551 3.35755 4.68477 3.40024 4.55887 3.40024Z" fill="#262626"/>
<path id="Vector_2" d="M17.7086 23.5428C17.7046 24.0126 17.5156 24.4619 17.1826 24.7932C17.0173 24.9571 16.8212 25.0866 16.6057 25.1744C16.3901 25.2622 16.1593 25.3064 15.9266 25.3047L13.5049 25.2909L13.525 21.7463L15.9467 21.7609C16.4164 21.7643 16.8656 21.9538 17.1959 22.2878C17.5261 22.6218 17.7105 23.0731 17.7086 23.5428Z" fill="#FFD86B"/>
<path id="Vector_3" d="M38.6303 13.6071C38.645 11.1296 37.0024 9.11136 34.9615 9.09925C32.9206 9.08714 31.2542 11.0857 31.2395 13.5633C31.2248 16.0408 32.8674 18.059 34.9083 18.0711C36.9492 18.0832 38.6156 16.0846 38.6303 13.6071Z" fill="#4054F9"/>
<path id="Vector_4" d="M33.0905 2.96625L33.0925 2.96557C33.2849 2.90115 33.4898 2.88362 33.6903 2.91444C33.8908 2.94527 34.081 3.02356 34.2451 3.14279C34.4093 3.26202 34.5425 3.41874 34.6338 3.5999C34.7251 3.78105 34.7717 3.9814 34.7699 4.18424L34.7699 4.18595L34.665 22.9706L34.665 22.9709C34.664 23.1742 34.6146 23.3744 34.5209 23.5548C34.4272 23.7353 34.2919 23.8909 34.1262 24.0087C33.9605 24.1265 33.7691 24.2032 33.5679 24.2324L33.6397 24.7272L33.5679 24.2324C33.3665 24.2616 33.1605 24.2424 32.9682 24.1766L18.6128 19.2538L18.6781 7.7252L33.0905 2.96625ZM12.1675 29.0608H12.1671C11.987 29.0602 11.8087 29.024 11.6426 28.9544L11.4493 29.4155L11.6426 28.9544C11.4765 28.8848 11.3257 28.783 11.199 28.655C11.0722 28.527 10.972 28.3752 10.904 28.2084L10.4423 28.3966L10.904 28.2084C10.836 28.0416 10.8016 27.863 10.8028 27.6828L10.8028 27.6824L10.854 18.6053L15.2498 18.6299L13.5244 27.937L13.5243 27.9371C13.4657 28.2537 13.2977 28.5396 13.0498 28.745L13.3687 29.1301L13.0498 28.745C12.8018 28.9504 12.4895 29.0622 12.1675 29.0608Z" fill="white" stroke="#262626"/>
<path id="Vector_5" d="M18.9252 20L11.5875 19.9573C11.1136 19.955 10.6448 19.8621 10.2079 19.684C9.77109 19.5059 9.37475 19.246 9.04157 18.9193C8.70838 18.5925 8.44491 18.2053 8.2662 17.7798C8.08749 17.3543 7.99706 16.8988 8.00007 16.4394L8.03441 10.4779C8.03648 10.0184 8.13206 9.56379 8.31566 9.14013C8.49927 8.71647 8.7673 8.33209 9.10439 8.00902C9.44148 7.68594 9.84102 7.43053 10.2801 7.2574C10.7192 7.08427 11.1892 6.99683 11.6632 7.00009L19 7.04276L18.9252 20Z" fill="#4054F9"/>
<path id="Vector_6" d="M15.6188 10.3366H15.6163L10.6794 10.3084C10.5724 10.3082 10.4699 10.2655 10.3944 10.1897C10.3189 10.1139 10.2766 10.0112 10.2768 9.90425C10.2771 9.79728 10.3198 9.69477 10.3955 9.61928C10.4713 9.54379 10.574 9.5015 10.681 9.50171H10.6834L15.6212 9.52994C15.6741 9.5301 15.7266 9.54069 15.7754 9.56111C15.8243 9.58153 15.8687 9.61137 15.906 9.64894C15.9434 9.6865 15.9729 9.73106 15.9931 9.78005C16.0132 9.82905 16.0235 9.88153 16.0233 9.9345C16.0232 9.98747 16.0126 10.0399 15.9921 10.0888C15.9717 10.1376 15.9419 10.182 15.9043 10.2194C15.8668 10.2567 15.8222 10.2863 15.7732 10.3064C15.7242 10.3265 15.6717 10.3368 15.6188 10.3366ZM15.605 13.8603H15.6026L10.6649 13.832C10.5579 13.8317 10.4554 13.7889 10.38 13.713C10.3046 13.6372 10.2624 13.5345 10.2627 13.4275C10.263 13.3205 10.3058 13.218 10.3817 13.1426C10.4576 13.0672 10.5603 13.025 10.6673 13.0253H10.6697L15.6067 13.0536C15.6596 13.0537 15.7121 13.0642 15.7609 13.0846C15.8098 13.105 15.8542 13.1348 15.8916 13.1723C15.929 13.2098 15.9586 13.2543 15.9788 13.3033C15.999 13.3523 16.0093 13.4048 16.0092 13.4577C16.0091 13.5107 15.9985 13.5631 15.9782 13.612C15.9578 13.6609 15.928 13.7053 15.8905 13.7427C15.853 13.7801 15.8084 13.8097 15.7595 13.8299C15.7105 13.85 15.658 13.8604 15.605 13.8603ZM15.5784 17.3847H15.576L10.639 17.3565C10.586 17.3563 10.5335 17.3456 10.4846 17.3251C10.4357 17.3046 10.3913 17.2746 10.354 17.2369C10.3167 17.1992 10.2872 17.1545 10.2672 17.1054C10.2471 17.0563 10.237 17.0037 10.2373 16.9507C10.2389 16.7281 10.4067 16.5256 10.6431 16.5498L15.5808 16.578C15.6878 16.5783 15.7903 16.6211 15.8657 16.697C15.9411 16.7729 15.9833 16.8756 15.983 16.9826C15.9827 17.0895 15.9399 17.192 15.864 17.2674C15.7881 17.3428 15.6854 17.385 15.5784 17.3847Z" fill="white"/>
</g>
</g>
<defs>
<clipPath id="clip0_2270_6954">
<rect width="46.1991" height="39.5992" fill="white" transform="translate(0.400391 0.199707)"/>
</clipPath>
</defs>
</svg>
