<svg width="60" height="60" viewBox="0 0 60 60" fill="none" xmlns="http://www.w3.org/2000/svg">
<g id="Frame 967 1 1">
<path id="Vector" d="M51.4693 11.4066L42.0757 10.711C41.9409 10.7011 41.8111 10.6559 41.6993 10.5798C41.5875 10.5038 41.4978 10.3996 41.439 10.2779C41.3803 10.1561 41.3547 10.021 41.3649 9.8862C41.375 9.7514 41.4204 9.62164 41.4967 9.50999L43.0445 7.23761C33.0151 1.33051 20.1034 2.90916 11.7514 11.2611C3.15233 19.8593 1.74712 33.2922 8.29108 43.4401C8.38336 43.5895 8.41524 43.7683 8.38025 43.9404C8.34526 44.1124 8.24601 44.2646 8.10272 44.366L6.17627 45.6687C6.02263 45.7721 5.83425 45.8103 5.65245 45.775C5.47065 45.7397 5.31028 45.6337 5.20652 45.4803C-2.30626 33.8713 -0.699636 18.4988 9.14334 8.65587C18.756 -0.955868 33.6212 -2.73498 45.1295 4.18382L46.8079 1.72308C46.8841 1.61069 46.9886 1.52042 47.1108 1.46142C47.2331 1.40242 47.3688 1.37678 47.5041 1.38709C47.6395 1.39741 47.7697 1.44332 47.8816 1.52017C47.9935 1.59702 48.0831 1.70208 48.1413 1.82471L52.2227 10.3072C52.2819 10.4291 52.3078 10.5644 52.2978 10.6995C52.2878 10.8345 52.2422 10.9646 52.1657 11.0763C52.0892 11.1881 51.9844 11.2776 51.8621 11.3358C51.7398 11.3939 51.6042 11.4178 51.4693 11.4066Z" fill="#FFD86B"/>
<path id="Vector_2" d="M50.8476 50.3589C48.1077 53.1012 44.8537 55.276 41.2719 56.7588C37.6902 58.2415 33.8511 59.0031 29.9746 59C24.6614 59.008 19.4465 57.567 14.8913 54.8319L13.2129 57.2926C13.1366 57.4048 13.0321 57.4948 12.9099 57.5535C12.7877 57.6123 12.6521 57.6378 12.5169 57.6274C12.3817 57.617 12.2516 57.5711 12.1399 57.4943C12.0281 57.4175 11.9386 57.3125 11.8804 57.1901L7.78411 48.7085C7.72647 48.5866 7.70173 48.4518 7.71237 48.3174C7.72301 48.183 7.76864 48.0537 7.84474 47.9425C7.92084 47.8312 8.02475 47.7418 8.14613 47.6831C8.26751 47.6245 8.40213 47.5986 8.5366 47.6082L17.9311 48.3029C18.525 48.3467 18.8579 49.0124 18.525 49.5048L16.9762 51.7772C26.9927 57.6684 39.8903 56.0907 48.2414 47.7527C56.8405 39.1555 58.2587 25.7226 51.7306 15.5747C51.6813 15.5018 51.647 15.4198 51.6297 15.3335C51.6125 15.2472 51.6126 15.1583 51.6302 15.0721C51.6477 14.9859 51.6823 14.904 51.7319 14.8313C51.7815 14.7586 51.8451 14.6965 51.919 14.6487L53.8296 13.3461C54.1476 13.1288 54.597 13.2016 54.7993 13.5345C62.3121 25.1435 60.6906 40.5299 50.8476 50.3589Z" fill="#4054F9"/>
<path id="Vector_3" d="M41.9745 47.2532L41.9737 47.2539C41.2362 47.85 40.3561 48.121 39.4149 48.0968L39.4136 48.0967C38.4572 48.0746 37.514 48.0028 36.6556 47.7514C33.759 46.8888 31.1829 45.3638 28.8704 43.4166C26.0722 41.0571 23.7512 38.3884 21.7056 35.5563C19.6601 32.7241 17.8578 29.6829 16.4973 26.284C15.3762 23.4769 14.7385 20.5517 14.8299 17.5314C14.8614 16.6376 15.0897 15.719 15.3697 14.8055L15.3703 14.8036C15.6426 13.9019 16.1763 13.1517 16.9747 12.6384C17.4777 12.3139 17.9762 12.0142 18.4869 11.7598L24.6906 23.3869C24.4466 23.5338 24.1993 23.6769 23.9423 23.8257C23.6568 23.9909 23.3592 24.1632 23.0404 24.3555L22.6267 24.605L22.8618 25.027C23.5216 26.2111 25.3767 28.911 27.2727 31.5363C29.1687 34.1615 31.1483 36.7715 32.0657 37.7697L32.3922 38.1251L32.7589 37.8113C33.0471 37.5646 33.3081 37.3328 33.5585 37.1104C33.7759 36.9174 33.9852 36.7315 34.1973 36.5492L43.2842 46.0945C42.8818 46.4994 42.4407 46.878 41.9745 47.2532Z" fill="#DEE9FF" stroke="#262626"/>
<path id="Vector_4" d="M23.979 11.9017C25.174 14.1368 26.3508 16.3816 27.5093 18.6359C28.4007 20.3703 27.7461 21.9387 25.9521 23.177C25.7544 23.3131 25.5576 23.4399 25.3534 23.5658L18.7041 11.1054C19.4221 10.7809 20.1764 10.5394 20.9886 10.4359C22.3006 10.2662 23.3505 10.7334 23.979 11.9017ZM44.8762 40.8367C43.13 38.9994 41.3689 37.1764 39.5929 35.3679C38.2269 33.9757 36.5326 34.1044 34.7927 35.4182C34.6015 35.5627 34.4197 35.7091 34.235 35.8639L43.9736 46.0939C44.506 45.5148 44.9741 44.8742 45.3275 44.1357C45.901 42.944 45.7881 41.7999 44.8762 40.8367Z" fill="#262626"/>
<path id="Vector_5" d="M45.6777 19.0322V23.9537C45.6777 24.6378 45.406 25.2938 44.9223 25.7775C44.4386 26.2612 43.7826 26.5329 43.0985 26.5329H36.4343C36.225 26.5332 36.0229 26.6094 35.8655 26.7474L32.8872 29.347C32.7621 29.4562 32.6081 29.5271 32.4438 29.5511C32.2794 29.5752 32.1116 29.5514 31.9604 29.4827C31.8092 29.414 31.681 29.3032 31.591 29.1635C31.5011 29.0239 31.4532 28.8613 31.4531 28.6952V19.0322C31.4531 18.3482 31.7249 17.6922 32.2085 17.2085C32.6922 16.7248 33.3483 16.4531 34.0323 16.4531H43.0985C43.7826 16.4531 44.4386 16.7248 44.9223 17.2085C45.406 17.6922 45.6777 18.3482 45.6777 19.0322Z" fill="#4054F9"/>
<path id="Vector_6" d="M42.1005 20.6182H35.0297C34.9061 20.6182 34.7875 20.5691 34.7 20.4817C34.6126 20.3943 34.5635 20.2757 34.5635 20.152C34.5635 20.0284 34.6126 19.9098 34.7 19.8223C34.7875 19.7349 34.9061 19.6858 35.0297 19.6858H42.1005C42.2241 19.6858 42.3427 19.7349 42.4302 19.8223C42.5176 19.9098 42.5667 20.0284 42.5667 20.152C42.5667 20.2757 42.5176 20.3943 42.4302 20.4817C42.3427 20.5691 42.2241 20.6182 42.1005 20.6182ZM38.9143 23.7187H35.0297C34.9061 23.7187 34.7875 23.6695 34.7 23.5821C34.6126 23.4947 34.5635 23.3761 34.5635 23.2524C34.5635 23.1288 34.6126 23.0102 34.7 22.9228C34.7875 22.8353 34.9061 22.7862 35.0297 22.7862H38.9143C39.038 22.7862 39.1565 22.8353 39.244 22.9228C39.3314 23.0102 39.3805 23.1288 39.3805 23.2524C39.3805 23.3761 39.3314 23.4947 39.244 23.5821C39.1565 23.6695 39.038 23.7187 38.9143 23.7187Z" fill="white"/>
</g>
</svg>
