<svg width="23" height="20" viewBox="0 0 23 20" fill="none" xmlns="http://www.w3.org/2000/svg">
<g id="icTelegram">
<path id="Vector" d="M21.8364 2.56675L18.4735 17.3339C18.4735 17.3339 18.0032 18.3581 16.7099 17.8665L8.94968 12.6847L6.1279 11.4968L1.37777 10.104C1.37777 10.104 0.648795 9.8788 0.578192 9.38723C0.507589 8.89567 1.40131 8.62946 1.40131 8.62946L20.2841 2.1778C20.2841 2.1778 21.8362 1.58388 21.8362 2.567" fill="white"/>
<path id="Vector_2" d="M8.35047 17.1675C8.35047 17.1675 8.12395 17.149 7.84154 16.3706C7.55957 15.5923 6.125 11.4961 6.125 11.4961L17.5301 5.18796C17.5301 5.18796 18.1886 4.83976 18.1651 5.18796C18.1651 5.18796 18.2826 5.24945 17.9297 5.53617C17.5771 5.82301 8.97046 12.5612 8.97046 12.5612" fill="#D2E5F1"/>
<path id="Vector_3" d="M11.9234 14.6714L8.85402 17.1089C8.85402 17.1089 8.61397 17.2675 8.35156 17.1681L8.93934 12.6406" fill="#B5CFE4"/>
</g>
</svg>
