<svg width="20" height="20" viewBox="0 0 20 20" fill="none" xmlns="http://www.w3.org/2000/svg">
<g id="icWhatsapp" clip-path="url(#clip0_2270_7993)">
<path id="Vector" d="M5.28759 17.1286L5.61455 17.2902C6.97705 18.0981 8.50291 18.4752 10.0288 18.4752C14.8245 18.4752 18.7483 14.5969 18.7483 9.85674C18.7483 7.59442 17.8218 5.38593 16.187 3.76994C14.552 2.15396 12.3721 1.23828 10.0288 1.23828C5.23314 1.23828 1.30931 5.11658 1.36384 9.91064C1.36384 11.5265 1.85431 13.0887 2.67173 14.4353L2.8897 14.7585L2.01783 17.9366L5.28759 17.1286Z" fill="#56CD6C"/>
<path id="Vector_2" d="M17.112 2.90873C15.2591 1.02347 12.6977 0 10.0819 0C4.52328 0 0.0545312 4.47081 0.108984 9.9112C0.108984 11.6349 0.599453 13.3048 1.41695 14.813L0 19.9302L5.28617 18.5836C6.75758 19.3916 8.39242 19.7686 10.0274 19.7686C15.5316 19.7686 20.0003 15.2978 20.0003 9.85745C20.0003 7.21799 18.9648 4.74015 17.112 2.90873H17.112ZM10.0819 18.0988C8.61047 18.0988 7.13906 17.7219 5.88562 16.9677L5.55867 16.8061L2.39789 17.6141L3.21531 14.5438L2.99734 14.2205C0.599453 10.3961 1.74391 5.33266 5.66766 2.96255C9.5914 0.59251 14.6596 1.72371 17.0575 5.60201C19.4553 9.48031 18.3109 14.4898 14.3872 16.8599C13.1337 17.6679 11.6078 18.0988 10.0819 18.0988V18.0988ZM14.8776 12.1198L14.2781 11.8505C14.2781 11.8505 13.4062 11.4734 12.8612 11.2041C12.8067 11.2041 12.7523 11.1502 12.6977 11.1502C12.5342 11.1502 12.4252 11.2041 12.3162 11.258C12.3162 11.258 12.2618 11.3118 11.4988 12.1737C11.4443 12.2814 11.3353 12.3353 11.2263 12.3353H11.1718C11.1173 12.3353 11.0084 12.2814 10.9538 12.2276L10.6813 12.1198C10.0819 11.8505 9.53695 11.5273 9.10094 11.0964C8.99195 10.9886 8.82844 10.8809 8.71945 10.7732C8.33797 10.3961 7.95648 9.96517 7.68406 9.48039L7.62953 9.37266C7.57508 9.31876 7.57508 9.26494 7.52055 9.15722C7.52055 9.0495 7.52055 8.94178 7.57508 8.88788C7.57508 8.88788 7.79305 8.61853 7.95648 8.45699C8.06555 8.34919 8.12 8.18764 8.22898 8.07992C8.33797 7.9183 8.3925 7.70286 8.33797 7.54123C8.28351 7.27189 7.62953 5.81753 7.46609 5.49436C7.35703 5.33274 7.24812 5.27892 7.08461 5.22502H6.48516C6.37609 5.22502 6.26719 5.27892 6.15812 5.27892L6.10359 5.33274C5.99461 5.38664 5.88562 5.49436 5.77664 5.54818C5.66766 5.65598 5.61312 5.76363 5.50414 5.87143C5.12266 6.35622 4.90469 6.94873 4.90469 7.54123C4.90469 7.97212 5.01367 8.40309 5.17719 8.78015L5.23172 8.94178C5.72219 9.96517 6.37609 10.8809 7.24812 11.6889L7.46609 11.9043C7.62953 12.0659 7.79305 12.1737 7.90203 12.3352C9.04648 13.3049 10.3544 14.0051 11.8258 14.3822C11.9893 14.436 12.2073 14.436 12.3708 14.4899H12.9157C13.1882 14.4899 13.5152 14.3822 13.7332 14.2744C13.8966 14.1667 14.0056 14.1667 14.1146 14.059L14.2237 13.9512C14.3327 13.8435 14.4416 13.7897 14.5506 13.6819C14.6596 13.5742 14.7686 13.4665 14.8231 13.3587C14.9321 13.1432 14.9866 12.8739 15.0411 12.6046V12.2276C15.0411 12.2276 14.9866 12.1737 14.8776 12.1198Z" fill="white"/>
</g>
<defs>
<clipPath id="clip0_2270_7993">
<rect width="20" height="20" fill="white"/>
</clipPath>
</defs>
</svg>
