<svg width="60" height="60" viewBox="0 0 60 60" fill="none" xmlns="http://www.w3.org/2000/svg">
<g id="Frame">
<g id="Group">
<path id="Vector" d="M59.2228 53.292C59.2232 53.6935 59.1442 54.0911 58.9903 54.462C58.8365 54.8329 58.6108 55.1697 58.3264 55.4531C58.0438 55.7389 57.707 55.9656 57.3358 56.1198C56.9646 56.2741 56.5663 56.3528 56.1644 56.3514H3.49552C3.09425 56.3512 2.69698 56.2718 2.32642 56.1178C1.95586 55.9639 1.61929 55.7384 1.33599 55.4542C1.05268 55.1701 0.828182 54.8328 0.675352 54.4618C0.522521 54.0908 0.444353 53.6933 0.445321 53.292C0.445321 52.4526 0.783107 51.6905 1.33351 51.1401C1.90685 50.5663 2.68435 50.2432 3.49552 50.2418H56.1644C56.9743 50.2413 57.7514 50.5622 58.325 51.1341C58.8986 51.7059 59.2209 52.482 59.2228 53.292Z" fill="#262626"/>
<path id="Vector_2" d="M55.1986 19.4571V50.2417H4.45801V19.4571C4.45801 16.2725 7.04432 13.6862 10.2197 13.6862H49.436C52.6206 13.6862 55.1986 16.2725 55.1986 19.4571Z" fill="#4054F9"/>
<path id="Vector_3" d="M51.1792 19.5613V44.3752C51.1792 45.3876 50.3417 46.2068 49.3292 46.2068H10.3228C9.31036 46.2068 8.49121 45.3876 8.49121 44.3752V19.5613C8.49121 18.5488 9.31036 17.7205 10.3228 17.7205H49.3292C50.3417 17.7205 51.1792 18.5488 51.1792 19.5613Z" fill="#DEE9FF"/>
<path id="Vector_4" d="M45.9322 4.5403V40.3438C45.9322 41.5102 44.981 42.4686 43.8074 42.4686H15.8641C14.6904 42.4686 13.7393 41.5102 13.7393 40.3438V4.5403C13.7393 3.36374 14.6914 2.40626 15.8641 2.40626H43.8074C44.9801 2.40626 45.9322 3.36374 45.9322 4.5403Z" fill="white" stroke="#262626" stroke-width="0.812525"/>
<path id="Vector_5" d="M42.556 14.8853C42.556 15.4099 42.1418 15.8241 41.6264 15.8241H18.0458C17.5304 15.8241 17.1162 15.4099 17.1162 14.8945V6.62009C17.1162 6.10467 17.5304 5.69049 18.0458 5.69049H41.6172C42.1326 5.69049 42.5468 6.10467 42.5468 6.62009L42.556 14.8853Z" fill="#4054F9"/>
<path id="Vector_6" d="M42.5478 19.6239H17.1135C16.9915 19.6239 16.8744 19.5755 16.7881 19.4892C16.7018 19.4029 16.6533 19.2858 16.6533 19.1638C16.6533 19.0417 16.7018 18.9246 16.7881 18.8383C16.8744 18.752 16.9915 18.7036 17.1135 18.7036H42.5478C42.6698 18.7036 42.7869 18.752 42.8732 18.8383C42.9595 18.9246 43.008 19.0417 43.008 19.1638C43.008 19.2858 42.9595 19.4029 42.8732 19.4892C42.7869 19.5755 42.6698 19.6239 42.5478 19.6239ZM42.5478 22.9622H30.5568C30.4348 22.9622 30.3177 22.9137 30.2314 22.8274C30.1451 22.7411 30.0966 22.6241 30.0966 22.502C30.0966 22.38 30.1451 22.2629 30.2314 22.1766C30.3177 22.0903 30.4348 22.0418 30.5568 22.0418H42.5478C42.6698 22.0418 42.7869 22.0903 42.8732 22.1766C42.9595 22.2629 43.008 22.38 43.008 22.502C43.008 22.6241 42.9595 22.7411 42.8732 22.8274C42.7869 22.9137 42.6698 22.9622 42.5478 22.9622ZM42.5478 26.2996H30.5568C30.4348 26.2996 30.3177 26.2511 30.2314 26.1648C30.1451 26.0785 30.0966 25.9614 30.0966 25.8394C30.0966 25.7173 30.1451 25.6003 30.2314 25.514C30.3177 25.4277 30.4348 25.3792 30.5568 25.3792H42.5478C42.6698 25.3792 42.7869 25.4277 42.8732 25.514C42.9595 25.6003 43.008 25.7173 43.008 25.8394C43.008 25.9614 42.9595 26.0785 42.8732 26.1648C42.7869 26.2511 42.6698 26.2996 42.5478 26.2996ZM42.5478 29.6379H30.5568C30.4348 29.6379 30.3177 29.5894 30.2314 29.5031C30.1451 29.4168 30.0966 29.2997 30.0966 29.1777C30.0966 29.0556 30.1451 28.9386 30.2314 28.8523C30.3177 28.766 30.4348 28.7175 30.5568 28.7175H42.5478C42.6698 28.7175 42.7869 28.766 42.8732 28.8523C42.9595 28.9386 43.008 29.0556 43.008 29.1777C43.008 29.2997 42.9595 29.4168 42.8732 29.5031C42.7869 29.5894 42.6698 29.6379 42.5478 29.6379ZM42.5478 32.9752H30.5568C30.4348 32.9752 30.3177 32.9268 30.2314 32.8404C30.1451 32.7541 30.0966 32.6371 30.0966 32.515C30.0966 32.393 30.1451 32.2759 30.2314 32.1896C30.3177 32.1033 30.4348 32.0548 30.5568 32.0548H42.5478C42.6698 32.0548 42.7869 32.1033 42.8732 32.1896C42.9595 32.2759 43.008 32.393 43.008 32.515C43.008 32.6371 42.9595 32.7541 42.8732 32.8404C42.7869 32.9268 42.6698 32.9752 42.5478 32.9752ZM42.5478 36.3126H17.1135C16.9915 36.3126 16.8744 36.2641 16.7881 36.1778C16.7018 36.0915 16.6533 35.9745 16.6533 35.8524C16.6533 35.7303 16.7018 35.6133 16.7881 35.527C16.8744 35.4407 16.9915 35.3922 17.1135 35.3922H42.5478C42.6698 35.3922 42.7869 35.4407 42.8732 35.527C42.9595 35.6133 43.008 35.7303 43.008 35.8524C43.008 35.9745 42.9595 36.0915 42.8732 36.1778C42.7869 36.2641 42.6698 36.3126 42.5478 36.3126ZM29.4349 39.65H17.1135C16.9915 39.65 16.8744 39.6015 16.7881 39.5152C16.7018 39.4289 16.6533 39.3118 16.6533 39.1898C16.6533 39.0677 16.7018 38.9507 16.7881 38.8644C16.8744 38.778 16.9915 38.7296 17.1135 38.7296H29.4349C29.5569 38.7296 29.674 38.778 29.7603 38.8644C29.8466 38.9507 29.8951 39.0677 29.8951 39.1898C29.8951 39.3118 29.8466 39.4289 29.7603 39.5152C29.674 39.6015 29.5569 39.65 29.4349 39.65Z" fill="black"/>
<path id="Vector_7" d="M27.7928 23.9422V31.0753C27.7928 31.8668 27.1485 32.5111 26.3478 32.5111H18.552C17.7605 32.5111 17.1162 31.8668 17.1162 31.0753V23.9422C17.1162 23.1415 17.7605 22.4972 18.552 22.4972H26.3478C27.1485 22.4972 27.7928 23.1415 27.7928 23.9422Z" fill="#FFD86B"/>
<path id="Vector_8" d="M19.9518 13.4801C19.9177 13.4466 19.891 13.4064 19.8731 13.3621C19.8552 13.3177 19.8466 13.2702 19.8478 13.2224V8.41796C19.8478 8.27438 19.8984 8.14921 20.0006 8.04428C20.048 7.99393 20.1054 7.95402 20.1691 7.92708C20.2328 7.90014 20.3014 7.88677 20.3706 7.88781H20.4755C20.6467 7.88781 20.7939 7.96789 20.9173 8.12896L24.0162 12.603V8.25873C24.0162 8.15565 24.0512 8.06913 24.1212 7.99642C24.1902 7.92371 24.2767 7.88781 24.3789 7.88781C24.481 7.88781 24.5676 7.92463 24.6394 7.99642C24.6743 8.03029 24.702 8.07095 24.7207 8.1159C24.7393 8.16085 24.7486 8.20914 24.748 8.25781V13.0623C24.7491 13.1315 24.7357 13.2001 24.7088 13.2638C24.6818 13.3275 24.6419 13.3849 24.5915 13.4323C24.5425 13.4816 24.4841 13.5206 24.4198 13.5468C24.3554 13.5731 24.2864 13.5861 24.2169 13.5851H24.1212C24.0367 13.5853 23.9535 13.5644 23.8791 13.5243C23.8067 13.4864 23.7436 13.4329 23.6941 13.3679L20.5795 8.86896V13.2224C20.5791 13.2705 20.5692 13.3181 20.5504 13.3624C20.5316 13.4066 20.5042 13.4467 20.4698 13.4803C20.4354 13.514 20.3947 13.5405 20.35 13.5583C20.3053 13.5761 20.2576 13.5849 20.2095 13.5842C20.1617 13.5853 20.1142 13.5767 20.0699 13.5588C20.0255 13.541 19.9853 13.5142 19.9518 13.4801ZM26.3531 13.066C25.9859 12.6932 25.8027 12.1686 25.8027 11.4921C25.8027 11.112 25.8718 10.7604 26.0117 10.4382C26.1506 10.1161 26.366 9.85654 26.6559 9.65774C26.945 9.45985 27.3021 9.36045 27.7254 9.36045C28.1231 9.36045 28.4654 9.45249 28.7563 9.63749C29.0453 9.82341 29.2653 10.0701 29.4153 10.3784C29.5653 10.6867 29.6408 11.0227 29.6408 11.3881C29.6408 11.4893 29.6077 11.5758 29.5396 11.6458C29.5046 11.6811 29.4626 11.7086 29.4163 11.7267C29.37 11.7448 29.3204 11.7529 29.2708 11.7507H26.5427C26.586 12.1262 26.725 12.418 26.9615 12.6269C27.1971 12.8368 27.5266 12.9408 27.9509 12.9408C28.1764 12.9408 28.3734 12.9196 28.5428 12.8764C28.7112 12.834 28.8759 12.7724 29.037 12.6923C29.0823 12.6703 29.1321 12.6593 29.1824 12.6601C29.268 12.6601 29.3426 12.6895 29.4079 12.7484C29.4724 12.8073 29.5037 12.8819 29.5037 12.973C29.5037 13.0917 29.4337 13.1911 29.2947 13.2712C29.0993 13.3833 28.8914 13.4723 28.6753 13.5363C28.4177 13.6021 28.1523 13.6322 27.8865 13.6256C27.2321 13.6256 26.7213 13.4387 26.3531 13.066ZM28.9164 11.1543C28.9092 10.9201 28.8382 10.6922 28.7112 10.4953C28.6006 10.3271 28.4463 10.1921 28.2648 10.1051C28.0966 10.0238 27.9123 9.981 27.7254 9.97988C27.5432 9.97988 27.3637 10.0213 27.1861 10.1051C27.0094 10.1879 26.8621 10.3177 26.7443 10.4953C26.6195 10.693 26.5499 10.9206 26.5427 11.1543H28.9164ZM31.5 13.4884C31.4174 13.4284 31.3557 13.3441 31.3233 13.2473L30.1801 9.8998C30.1647 9.85539 30.1566 9.80876 30.1562 9.76174C30.1562 9.6605 30.1903 9.5749 30.2611 9.50495C30.2946 9.47076 30.3348 9.44381 30.3791 9.42576C30.4234 9.40771 30.471 9.39895 30.5189 9.40003C30.5915 9.39968 30.6626 9.42082 30.7232 9.46077C30.7849 9.50127 30.8263 9.55281 30.8484 9.61724L31.7899 12.7162L32.7232 9.68995C32.7488 9.60592 32.8012 9.53256 32.8723 9.48102C32.9429 9.42795 33.0289 9.39949 33.1171 9.40003C33.2057 9.39943 33.292 9.42788 33.3629 9.48102C33.4339 9.53266 33.4863 9.60598 33.512 9.68995L34.4453 12.7162L35.3868 9.61816C35.4088 9.55312 35.4527 9.49778 35.5111 9.46169C35.5719 9.42124 35.6433 9.39977 35.7163 9.40003C35.8176 9.40003 35.9041 9.435 35.9741 9.50495C36.0082 9.53848 36.0351 9.57863 36.0532 9.62296C36.0712 9.66728 36.08 9.71482 36.079 9.76266C36.0782 9.80942 36.0698 9.85573 36.0541 9.8998L34.9128 13.2473C34.8797 13.3439 34.8208 13.424 34.7352 13.4884C34.6496 13.5529 34.552 13.5851 34.4453 13.5851C34.3385 13.5851 34.2409 13.5529 34.1553 13.4884C34.0697 13.424 34.0081 13.3412 33.9703 13.239L33.1171 10.5754L32.2639 13.239C32.2271 13.3402 32.1654 13.4231 32.0798 13.4875C31.9943 13.5519 31.8967 13.5851 31.7899 13.5851C31.6832 13.5851 31.5856 13.5529 31.5 13.4884ZM36.8033 13.2629C36.7597 13.2341 36.7241 13.1947 36.6999 13.1483C36.6758 13.1019 36.6638 13.0501 36.6653 12.9979C36.6645 12.9139 36.6966 12.833 36.7546 12.7724C36.7829 12.7408 36.8177 12.7159 36.8566 12.6992C36.8956 12.6825 36.9377 12.6745 36.98 12.6757C37.0279 12.6757 37.0767 12.6868 37.1246 12.7079C37.2967 12.7834 37.4679 12.8423 37.64 12.8847C37.8299 12.9297 38.0246 12.9513 38.2198 12.9491C38.8144 12.9491 39.1126 12.7586 39.1126 12.3784C39.1126 12.2542 39.0436 12.1603 38.9074 12.0959C38.6898 12.0049 38.4651 11.9322 38.2355 11.8787C37.9688 11.8189 37.7065 11.7411 37.4504 11.6458C37.2468 11.5675 37.0648 11.4419 36.9193 11.2795C36.772 11.1156 36.6984 10.9003 36.6984 10.6315C36.6984 10.256 36.8337 9.95042 37.1043 9.7148C37.3749 9.47918 37.7633 9.36045 38.2677 9.36045C38.68 9.36045 39.0693 9.42764 39.4338 9.5611C39.5005 9.5801 39.5592 9.6201 39.6013 9.67515C39.6435 9.7302 39.6667 9.79736 39.6676 9.86667C39.6676 9.95319 39.6363 10.0277 39.5756 10.0922C39.5148 10.1566 39.4375 10.1888 39.3455 10.1888C39.3103 10.1877 39.2754 10.1824 39.2415 10.1732C38.9447 10.0786 38.6353 10.0296 38.3238 10.0277C38.0339 10.0277 37.8075 10.0802 37.6437 10.1851C37.4798 10.2901 37.3979 10.4244 37.3979 10.5919C37.3979 10.7521 37.4734 10.8708 37.6234 10.9454C37.7734 11.0208 38.0072 11.0926 38.3238 11.1626C38.6404 11.2436 38.8982 11.3227 39.097 11.4001C39.2948 11.4783 39.4651 11.5998 39.6069 11.7664C39.7495 11.932 39.8204 12.1557 39.8204 12.4346C39.8204 12.7779 39.6851 13.0614 39.4145 13.2878C39.143 13.5124 38.761 13.6256 38.2677 13.6256C37.7566 13.6317 37.2525 13.5068 36.8033 13.2629Z" fill="white"/>
</g>
</g>
</svg>
