<svg width="60" height="60" viewBox="0 0 60 60" fill="none" xmlns="http://www.w3.org/2000/svg">
<path d="M48.7706 5.41815V53.5943C48.7706 55.4643 47.2472 57 45.3648 57H7.76514C5.88268 57 4.35938 55.4643 4.35938 53.5943V5.41815C4.35938 3.53569 5.88268 2 7.76514 2H45.3648C47.2472 2 48.7706 3.53569 48.7706 5.41815Z" fill="#DEE9FF"/>
<path d="M44.3988 7.73259V10.7969C44.3988 11.768 43.3742 12.56 42.1057 12.56H11.0518C9.78335 12.56 8.75879 11.768 8.75879 10.7969V7.73259C8.75879 6.75202 9.78335 5.96002 11.0518 5.96002H42.1057C43.3742 5.96002 44.3988 6.75202 44.3988 7.73259Z" fill="white"/>
<path d="M42.5438 45.1561H27.68C27.566 45.1561 27.4567 45.1108 27.3762 45.0302C27.2956 44.9496 27.2503 44.8403 27.2503 44.7264C27.2503 44.6124 27.2956 44.5031 27.3762 44.4225C27.4567 44.342 27.566 44.2967 27.68 44.2967H42.5438C42.6577 44.2967 42.767 44.342 42.8476 44.4225C42.9282 44.5031 42.9734 44.6124 42.9734 44.7264C42.9734 44.8403 42.9282 44.9496 42.8476 45.0302C42.767 45.1108 42.6577 45.1561 42.5438 45.1561ZM25.217 45.1561H22.082C21.9681 45.1561 21.8588 45.1108 21.7782 45.0302C21.6976 44.9496 21.6523 44.8403 21.6523 44.7264C21.6523 44.6124 21.6976 44.5031 21.7782 44.4225C21.8588 44.342 21.9681 44.2967 22.082 44.2967H25.217C25.331 44.2967 25.4403 44.342 25.5209 44.4225C25.6014 44.5031 25.6467 44.6124 25.6467 44.7264C25.6467 44.8403 25.6014 44.9496 25.5209 45.0302C25.4403 45.1108 25.331 45.1561 25.217 45.1561ZM42.5438 48.4423H36.1328C36.0189 48.4423 35.9096 48.3971 35.829 48.3165C35.7484 48.2359 35.7031 48.1266 35.7031 48.0126C35.7031 47.8987 35.7484 47.7894 35.829 47.7088C35.9096 47.6282 36.0189 47.5829 36.1328 47.5829H42.5438C42.6577 47.5829 42.767 47.6282 42.8476 47.7088C42.9282 47.7894 42.9734 47.8987 42.9734 48.0126C42.9734 48.1266 42.9282 48.2359 42.8476 48.3165C42.767 48.3971 42.6577 48.4423 42.5438 48.4423ZM33.1104 48.4423H22.082C21.9681 48.4423 21.8588 48.3971 21.7782 48.3165C21.6976 48.2359 21.6523 48.1266 21.6523 48.0126C21.6523 47.8987 21.6976 47.7894 21.7782 47.7088C21.8588 47.6282 21.9681 47.5829 22.082 47.5829H33.1104C33.2244 47.5829 33.3336 47.6282 33.4142 47.7088C33.4948 47.7894 33.5401 47.8987 33.5401 48.0126C33.5401 48.1266 33.4948 48.2359 33.4142 48.3165C33.3336 48.3971 33.2244 48.4423 33.1104 48.4423ZM35.7968 51.7277H29.5835C29.4696 51.7277 29.3603 51.6824 29.2797 51.6019C29.1991 51.5213 29.1538 51.412 29.1538 51.298C29.1538 51.1841 29.1991 51.0748 29.2797 50.9942C29.3603 50.9136 29.4696 50.8683 29.5835 50.8683H35.7968C35.9108 50.8683 36.0201 50.9136 36.1006 50.9942C36.1812 51.0748 36.2265 51.1841 36.2265 51.298C36.2265 51.412 36.1812 51.5213 36.1006 51.6019C36.0201 51.6824 35.9108 51.7277 35.7968 51.7277ZM27.1205 51.7277H22.082C21.9681 51.7277 21.8588 51.6824 21.7782 51.6019C21.6976 51.5213 21.6523 51.412 21.6523 51.298C21.6523 51.1841 21.6976 51.0748 21.7782 50.9942C21.8588 50.9136 21.9681 50.8683 22.082 50.8683H27.1205C27.2345 50.8683 27.3438 50.9136 27.4244 50.9942C27.505 51.0748 27.5502 51.1841 27.5502 51.298C27.5502 51.412 27.505 51.5213 27.4244 51.6019C27.3438 51.6824 27.2345 51.7277 27.1205 51.7277ZM42.5438 31.6209H27.68C27.566 31.6209 27.4567 31.5756 27.3762 31.4951C27.2956 31.4145 27.2503 31.3052 27.2503 31.1912C27.2503 31.0773 27.2956 30.968 27.3762 30.8874C27.4567 30.8068 27.566 30.7615 27.68 30.7615H42.5438C42.6577 30.7615 42.767 30.8068 42.8476 30.8874C42.9282 30.968 42.9734 31.0773 42.9734 31.1912C42.9734 31.3052 42.9282 31.4145 42.8476 31.4951C42.767 31.5756 42.6577 31.6209 42.5438 31.6209ZM25.217 31.6209H22.082C21.9681 31.6209 21.8588 31.5756 21.7782 31.4951C21.6976 31.4145 21.6523 31.3052 21.6523 31.1912C21.6523 31.0773 21.6976 30.968 21.7782 30.8874C21.8588 30.8068 21.9681 30.7615 22.082 30.7615H25.217C25.331 30.7615 25.4403 30.8068 25.5209 30.8874C25.6014 30.968 25.6467 31.0773 25.6467 31.1912C25.6467 31.3052 25.6014 31.4145 25.5209 31.4951C25.4403 31.5756 25.331 31.6209 25.217 31.6209ZM42.5438 34.9072H36.1328C36.0189 34.9072 35.9096 34.8619 35.829 34.7813C35.7484 34.7007 35.7031 34.5914 35.7031 34.4775C35.7031 34.3635 35.7484 34.2542 35.829 34.1736C35.9096 34.0931 36.0189 34.0478 36.1328 34.0478H42.5438C42.6577 34.0478 42.767 34.0931 42.8476 34.1736C42.9282 34.2542 42.9734 34.3635 42.9734 34.4775C42.9734 34.5914 42.9282 34.7007 42.8476 34.7813C42.767 34.8619 42.6577 34.9072 42.5438 34.9072ZM33.1104 34.9072H22.082C21.9681 34.9072 21.8588 34.8619 21.7782 34.7813C21.6976 34.7007 21.6523 34.5914 21.6523 34.4775C21.6523 34.3635 21.6976 34.2542 21.7782 34.1736C21.8588 34.0931 21.9681 34.0478 22.082 34.0478H33.1104C33.2244 34.0478 33.3336 34.0931 33.4142 34.1736C33.4948 34.2542 33.5401 34.3635 33.5401 34.4775C33.5401 34.5914 33.4948 34.7007 33.4142 34.7813C33.3336 34.8619 33.2244 34.9072 33.1104 34.9072ZM35.7968 38.1926H29.5835C29.4696 38.1926 29.3603 38.1473 29.2797 38.0667C29.1991 37.9861 29.1538 37.8768 29.1538 37.7629C29.1538 37.6489 29.1991 37.5396 29.2797 37.459C29.3603 37.3785 29.4696 37.3332 29.5835 37.3332H35.7968C35.9108 37.3332 36.0201 37.3785 36.1006 37.459C36.1812 37.5396 36.2265 37.6489 36.2265 37.7629C36.2265 37.8768 36.1812 37.9861 36.1006 38.0667C36.0201 38.1473 35.9108 38.1926 35.7968 38.1926ZM27.1205 38.1926H22.082C21.9681 38.1926 21.8588 38.1473 21.7782 38.0667C21.6976 37.9861 21.6523 37.8768 21.6523 37.7629C21.6523 37.6489 21.6976 37.5396 21.7782 37.459C21.8588 37.3785 21.9681 37.3332 22.082 37.3332H27.1205C27.2345 37.3332 27.3438 37.3785 27.4244 37.459C27.505 37.5396 27.5502 37.6489 27.5502 37.7629C27.5502 37.8768 27.505 37.9861 27.4244 38.0667C27.3438 38.1473 27.2345 38.1926 27.1205 38.1926Z" fill="#262626"/>
<path d="M17.7988 45.0202V51.0101C17.7988 51.9468 17.0426 52.7031 16.1059 52.7031H10.116C9.18789 52.7031 8.43164 51.9468 8.43164 51.0101V45.0202C8.43164 44.0835 9.18789 43.3273 10.116 43.3273H16.1059C17.0426 43.3273 17.7988 44.0835 17.7988 45.0202ZM17.7988 17.9499V23.9398C17.7988 24.8765 17.0426 25.6327 16.1059 25.6327H10.116C9.18789 25.6327 8.43164 24.8765 8.43164 23.9398V17.9499C8.43164 17.0132 9.18789 16.257 10.116 16.257H16.1059C17.0426 16.257 17.7988 17.0132 17.7988 17.9499ZM17.7988 31.4851V37.4749C17.7988 38.4116 17.0426 39.1679 16.1059 39.1679H10.116C9.18789 39.1679 8.43164 38.4116 8.43164 37.4749V31.4851C8.43164 30.5484 9.18789 29.7921 10.116 29.7921H16.1059C17.0426 29.7921 17.7988 30.5484 17.7988 31.4851Z" fill="#4054F9"/>
<g clip-path="url(#clip0_2270_6978)">
<path d="M42.5444 18.0856H27.6806C27.5667 18.0856 27.4574 18.0404 27.3768 17.9598C27.2962 17.8792 27.2509 17.7699 27.2509 17.6559C27.2509 17.542 27.2962 17.4327 27.3768 17.3521C27.4574 17.2715 27.5667 17.2263 27.6806 17.2263H42.5444C42.6583 17.2263 42.7676 17.2715 42.8482 17.3521C42.9288 17.4327 42.9741 17.542 42.9741 17.6559C42.9741 17.7699 42.9288 17.8792 42.8482 17.9598C42.7676 18.0404 42.6583 18.0856 42.5444 18.0856ZM25.2177 18.0856H22.0827C21.9687 18.0856 21.8594 18.0404 21.7788 17.9598C21.6982 17.8792 21.653 17.7699 21.653 17.6559C21.653 17.542 21.6982 17.4327 21.7788 17.3521C21.8594 17.2715 21.9687 17.2263 22.0827 17.2263H25.2177C25.3316 17.2263 25.4409 17.2715 25.5215 17.3521C25.6021 17.4327 25.6474 17.542 25.6474 17.6559C25.6474 17.7699 25.6021 17.8792 25.5215 17.9598C25.4409 18.0404 25.3316 18.0856 25.2177 18.0856ZM42.5444 21.3719H36.1334C36.0195 21.3719 35.9102 21.3266 35.8296 21.246C35.749 21.1654 35.7038 21.0562 35.7038 20.9422C35.7038 20.8282 35.749 20.7189 35.8296 20.6384C35.9102 20.5578 36.0195 20.5125 36.1334 20.5125H42.5444C42.6583 20.5125 42.7676 20.5578 42.8482 20.6384C42.9288 20.7189 42.9741 20.8282 42.9741 20.9422C42.9741 21.0562 42.9288 21.1654 42.8482 21.246C42.7676 21.3266 42.6583 21.3719 42.5444 21.3719ZM33.111 21.3719H22.0827C21.9687 21.3719 21.8594 21.3266 21.7788 21.246C21.6982 21.1654 21.653 21.0562 21.653 20.9422C21.653 20.8282 21.6982 20.7189 21.7788 20.6384C21.8594 20.5578 21.9687 20.5125 22.0827 20.5125H33.111C33.225 20.5125 33.3343 20.5578 33.4149 20.6384C33.4954 20.7189 33.5407 20.8282 33.5407 20.9422C33.5407 21.0562 33.4954 21.1654 33.4149 21.246C33.3343 21.3266 33.225 21.3719 33.111 21.3719ZM35.7974 24.6573H29.5842C29.4702 24.6573 29.3609 24.612 29.2803 24.5314C29.1997 24.4508 29.1545 24.3415 29.1545 24.2276C29.1545 24.1136 29.1997 24.0043 29.2803 23.9238C29.3609 23.8432 29.4702 23.7979 29.5842 23.7979H35.7974C35.9114 23.7979 36.0207 23.8432 36.1013 23.9238C36.1818 24.0043 36.2271 24.1136 36.2271 24.2276C36.2271 24.3415 36.1818 24.4508 36.1013 24.5314C36.0207 24.612 35.9114 24.6573 35.7974 24.6573ZM27.1212 24.6573H22.0827C21.9687 24.6573 21.8594 24.612 21.7788 24.5314C21.6982 24.4508 21.653 24.3415 21.653 24.2276C21.653 24.1136 21.6982 24.0043 21.7788 23.9238C21.8594 23.8432 21.9687 23.7979 22.0827 23.7979H27.1212C27.2351 23.7979 27.3444 23.8432 27.425 23.9238C27.5056 24.0043 27.5509 24.1136 27.5509 24.2276C27.5509 24.3415 27.5056 24.4508 27.425 24.5314C27.3444 24.612 27.2351 24.6573 27.1212 24.6573ZM11.9609 23.1302C11.9045 23.1301 11.8487 23.119 11.7967 23.0973C11.7446 23.0756 11.6973 23.0438 11.6576 23.0038L10.4476 21.7938C10.4065 21.7542 10.3738 21.7068 10.3513 21.6544C10.3288 21.6019 10.3169 21.5456 10.3164 21.4885C10.3159 21.4314 10.3268 21.3749 10.3484 21.3221C10.37 21.2693 10.4019 21.2213 10.4423 21.1809C10.4826 21.1406 10.5306 21.1087 10.5834 21.0871C10.6362 21.0655 10.6928 21.0546 10.7498 21.0551C10.8069 21.0556 10.8633 21.0674 10.9157 21.09C10.9681 21.1125 11.0155 21.1452 11.0552 21.1863L11.9609 22.0929L15.1741 18.8797C15.2138 18.8387 15.2612 18.8059 15.3136 18.7834C15.366 18.7609 15.4224 18.749 15.4795 18.7485C15.5365 18.748 15.5931 18.7589 15.6459 18.7805C15.6987 18.8021 15.7467 18.834 15.7871 18.8744C15.8274 18.9147 15.8593 18.9627 15.8809 19.0155C15.9025 19.0683 15.9134 19.1249 15.9129 19.1819C15.9124 19.239 15.9005 19.2954 15.878 19.3478C15.8555 19.4002 15.8228 19.4476 15.7817 19.4873L12.2652 23.0038C12.2253 23.0439 12.1779 23.0758 12.1257 23.0974C12.0735 23.1191 12.0175 23.1302 11.9609 23.1302ZM11.9609 36.6653C11.9045 36.6653 11.8487 36.6541 11.7967 36.6324C11.7446 36.6108 11.6973 36.579 11.6576 36.539L10.4476 35.329C10.4065 35.2894 10.3738 35.2419 10.3513 35.1895C10.3288 35.1371 10.3169 35.0807 10.3164 35.0237C10.3159 34.9666 10.3268 34.91 10.3484 34.8572C10.37 34.8044 10.4019 34.7564 10.4423 34.7161C10.4826 34.6757 10.5306 34.6438 10.5834 34.6222C10.6362 34.6006 10.6928 34.5898 10.7498 34.5903C10.8069 34.5908 10.8633 34.6026 10.9157 34.6251C10.9681 34.6476 11.0155 34.6804 11.0552 34.7214L11.9609 35.6281L15.1741 32.4149C15.2138 32.3738 15.2612 32.3411 15.3136 32.3186C15.366 32.296 15.4224 32.2842 15.4795 32.2837C15.5365 32.2832 15.5931 32.2941 15.6459 32.3157C15.6987 32.3373 15.7467 32.3692 15.7871 32.4095C15.8274 32.4499 15.8593 32.4978 15.8809 32.5507C15.9025 32.6035 15.9134 32.66 15.9129 32.7171C15.9124 32.7742 15.9005 32.8305 15.878 32.883C15.8555 32.9354 15.8228 32.9828 15.7817 33.0224L12.2652 36.539C12.2253 36.5791 12.1779 36.6109 12.1257 36.6326C12.0735 36.6543 12.0175 36.6654 11.9609 36.6653Z" fill="white"/>
</g>
<g clip-path="url(#clip1_2270_6978)">
<path d="M42.5444 31.1096H27.6806C27.5667 31.1096 27.4574 31.0643 27.3768 30.9837C27.2962 30.9031 27.2509 30.7938 27.2509 30.6799C27.2509 30.5659 27.2962 30.4566 27.3768 30.376C27.4574 30.2955 27.5667 30.2502 27.6806 30.2502H42.5444C42.6583 30.2502 42.7676 30.2955 42.8482 30.376C42.9288 30.4566 42.9741 30.5659 42.9741 30.6799C42.9741 30.7938 42.9288 30.9031 42.8482 30.9837C42.7676 31.0643 42.6583 31.1096 42.5444 31.1096ZM25.2177 31.1096H22.0827C21.9687 31.1096 21.8594 31.0643 21.7788 30.9837C21.6982 30.9031 21.653 30.7938 21.653 30.6799C21.653 30.5659 21.6982 30.4566 21.7788 30.376C21.8594 30.2955 21.9687 30.2502 22.0827 30.2502H25.2177C25.3316 30.2502 25.4409 30.2955 25.5215 30.376C25.6021 30.4566 25.6474 30.5659 25.6474 30.6799C25.6474 30.7938 25.6021 30.9031 25.5215 30.9837C25.4409 31.0643 25.3316 31.1096 25.2177 31.1096ZM42.5444 34.3958H36.1334C36.0195 34.3958 35.9102 34.3505 35.8296 34.27C35.749 34.1894 35.7038 34.0801 35.7038 33.9661C35.7038 33.8522 35.749 33.7429 35.8296 33.6623C35.9102 33.5817 36.0195 33.5364 36.1334 33.5364H42.5444C42.6583 33.5364 42.7676 33.5817 42.8482 33.6623C42.9288 33.7429 42.9741 33.8522 42.9741 33.9661C42.9741 34.0801 42.9288 34.1894 42.8482 34.27C42.7676 34.3505 42.6583 34.3958 42.5444 34.3958ZM33.111 34.3958H22.0827C21.9687 34.3958 21.8594 34.3505 21.7788 34.27C21.6982 34.1894 21.653 34.0801 21.653 33.9661C21.653 33.8522 21.6982 33.7429 21.7788 33.6623C21.8594 33.5817 21.9687 33.5364 22.0827 33.5364H33.111C33.225 33.5364 33.3343 33.5817 33.4149 33.6623C33.4954 33.7429 33.5407 33.8522 33.5407 33.9661C33.5407 34.0801 33.4954 34.1894 33.4149 34.27C33.3343 34.3505 33.225 34.3958 33.111 34.3958ZM35.7974 37.6812H29.5842C29.4702 37.6812 29.3609 37.6359 29.2803 37.5553C29.1997 37.4748 29.1545 37.3655 29.1545 37.2515C29.1545 37.1376 29.1997 37.0283 29.2803 36.9477C29.3609 36.8671 29.4702 36.8218 29.5842 36.8218H35.7974C35.9114 36.8218 36.0207 36.8671 36.1013 36.9477C36.1818 37.0283 36.2271 37.1376 36.2271 37.2515C36.2271 37.3655 36.1818 37.4748 36.1013 37.5553C36.0207 37.6359 35.9114 37.6812 35.7974 37.6812ZM27.1212 37.6812H22.0827C21.9687 37.6812 21.8594 37.6359 21.7788 37.5553C21.6982 37.4748 21.653 37.3655 21.653 37.2515C21.653 37.1376 21.6982 37.0283 21.7788 36.9477C21.8594 36.8671 21.9687 36.8218 22.0827 36.8218H27.1212C27.2351 36.8218 27.3444 36.8671 27.425 36.9477C27.5056 37.0283 27.5509 37.1376 27.5509 37.2515C27.5509 37.3655 27.5056 37.4748 27.425 37.5553C27.3444 37.6359 27.2351 37.6812 27.1212 37.6812ZM11.9609 36.1541C11.9045 36.1541 11.8487 36.1429 11.7967 36.1212C11.7446 36.0995 11.6973 36.0678 11.6576 36.0278L10.4476 34.8178C10.4065 34.7781 10.3738 34.7307 10.3513 34.6783C10.3288 34.6259 10.3169 34.5695 10.3164 34.5124C10.3159 34.4554 10.3268 34.3988 10.3484 34.346C10.37 34.2932 10.4019 34.2452 10.4423 34.2049C10.4826 34.1645 10.5306 34.1326 10.5834 34.111C10.6362 34.0894 10.6928 34.0785 10.7498 34.079C10.8069 34.0795 10.8633 34.0914 10.9157 34.1139C10.9681 34.1364 11.0155 34.1691 11.0552 34.2102L11.9609 35.1168L15.1741 31.9036C15.2138 31.8626 15.2612 31.8298 15.3136 31.8073C15.366 31.7848 15.4224 31.773 15.4795 31.7725C15.5365 31.772 15.5931 31.7828 15.6459 31.8044C15.6987 31.826 15.7467 31.858 15.7871 31.8983C15.8274 31.9386 15.8593 31.9866 15.8809 32.0394C15.9025 32.0922 15.9134 32.1488 15.9129 32.2059C15.9124 32.2629 15.9005 32.3193 15.878 32.3717C15.8555 32.4241 15.8228 32.4716 15.7817 32.5112L12.2652 36.0278C12.2253 36.0679 12.1779 36.0997 12.1257 36.1214C12.0735 36.1431 12.0175 36.1542 11.9609 36.1541ZM11.9609 49.6893C11.9045 49.6892 11.8487 49.678 11.7967 49.6564C11.7446 49.6347 11.6973 49.6029 11.6576 49.5629L10.4476 48.3529C10.4065 48.3133 10.3738 48.2659 10.3513 48.2134C10.3288 48.161 10.3169 48.1046 10.3164 48.0476C10.3159 47.9905 10.3268 47.934 10.3484 47.8811C10.37 47.8283 10.4019 47.7804 10.4423 47.74C10.4826 47.6997 10.5306 47.6678 10.5834 47.6462C10.6362 47.6246 10.6928 47.6137 10.7498 47.6142C10.8069 47.6147 10.8633 47.6265 10.9157 47.6491C10.9681 47.6716 11.0155 47.7043 11.0552 47.7453L11.9609 48.652L15.1741 45.4388C15.2138 45.3977 15.2612 45.365 15.3136 45.3425C15.366 45.32 15.4224 45.3081 15.4795 45.3076C15.5365 45.3071 15.5931 45.318 15.6459 45.3396C15.6987 45.3612 15.7467 45.3931 15.7871 45.4335C15.8274 45.4738 15.8593 45.5218 15.8809 45.5746C15.9025 45.6274 15.9134 45.684 15.9129 45.741C15.9124 45.7981 15.9005 45.8545 15.878 45.9069C15.8555 45.9593 15.8228 46.0067 15.7817 46.0464L12.2652 49.5629C12.2253 49.603 12.1779 49.6348 12.1257 49.6565C12.0735 49.6782 12.0175 49.6893 11.9609 49.6893Z" fill="white"/>
</g>
<g clip-path="url(#clip2_2270_6978)">
<path d="M42.4109 31.3546H27.5472C27.4332 31.3546 27.3239 31.3093 27.2434 31.2287C27.1628 31.1481 27.1175 31.0388 27.1175 30.9249C27.1175 30.8109 27.1628 30.7016 27.2434 30.621C27.3239 30.5405 27.4332 30.4952 27.5472 30.4952H42.4109C42.5249 30.4952 42.6342 30.5405 42.7148 30.621C42.7954 30.7016 42.8406 30.8109 42.8406 30.9249C42.8406 31.0388 42.7954 31.1481 42.7148 31.2287C42.6342 31.3093 42.5249 31.3546 42.4109 31.3546ZM25.0842 31.3546H21.9492C21.8353 31.3546 21.726 31.3093 21.6454 31.2287C21.5648 31.1481 21.5195 31.0388 21.5195 30.9249C21.5195 30.8109 21.5648 30.7016 21.6454 30.621C21.726 30.5405 21.8353 30.4952 21.9492 30.4952H25.0842C25.1982 30.4952 25.3075 30.5405 25.3881 30.621C25.4686 30.7016 25.5139 30.8109 25.5139 30.9249C25.5139 31.0388 25.4686 31.1481 25.3881 31.2287C25.3075 31.3093 25.1982 31.3546 25.0842 31.3546ZM42.4109 34.6408H36C35.886 34.6408 35.7767 34.5955 35.6962 34.515C35.6156 34.4344 35.5703 34.3251 35.5703 34.2111C35.5703 34.0972 35.6156 33.9879 35.6962 33.9073C35.7767 33.8267 35.886 33.7814 36 33.7814H42.4109C42.5249 33.7814 42.6342 33.8267 42.7148 33.9073C42.7954 33.9879 42.8406 34.0972 42.8406 34.2111C42.8406 34.3251 42.7954 34.4344 42.7148 34.515C42.6342 34.5955 42.5249 34.6408 42.4109 34.6408ZM32.9776 34.6408H21.9492C21.8353 34.6408 21.726 34.5955 21.6454 34.515C21.5648 34.4344 21.5195 34.3251 21.5195 34.2111C21.5195 34.0972 21.5648 33.9879 21.6454 33.9073C21.726 33.8267 21.8353 33.7814 21.9492 33.7814H32.9776C33.0915 33.7814 33.2008 33.8267 33.2814 33.9073C33.362 33.9879 33.4073 34.0972 33.4073 34.2111C33.4073 34.3251 33.362 34.4344 33.2814 34.515C33.2008 34.5955 33.0915 34.6408 32.9776 34.6408ZM35.664 37.9262H29.4507C29.3367 37.9262 29.2275 37.8809 29.1469 37.8003C29.0663 37.7198 29.021 37.6105 29.021 37.4965C29.021 37.3826 29.0663 37.2733 29.1469 37.1927C29.2275 37.1121 29.3367 37.0668 29.4507 37.0668H35.664C35.7779 37.0668 35.8872 37.1121 35.9678 37.1927C36.0484 37.2733 36.0937 37.3826 36.0937 37.4965C36.0937 37.6105 36.0484 37.7198 35.9678 37.8003C35.8872 37.8809 35.7779 37.9262 35.664 37.9262ZM26.9877 37.9262H21.9492C21.8353 37.9262 21.726 37.8809 21.6454 37.8003C21.5648 37.7198 21.5195 37.6105 21.5195 37.4965C21.5195 37.3826 21.5648 37.2733 21.6454 37.1927C21.726 37.1121 21.8353 37.0668 21.9492 37.0668H26.9877C27.1017 37.0668 27.211 37.1121 27.2916 37.1927C27.3722 37.2733 27.4174 37.3826 27.4174 37.4965C27.4174 37.6105 27.3722 37.7198 27.2916 37.8003C27.211 37.8809 27.1017 37.9262 26.9877 37.9262ZM42.4109 17.8194H27.5472C27.4332 17.8194 27.3239 17.7741 27.2434 17.6935C27.1628 17.613 27.1175 17.5037 27.1175 17.3897C27.1175 17.2757 27.1628 17.1665 27.2434 17.0859C27.3239 17.0053 27.4332 16.96 27.5472 16.96H42.4109C42.5249 16.96 42.6342 17.0053 42.7148 17.0859C42.7954 17.1665 42.8406 17.2757 42.8406 17.3897C42.8406 17.5037 42.7954 17.613 42.7148 17.6935C42.6342 17.7741 42.5249 17.8194 42.4109 17.8194ZM25.0842 17.8194H21.9492C21.8353 17.8194 21.726 17.7741 21.6454 17.6935C21.5648 17.613 21.5195 17.5037 21.5195 17.3897C21.5195 17.2757 21.5648 17.1665 21.6454 17.0859C21.726 17.0053 21.8353 16.96 21.9492 16.96H25.0842C25.1982 16.96 25.3075 17.0053 25.3881 17.0859C25.4686 17.1665 25.5139 17.2757 25.5139 17.3897C25.5139 17.5037 25.4686 17.613 25.3881 17.6935C25.3075 17.7741 25.1982 17.8194 25.0842 17.8194ZM42.4109 21.1056H36C35.886 21.1056 35.7767 21.0604 35.6962 20.9798C35.6156 20.8992 35.5703 20.7899 35.5703 20.676C35.5703 20.562 35.6156 20.4527 35.6962 20.3721C35.7767 20.2915 35.886 20.2463 36 20.2463H42.4109C42.5249 20.2463 42.6342 20.2915 42.7148 20.3721C42.7954 20.4527 42.8406 20.562 42.8406 20.676C42.8406 20.7899 42.7954 20.8992 42.7148 20.9798C42.6342 21.0604 42.5249 21.1056 42.4109 21.1056ZM32.9776 21.1056H21.9492C21.8353 21.1056 21.726 21.0604 21.6454 20.9798C21.5648 20.8992 21.5195 20.7899 21.5195 20.676C21.5195 20.562 21.5648 20.4527 21.6454 20.3721C21.726 20.2915 21.8353 20.2463 21.9492 20.2463H32.9776C33.0915 20.2463 33.2008 20.2915 33.2814 20.3721C33.362 20.4527 33.4073 20.562 33.4073 20.676C33.4073 20.7899 33.362 20.8992 33.2814 20.9798C33.2008 21.0604 33.0915 21.1056 32.9776 21.1056ZM35.664 24.391H29.4507C29.3367 24.391 29.2275 24.3458 29.1469 24.2652C29.0663 24.1846 29.021 24.0753 29.021 23.9614C29.021 23.8474 29.0663 23.7381 29.1469 23.6575C29.2275 23.5769 29.3367 23.5317 29.4507 23.5317H35.664C35.7779 23.5317 35.8872 23.5769 35.9678 23.6575C36.0484 23.7381 36.0937 23.8474 36.0937 23.9614C36.0937 24.0753 36.0484 24.1846 35.9678 24.2652C35.8872 24.3458 35.7779 24.391 35.664 24.391ZM26.9877 24.391H21.9492C21.8353 24.391 21.726 24.3458 21.6454 24.2652C21.5648 24.1846 21.5195 24.0753 21.5195 23.9614C21.5195 23.8474 21.5648 23.7381 21.6454 23.6575C21.726 23.5769 21.8353 23.5317 21.9492 23.5317H26.9877C27.1017 23.5317 27.211 23.5769 27.2916 23.6575C27.3722 23.7381 27.4174 23.8474 27.4174 23.9614C27.4174 24.0753 27.3722 24.1846 27.2916 24.2652C27.211 24.3458 27.1017 24.391 26.9877 24.391Z" fill="#262626"/>
</g>
<path d="M46.7021 37.8613L48.9017 35.6365L51.4334 38.1391L49.2332 40.3639L46.7021 37.8613Z" fill="#262626"/>
<path d="M52.8629 37.7694L59.5476 44.3803C59.8429 44.6717 59.8474 45.145 59.5554 45.4403L56.7777 48.2504C56.7083 48.3205 56.6257 48.3763 56.5347 48.4145C56.4438 48.4527 56.3462 48.4726 56.2475 48.4731C56.1488 48.4736 56.051 48.4546 55.9597 48.4173C55.8683 48.38 55.7852 48.325 55.7151 48.2556L49.0298 41.6447C48.9597 41.5754 48.904 41.493 48.8659 41.4022C48.8278 41.3114 48.808 41.214 48.8076 41.1155C48.8073 41.017 48.8264 40.9194 48.8638 40.8283C48.9013 40.7372 48.9563 40.6545 49.0259 40.5847L51.8043 37.7752C51.8732 37.705 51.9554 37.6491 52.046 37.6108C52.1367 37.5725 52.234 37.5525 52.3324 37.552C52.4308 37.5514 52.5283 37.5703 52.6194 37.6077C52.7104 37.645 52.7932 37.7 52.8629 37.7694Z" fill="#FFD86B"/>
<path d="M50.3242 42.9286L54.1561 39.0527L58.2411 43.0918L54.4093 46.967L50.3242 42.9286Z" fill="#262626"/>
<path d="M41.7564 40.5128C47.1447 40.5128 51.5128 36.1447 51.5128 30.7564C51.5128 25.3681 47.1447 21 41.7564 21C36.3681 21 32 25.3681 32 30.7564C32 36.1447 36.3681 40.5128 41.7564 40.5128Z" fill="#4054F9"/>
<path d="M41.756 37.5027C45.4818 37.5027 48.5022 34.4823 48.5022 30.7564C48.5022 27.0306 45.4818 24.0102 41.756 24.0102C38.0302 24.0102 35.0098 27.0306 35.0098 30.7564C35.0098 34.4823 38.0302 37.5027 41.756 37.5027Z" fill="white"/>
<defs>
<clipPath id="clip0_2270_6978">
<rect width="6.512" height="6.512" fill="white" transform="translate(10.0039 17.1862)"/>
</clipPath>
<clipPath id="clip1_2270_6978">
<rect width="6.512" height="6.512" fill="white" transform="translate(10.0039 30.2103)"/>
</clipPath>
<clipPath id="clip2_2270_6978">
<rect width="22.3269" height="8.37257" fill="white" transform="translate(21.168 16.256)"/>
</clipPath>
</defs>
</svg>
