<svg width="60" height="60" viewBox="0 0 60 60" fill="none" xmlns="http://www.w3.org/2000/svg">
<g id="Frame">
<g id="Group">
<path id="Vector" d="M44.1523 5.06832V46.1279L32.0975 58.1914H5.06832C3.37244 58.1914 2 56.819 2 55.1318V5.06832C2 3.37244 3.37244 2 5.06832 2H41.0927C42.7799 2 44.1523 3.37244 44.1523 5.06832Z" fill="#DEE9FF"/>
<path id="Vector_2" d="M44.1524 46.1277L32.0977 58.1912V48.2957C32.0977 47.7207 32.3261 47.1693 32.7326 46.7627C33.1392 46.3562 33.6906 46.1277 34.2656 46.1277H44.1524Z" fill="#262626"/>
<path id="Vector_3" d="M39.6684 32.5259V41.8445C39.6684 42.7187 38.9603 43.4268 38.0949 43.4268H7.45534C6.58991 43.4268 5.88184 42.7187 5.88184 41.8445V32.5259C5.88184 31.6517 6.58991 30.9437 7.45534 30.9437H38.0949C38.9603 30.9437 39.6684 31.6517 39.6684 32.5259Z" fill="#4054F9"/>
<path id="Vector_4" d="M14.2526 20.8462H5.88337C5.76745 20.8462 5.65628 20.8001 5.57431 20.7181C5.49234 20.6362 5.44629 20.525 5.44629 20.4091C5.44629 20.2931 5.49234 20.182 5.57431 20.1C5.65628 20.018 5.76745 19.972 5.88337 19.972H14.2526C14.3686 19.972 14.4797 20.018 14.5617 20.1C14.6437 20.182 14.6897 20.2931 14.6897 20.4091C14.6897 20.525 14.6437 20.6362 14.5617 20.7181C14.4797 20.8001 14.3686 20.8462 14.2526 20.8462ZM14.2526 24.3245H5.88337C5.76745 24.3245 5.65628 24.2784 5.57431 24.1964C5.49234 24.1145 5.44629 24.0033 5.44629 23.8874C5.44629 23.7715 5.49234 23.6603 5.57431 23.5783C5.65628 23.4963 5.76745 23.4503 5.88337 23.4503H14.2526C14.3686 23.4503 14.4797 23.4963 14.5617 23.5783C14.6437 23.6603 14.6897 23.7715 14.6897 23.8874C14.6897 24.0033 14.6437 24.1145 14.5617 24.1964C14.4797 24.2784 14.3686 24.3245 14.2526 24.3245ZM14.2526 27.8036H5.88337C5.76745 27.8036 5.65628 27.7576 5.57431 27.6756C5.49234 27.5937 5.44629 27.4825 5.44629 27.3666C5.44629 27.2506 5.49234 27.1395 5.57431 27.0575C5.65628 26.9755 5.76745 26.9295 5.88337 26.9295H14.2526C14.3686 26.9295 14.4797 26.9755 14.5617 27.0575C14.6437 27.1395 14.6897 27.2506 14.6897 27.3666C14.6897 27.4825 14.6437 27.5937 14.5617 27.6756C14.4797 27.7576 14.3686 27.8036 14.2526 27.8036Z" fill="#262626"/>
<path id="Vector_5" d="M14.2563 7.89187V14.8677C14.2563 15.7331 13.557 16.4412 12.6828 16.4412H7.45534C6.58991 16.4412 5.88184 15.7331 5.88184 14.8677V7.89187C5.88184 7.01771 6.58991 6.30963 7.45534 6.30963H12.6828C13.557 6.30963 14.2563 7.01771 14.2563 7.89187ZM40.2715 7.89187V14.8677C40.2715 15.7331 39.5635 16.4412 38.6893 16.4412H33.4793C32.6051 16.4412 31.897 15.7331 31.897 14.8677V7.89187C31.897 7.01771 32.6051 6.30963 33.4793 6.30963H38.6893C39.5635 6.30963 40.2715 7.01771 40.2715 7.89187ZM27.2639 7.89187V14.8677C27.2639 15.7331 26.5559 16.4412 25.6904 16.4412H20.4629C19.6062 16.4412 18.8982 15.7331 18.8982 14.8677V7.89187C18.8982 7.01771 19.6062 6.30963 20.4629 6.30963H25.6904C26.5559 6.30963 27.2639 7.01771 27.2639 7.89187Z" fill="#262626"/>
<path id="Vector_6" d="M27.2611 20.8462H18.8927C18.7768 20.8462 18.6656 20.8001 18.5836 20.7181C18.5017 20.6362 18.4556 20.525 18.4556 20.4091C18.4556 20.2931 18.5017 20.182 18.5836 20.1C18.6656 20.018 18.7768 19.972 18.8927 19.972H27.2611C27.377 19.972 27.4882 20.018 27.5702 20.1C27.6521 20.182 27.6982 20.2931 27.6982 20.4091C27.6982 20.525 27.6521 20.6362 27.5702 20.7181C27.4882 20.8001 27.377 20.8462 27.2611 20.8462ZM27.2611 24.3245H18.8927C18.7768 24.3245 18.6656 24.2784 18.5836 24.1964C18.5017 24.1145 18.4556 24.0033 18.4556 23.8874C18.4556 23.7715 18.5017 23.6603 18.5836 23.5783C18.6656 23.4963 18.7768 23.4503 18.8927 23.4503H27.2611C27.377 23.4503 27.4882 23.4963 27.5702 23.5783C27.6521 23.6603 27.6982 23.7715 27.6982 23.8874C27.6982 24.0033 27.6521 24.1145 27.5702 24.1964C27.4882 24.2784 27.377 24.3245 27.2611 24.3245ZM27.2611 27.8036H18.8927C18.7768 27.8036 18.6656 27.7576 18.5836 27.6756C18.5017 27.5937 18.4556 27.4825 18.4556 27.3666C18.4556 27.2506 18.5017 27.1395 18.5836 27.0575C18.6656 26.9755 18.7768 26.9295 18.8927 26.9295H27.2611C27.377 26.9295 27.4882 26.9755 27.5702 27.0575C27.6521 27.1395 27.6982 27.2506 27.6982 27.3666C27.6982 27.4825 27.6521 27.5937 27.5702 27.6756C27.4882 27.7576 27.377 27.8036 27.2611 27.8036ZM40.2661 20.8462H31.8977C31.7818 20.8462 31.6706 20.8001 31.5886 20.7181C31.5067 20.6362 31.4606 20.525 31.4606 20.4091C31.4606 20.2931 31.5067 20.182 31.5886 20.1C31.6706 20.018 31.7818 19.972 31.8977 19.972H40.2661C40.382 19.972 40.4932 20.018 40.5751 20.1C40.6571 20.182 40.7032 20.2931 40.7032 20.4091C40.7032 20.525 40.6571 20.6362 40.5751 20.7181C40.4932 20.8001 40.382 20.8462 40.2661 20.8462ZM40.2661 24.3245H31.8977C31.7818 24.3245 31.6706 24.2784 31.5886 24.1964C31.5067 24.1145 31.4606 24.0033 31.4606 23.8874C31.4606 23.7715 31.5067 23.6603 31.5886 23.5783C31.6706 23.4963 31.7818 23.4503 31.8977 23.4503H40.2661C40.382 23.4503 40.4932 23.4963 40.5751 23.5783C40.6571 23.6603 40.7032 23.7715 40.7032 23.8874C40.7032 24.0033 40.6571 24.1145 40.5751 24.1964C40.4932 24.2784 40.382 24.3245 40.2661 24.3245ZM40.2661 27.8036H31.8977C31.7818 27.8036 31.6706 27.7576 31.5886 27.6756C31.5067 27.5937 31.4606 27.4825 31.4606 27.3666C31.4606 27.2506 31.5067 27.1395 31.5886 27.0575C31.6706 26.9755 31.7818 26.9295 31.8977 26.9295H40.2661C40.382 26.9295 40.4932 26.9755 40.5751 27.0575C40.6571 27.1395 40.7032 27.2506 40.7032 27.3666C40.7032 27.4825 40.6571 27.5937 40.5751 27.6756C40.4932 27.7576 40.382 27.8036 40.2661 27.8036ZM28.3337 48.6761H5.88337C5.76745 48.6761 5.65628 48.6301 5.57431 48.5481C5.49234 48.4661 5.44629 48.3549 5.44629 48.239C5.44629 48.1231 5.49234 48.0119 5.57431 47.93C5.65628 47.848 5.76745 47.8019 5.88337 47.8019H28.3337C28.4496 47.8019 28.5608 47.848 28.6428 47.93C28.7247 48.0119 28.7708 48.1231 28.7708 48.239C28.7708 48.3549 28.7247 48.4661 28.6428 48.5481C28.5608 48.6301 28.4496 48.6761 28.3337 48.6761ZM18.0185 53.4893H5.88337C5.76745 53.4893 5.65628 53.4432 5.57431 53.3612C5.49234 53.2793 5.44629 53.1681 5.44629 53.0522C5.44629 52.9363 5.49234 52.8251 5.57431 52.7431C5.65628 52.6611 5.76745 52.6151 5.88337 52.6151H18.0185C18.1345 52.6151 18.2456 52.6611 18.3276 52.7431C18.4096 52.8251 18.4556 52.9363 18.4556 53.0522C18.4556 53.1681 18.4096 53.2793 18.3276 53.3612C18.2456 53.4432 18.1345 53.4893 18.0185 53.4893Z" fill="#262626"/>
<path id="Vector_7" d="M57.0201 14.3608L56.9851 50.3065L52.6318 50.2977H51.7576L47.3955 50.289L47.4305 14.352C47.4305 13.1282 48.4183 12.1404 49.6421 12.1404L54.8084 12.1491C56.0235 12.1491 57.0201 13.1369 57.0201 14.3608Z" fill="#4054F9"/>
<path id="Vector_8" d="M57.0212 14.3608L57.0125 18.2333L47.4229 18.2246L47.4316 14.352C47.4316 13.1282 48.4194 12.1404 49.6432 12.1404L54.8096 12.1491C56.0246 12.1491 57.0212 13.1369 57.0212 14.3608Z" fill="#262626"/>
<path id="Vector_9" d="M47.4141 20.8627L47.4167 18.2227L57.0045 18.2323L57.0019 20.8723L47.4141 20.8627Z" fill="#F0F7FF"/>
<path id="Vector_10" d="M56.9834 50.3037L53.5086 57.3722C52.9613 58.4711 51.3983 58.4684 50.8537 57.3687L47.3955 50.2924L56.9834 50.3037Z" fill="#FFD86B"/>
<path id="Vector_11" d="M49.9658 55.5505L50.8548 57.3688C51.3995 58.4685 52.9625 58.4702 53.5097 57.3723L54.4031 55.5558L49.9658 55.5505Z" fill="#262626"/>
<path id="Vector_12" d="M52.6407 29.9383L52.632 50.2976H51.7578L51.7666 29.9383C51.7666 29.7023 51.9676 29.5012 52.2036 29.5012C52.4484 29.5012 52.6407 29.7023 52.6407 29.9383Z" fill="#262626"/>
</g>
</g>
</svg>
