<svg width="18" height="18" viewBox="0 0 18 18" fill="none" xmlns="http://www.w3.org/2000/svg">
<g id="phone-call 1" clip-path="url(#clip0_2270_8009)">
<g id="Group">
<g id="Group_2">
<path id="Vector" d="M14.2243 11.1502C13.8558 10.7665 13.4113 10.5614 12.9402 10.5614C12.473 10.5614 12.0247 10.7627 11.641 11.1464L10.4405 12.3431C10.3417 12.2899 10.2429 12.2406 10.1479 12.1912C10.0112 12.1228 9.88202 12.0582 9.77185 11.9898C8.64734 11.2756 7.6254 10.3448 6.64525 9.14055C6.17037 8.5403 5.85125 8.03503 5.61951 7.52216C5.93103 7.23723 6.21976 6.94091 6.50089 6.65598C6.60726 6.54961 6.71363 6.43944 6.82 6.33306C7.6178 5.53527 7.6178 4.50193 6.82 3.70414L5.78287 2.667C5.6651 2.54923 5.54353 2.42766 5.42956 2.30609C5.20162 2.07055 4.96228 1.82741 4.71535 1.59947C4.34684 1.23477 3.90615 1.04102 3.44267 1.04102C2.97919 1.04102 2.53091 1.23477 2.15101 1.59947C2.14721 1.60327 2.14721 1.60327 2.14341 1.60707L0.851739 2.91014C0.365464 3.39641 0.0881355 3.98906 0.0273512 4.67669C-0.0638254 5.786 0.262891 6.81934 0.513626 7.49557C1.12907 9.15574 2.04843 10.6944 3.41988 12.3431C5.08385 14.33 7.08594 15.899 9.37295 17.0045C10.2467 17.4186 11.413 17.9087 12.7161 17.9923C12.7959 17.9961 12.8794 17.9999 12.9554 17.9999C13.833 17.9999 14.57 17.6846 15.1475 17.0577C15.1513 17.0501 15.1589 17.0463 15.1627 17.0387C15.3602 16.7994 15.5882 16.5828 15.8275 16.3511C15.9908 16.1953 16.158 16.032 16.3214 15.861C16.6975 15.4697 16.895 15.0138 16.895 14.5466C16.895 14.0755 16.6937 13.6234 16.31 13.2435L14.2243 11.1502ZM15.5844 15.1506C15.5806 15.1506 15.5806 15.1544 15.5844 15.1506C15.4362 15.3102 15.2842 15.4545 15.1209 15.6141C14.8739 15.8496 14.6232 16.0966 14.3877 16.3739C14.004 16.7842 13.5519 16.9779 12.9592 16.9779C12.9022 16.9779 12.8415 16.9779 12.7845 16.9741C11.6562 16.902 10.6076 16.4613 9.82123 16.0852C7.67099 15.0442 5.78287 13.5664 4.21387 11.6935C2.91841 10.1321 2.05223 8.68846 1.47858 7.13846C1.12527 6.1925 0.996102 5.45549 1.05309 4.76027C1.09108 4.31578 1.26203 3.94727 1.57735 3.63195L2.87282 2.33648C3.05897 2.16173 3.25652 2.06675 3.45027 2.06675C3.68961 2.06675 3.88336 2.21112 4.00493 2.33269C4.00873 2.33648 4.01253 2.34028 4.01633 2.34408C4.24807 2.56063 4.46841 2.78477 4.70015 3.02411C4.81792 3.14568 4.93949 3.26725 5.06106 3.39262L6.09819 4.42975C6.50089 4.83245 6.50089 5.20475 6.09819 5.60745C5.98802 5.71762 5.88165 5.82779 5.77147 5.93417C5.45236 6.26088 5.14843 6.56481 4.81792 6.86113C4.81032 6.86873 4.80272 6.87253 4.79892 6.88013C4.47221 7.20684 4.53299 7.52596 4.60138 7.7425C4.60517 7.7539 4.60897 7.7653 4.61277 7.7767C4.8825 8.43013 5.2624 9.04557 5.83986 9.77878L5.84366 9.78258C6.89219 11.0743 7.9977 12.081 9.21719 12.8522C9.37295 12.951 9.53251 13.0308 9.68447 13.1067C9.82123 13.1751 9.9504 13.2397 10.0606 13.3081C10.0758 13.3157 10.091 13.3271 10.1062 13.3347C10.2353 13.3993 10.3569 13.4297 10.4823 13.4297C10.7976 13.4297 10.9951 13.2321 11.0597 13.1675L12.359 11.8683C12.4881 11.7391 12.6933 11.5833 12.9326 11.5833C13.1682 11.5833 13.3619 11.7315 13.4797 11.8607C13.4835 11.8645 13.4835 11.8645 13.4873 11.8683L15.5806 13.9615C15.9719 14.349 15.9719 14.7479 15.5844 15.1506Z" fill="#A0A0A0"/>
<path id="Vector_2" d="M9.72684 4.28108C10.7222 4.44824 11.6263 4.91931 12.3482 5.64113C13.07 6.36294 13.5373 7.26711 13.7082 8.26245C13.75 8.51319 13.9665 8.68794 14.2135 8.68794C14.2439 8.68794 14.2705 8.68414 14.3009 8.68035C14.582 8.63476 14.7681 8.36883 14.7225 8.0877C14.5174 6.88341 13.9475 5.78549 13.0776 4.91551C12.2076 4.04554 11.1097 3.47569 9.9054 3.27054C9.62427 3.22495 9.36214 3.4111 9.31275 3.68843C9.26336 3.96576 9.44572 4.23549 9.72684 4.28108Z" fill="#A0A0A0"/>
<path id="Vector_3" d="M17.9773 7.94018C17.6392 5.95709 16.7046 4.15255 15.2686 2.71652C13.8326 1.28049 12.028 0.345932 10.0449 0.00781895C9.7676 -0.0415683 9.50547 0.148383 9.45608 0.425712C9.41049 0.706839 9.59665 0.968972 9.87777 1.01836C11.6481 1.31848 13.2627 2.15807 14.5468 3.43834C15.8308 4.72241 16.6666 6.33699 16.9667 8.10734C17.0085 8.35807 17.2251 8.53283 17.472 8.53283C17.5024 8.53283 17.529 8.52903 17.5594 8.52523C17.8367 8.48344 18.0267 8.21751 17.9773 7.94018Z" fill="#A0A0A0"/>
</g>
</g>
</g>
<defs>
<clipPath id="clip0_2270_8009">
<rect width="18" height="18" fill="white"/>
</clipPath>
</defs>
</svg>
