<svg width="140" height="140" viewBox="0 0 140 140" fill="none" xmlns="http://www.w3.org/2000/svg">
<path d="M96.7699 17.6373V17.6376V123.269V123.27C96.7717 123.942 96.6406 124.608 96.3842 125.229C96.1278 125.851 95.7511 126.415 95.2759 126.89C94.8006 127.366 94.2361 127.742 93.6148 127.999C92.9935 128.255 92.3277 128.386 91.6555 128.384H91.6542H6.61569H6.61438C5.94226 128.386 5.27642 128.255 4.65512 127.999C4.03383 127.742 3.46933 127.366 2.99407 126.89C2.5188 126.415 2.14215 125.851 1.88575 125.229C1.62935 124.608 1.49826 123.942 1.50002 123.27V123.269L1.50002 17.6394L1.50002 17.6388C1.49825 16.2791 2.03612 14.9743 2.99553 14.0108C3.95477 13.0475 5.25702 12.5042 6.61644 12.5H91.6535C93.0123 12.5042 94.3141 13.047 95.2732 14.0096C96.2324 14.9722 96.7708 16.278 96.7699 17.6373ZM97.2699 17.6376V123.269V17.6376Z" fill="white" stroke="#262626"/>
<path d="M26.0228 20.2199H15.7503C15.5081 20.2199 15.2758 20.1237 15.1046 19.9525C14.9334 19.7812 14.8372 19.549 14.8372 19.3068C14.8372 19.0646 14.9334 18.8324 15.1046 18.6611C15.2758 18.4899 15.5081 18.3937 15.7503 18.3937H26.0228C26.265 18.3937 26.4973 18.4899 26.6685 18.6611C26.8397 18.8324 26.936 19.0646 26.936 19.3068C26.936 19.549 26.8397 19.7812 26.6685 19.9525C26.4973 20.1237 26.265 20.2199 26.0228 20.2199ZM11.8695 20.2199H8.30472C8.06254 20.2199 7.83029 20.1237 7.65905 19.9525C7.4878 19.7812 7.3916 19.549 7.3916 19.3068C7.3916 19.0646 7.4878 18.8324 7.65905 18.6611C7.83029 18.4899 8.06254 18.3937 8.30472 18.3937H11.8695C12.1117 18.3937 12.344 18.4899 12.5152 18.6611C12.6864 18.8324 12.7826 19.0646 12.7826 19.3068C12.7826 19.549 12.6864 19.7812 12.5152 19.9525C12.344 20.1237 12.1117 20.2199 11.8695 20.2199ZM17.1638 26.0839H8.30472C8.06254 26.0839 7.83029 25.9877 7.65905 25.8165C7.4878 25.6453 7.3916 25.413 7.3916 25.1708C7.3916 24.9287 7.4878 24.6964 7.65905 24.5252C7.83029 24.3539 8.06254 24.2577 8.30472 24.2577H17.162C17.4041 24.2577 17.6364 24.3539 17.8076 24.5252C17.9789 24.6964 18.0751 24.9287 18.0751 25.1708C18.0751 25.413 17.9789 25.6453 17.8076 25.8165C17.6364 25.9877 17.4059 26.0839 17.1638 26.0839Z" fill="#262626"/>
<path d="M67.8507 33.8564L62.9856 32.5707C62.7316 31.7515 62.4027 30.9573 62.0031 30.1984L64.5416 25.8629C64.6216 25.7261 64.6541 25.5666 64.634 25.4093C64.6138 25.2521 64.5422 25.1059 64.4302 24.9936L61.1101 21.6736C60.9983 21.5575 60.8509 21.4823 60.6914 21.4598C60.5318 21.4373 60.3694 21.4688 60.2299 21.5494L55.8834 24.0878L55.4762 23.887C55.0908 23.694 54.6944 23.5239 54.2891 23.3774C54.0298 23.277 53.7814 23.1966 53.5221 23.0962L52.2456 18.2384C52.2029 18.0858 52.1114 17.9514 51.985 17.8558C51.8587 17.7602 51.7046 17.7085 51.5461 17.7088H46.8363C46.5094 17.7088 46.2153 17.9243 46.1368 18.2384L46.1149 18.3078L45.9779 18.8374L45.777 19.6519L44.8603 23.0962C44.0442 23.3618 43.2514 23.694 42.4898 24.0897L38.1525 21.5494C38.013 21.4688 37.8505 21.4373 37.691 21.4598C37.5315 21.4823 37.3841 21.5575 37.2723 21.6736L35.1374 23.8066L34.3814 24.5645L33.9522 24.9936C33.8399 25.1057 33.7679 25.2517 33.7474 25.409C33.7269 25.5663 33.7591 25.7259 33.839 25.8629L36.1327 29.8039L36.1437 29.8259L36.3683 30.1984C36.3464 30.2441 36.3245 30.2769 36.3135 30.3226C35.9391 31.0458 35.636 31.8018 35.3986 32.5816L30.5317 33.8564C30.3771 33.8943 30.2398 33.9829 30.1414 34.108C30.0431 34.2331 29.9896 34.3876 29.9893 34.5467V39.2437C29.9893 39.5944 30.2139 39.8647 30.5317 39.9432L35.3986 41.2307C35.6469 42.0434 35.9738 42.8451 36.3811 43.592L33.839 47.9384C33.7591 48.0755 33.7269 48.2351 33.7474 48.3924C33.7679 48.5497 33.8399 48.6957 33.9522 48.8077L37.2723 52.1388C37.5097 52.3652 37.8713 52.4218 38.1525 52.252L42.4898 49.7117C42.625 49.7793 42.7601 49.8578 42.8953 49.9144C43.2915 50.1062 43.686 50.276 44.0933 50.4349C44.3416 50.5262 44.6009 50.6139 44.8603 50.6942L46.1368 55.5721C46.2153 55.888 46.5094 56.1017 46.8363 56.1017H51.5461C51.8748 56.1017 52.1561 55.888 52.2456 55.5721L53.5221 50.6942C54.3369 50.4392 55.1266 50.1103 55.8816 49.7117L55.8926 49.7227L56.5025 50.0843L56.8751 50.2979L59.2126 51.6548L60.2299 52.252C60.3112 52.2978 60.3985 52.3322 60.4892 52.3543C60.5923 52.3645 60.6964 52.3537 60.7953 52.3226C60.8941 52.2916 60.9857 52.2408 61.0644 52.1735C61.0817 52.1649 61.0972 52.1531 61.1101 52.1388L64.001 49.2369L64.4302 48.8077C64.5425 48.6957 64.6145 48.5497 64.6349 48.3924C64.6554 48.2351 64.6232 48.0755 64.5434 47.9384L62.2387 44.0084L62.0013 43.592C62.025 43.5464 62.047 43.5117 62.0579 43.4678C62.4323 42.7556 62.7482 41.9995 62.9856 41.2307L67.8507 39.9432C68.0073 39.9058 68.1463 39.8161 68.245 39.6889C68.3436 39.5617 68.3959 39.4047 68.3931 39.2437V34.5467C68.3928 34.3876 68.3392 34.2331 68.2409 34.108C68.1426 33.9829 68.0053 33.8943 67.8507 33.8564Z" fill="#B9B9B9"/>
<path d="M49.185 44.9745C53.645 44.9745 57.2606 41.3589 57.2606 36.8988C57.2606 32.4388 53.645 28.8232 49.185 28.8232C44.7249 28.8232 41.1094 32.4388 41.1094 36.8988C41.1094 41.3589 44.7249 44.9745 49.185 44.9745Z" fill="white"/>
<path d="M28.0843 76.9189V94.1001C28.0843 94.3036 28.0035 94.4987 27.8597 94.6425C27.7158 94.7863 27.5207 94.8672 27.3173 94.8672H20.3411C20.2402 94.8674 20.1403 94.8477 20.047 94.8093C19.9538 94.7709 19.869 94.7144 19.7976 94.6432C19.7261 94.5719 19.6695 94.4873 19.6308 94.3941C19.5922 94.3009 19.5723 94.201 19.5723 94.1001V76.9189C19.5723 76.8182 19.5921 76.7185 19.6307 76.6254C19.6692 76.5324 19.7257 76.4478 19.7969 76.3766C19.8681 76.3053 19.9527 76.2488 20.0458 76.2103C20.1388 76.1718 20.2386 76.1519 20.3393 76.1519H27.3155C27.4162 76.1519 27.516 76.1718 27.609 76.2103C27.7021 76.2488 27.7866 76.3053 27.8579 76.3766C27.9291 76.4478 27.9856 76.5324 28.0241 76.6254C28.0627 76.7185 28.0843 76.8182 28.0843 76.9189Z" fill="#515151"/>
<path d="M44.9935 62.9209V94.1002C44.9935 94.201 44.9736 94.3009 44.935 94.3941C44.8963 94.4873 44.8396 94.5719 44.7682 94.6432C44.6968 94.7144 44.612 94.7709 44.5188 94.8093C44.4255 94.8478 44.3256 94.8674 44.2247 94.8672H37.2485C37.045 94.8672 36.8499 94.7864 36.7061 94.6425C36.5623 94.4987 36.4814 94.3036 36.4814 94.1002V62.9209C36.4814 62.8202 36.5013 62.7204 36.5398 62.6274C36.5784 62.5343 36.6349 62.4497 36.7061 62.3785C36.7773 62.3073 36.8619 62.2508 36.9549 62.2123C37.048 62.1737 37.1477 62.1539 37.2485 62.1539H44.2247C44.3254 62.1539 44.4251 62.1737 44.5182 62.2123C44.6113 62.2508 44.6958 62.3073 44.767 62.3785C44.8383 62.4497 44.8948 62.5343 44.9333 62.6274C44.9719 62.7204 44.9935 62.8202 44.9935 62.9209Z" fill="#4054F9"/>
<path d="M61.9009 76.9189V94.1001C61.9009 94.2009 61.881 94.3006 61.8425 94.3937C61.8039 94.4867 61.7474 94.5713 61.6762 94.6425C61.605 94.7137 61.5204 94.7702 61.4274 94.8088C61.3343 94.8473 61.2346 94.8672 61.1339 94.8672H54.1576C53.9542 94.8672 53.7591 94.7863 53.6153 94.6425C53.4714 94.4987 53.3906 94.3036 53.3906 94.1001V76.9189C53.3906 76.8182 53.4105 76.7185 53.449 76.6254C53.4876 76.5324 53.5441 76.4478 53.6153 76.3766C53.6865 76.3053 53.7711 76.2488 53.8641 76.2103C53.9572 76.1718 54.0569 76.1519 54.1576 76.1519H61.1339C61.2346 76.1519 61.3343 76.1718 61.4274 76.2103C61.5204 76.2488 61.605 76.3053 61.6762 76.3766C61.7474 76.4478 61.8039 76.5324 61.8425 76.6254C61.881 76.7185 61.9009 76.8182 61.9009 76.9189Z" fill="#515151"/>
<path d="M78.8105 60.8207V94.1002C78.8105 94.3036 78.7297 94.4987 78.5858 94.6425C78.442 94.7864 78.2469 94.8672 78.0435 94.8672H71.0673C70.8638 94.8672 70.6687 94.7864 70.5249 94.6425C70.381 94.4987 70.3002 94.3036 70.3002 94.1002V60.8207C70.3002 60.6173 70.381 60.4222 70.5249 60.2784C70.6687 60.1345 70.8638 60.0537 71.0673 60.0537H78.0435C78.2469 60.0537 78.442 60.1345 78.5858 60.2784C78.7297 60.4222 78.8105 60.6173 78.8105 60.8207ZM30.2984 103.807V117.896C30.2984 119.527 28.9781 120.847 27.3472 120.847H13.2578C12.4751 120.847 11.7245 120.536 11.171 119.983C10.6176 119.429 10.3066 118.679 10.3066 117.896V103.808C10.3066 102.179 11.6288 100.857 13.2578 100.857H27.3472C28.9781 100.857 30.2984 102.178 30.2984 103.807Z" fill="#4054F9"/>
<path d="M87.9606 104.46H72.2003C71.9581 104.46 71.7258 104.364 71.5546 104.193C71.3833 104.022 71.2871 103.789 71.2871 103.547C71.2871 103.305 71.3833 103.073 71.5546 102.902C71.7258 102.73 71.9581 102.634 72.2003 102.634H87.9606C88.2028 102.634 88.4351 102.73 88.6063 102.902C88.7776 103.073 88.8738 103.305 88.8738 103.547C88.8738 103.789 88.7776 104.022 88.6063 104.193C88.4351 104.364 88.2028 104.46 87.9606 104.46ZM66.2741 104.46H40.3654C40.1232 104.46 39.8909 104.364 39.7197 104.193C39.5484 104.022 39.4522 103.789 39.4522 103.547C39.4522 103.305 39.5484 103.073 39.7197 102.902C39.8909 102.73 40.1232 102.634 40.3654 102.634H66.2741C66.5163 102.634 66.7486 102.73 66.9198 102.902C67.091 103.073 67.1872 103.305 67.1872 103.547C67.1872 103.789 67.091 104.022 66.9198 104.193C66.7486 104.364 66.5163 104.46 66.2741 104.46ZM87.9606 111.765H77.1183C76.8761 111.765 76.6439 111.669 76.4726 111.498C76.3014 111.327 76.2052 111.094 76.2052 110.852C76.2052 110.61 76.3014 110.378 76.4726 110.207C76.6439 110.035 76.8761 109.939 77.1183 109.939H87.9606C88.2028 109.939 88.4351 110.035 88.6063 110.207C88.7776 110.378 88.8738 110.61 88.8738 110.852C88.8738 111.094 88.7776 111.327 88.6063 111.498C88.4351 111.669 88.2028 111.765 87.9606 111.765ZM72.2003 111.765H51.0342C50.792 111.765 50.5598 111.669 50.3885 111.498C50.2173 111.327 50.1211 111.094 50.1211 110.852C50.1211 110.61 50.2173 110.378 50.3885 110.207C50.5598 110.035 50.792 109.939 51.0342 109.939H72.2003C72.4424 109.939 72.6747 110.035 72.8459 110.207C73.0172 110.378 73.1134 110.61 73.1134 110.852C73.1134 111.094 73.0172 111.327 72.8459 111.498C72.6747 111.669 72.4424 111.765 72.2003 111.765ZM44.8159 111.765H40.3654C40.1232 111.765 39.8909 111.669 39.7197 111.498C39.5484 111.327 39.4522 111.094 39.4522 110.852C39.4522 110.61 39.5484 110.378 39.7197 110.207C39.8909 110.035 40.1232 109.939 40.3654 109.939H44.8159C45.0581 109.939 45.2903 110.035 45.4616 110.207C45.6328 110.378 45.729 110.61 45.729 110.852C45.729 111.094 45.6328 111.327 45.4616 111.498C45.2903 111.669 45.0581 111.765 44.8159 111.765ZM73.3508 119.07H40.3654C40.1232 119.07 39.8909 118.974 39.7197 118.803C39.5484 118.632 39.4522 118.399 39.4522 118.157C39.4522 117.915 39.5484 117.683 39.7197 117.511C39.8909 117.34 40.1232 117.244 40.3654 117.244H73.3508C73.593 117.244 73.8252 117.34 73.9965 117.511C74.1677 117.683 74.2639 117.915 74.2639 118.157C74.2639 118.399 74.1677 118.632 73.9965 118.803C73.8252 118.974 73.593 119.07 73.3508 119.07ZM17.9794 115.533C17.8595 115.533 17.7409 115.509 17.6303 115.463C17.5196 115.417 17.4192 115.349 17.3347 115.264L14.4438 112.373C14.3566 112.289 14.287 112.188 14.2392 112.077C14.1913 111.966 14.1661 111.846 14.1651 111.725C14.164 111.603 14.1871 111.483 14.233 111.371C14.2789 111.259 14.3468 111.157 14.4325 111.071C14.5182 110.985 14.6202 110.917 14.7324 110.872C14.8446 110.826 14.9648 110.803 15.0861 110.804C15.2073 110.805 15.3272 110.83 15.4386 110.878C15.55 110.926 15.6507 110.995 15.735 111.082L17.9812 113.329L24.8679 106.44C24.9522 106.353 25.0529 106.283 25.1643 106.235C25.2757 106.188 25.3956 106.162 25.5168 106.161C25.638 106.16 25.7583 106.183 25.8705 106.229C25.9827 106.275 26.0847 106.343 26.1704 106.429C26.2561 106.514 26.3239 106.616 26.3699 106.729C26.4158 106.841 26.4389 106.961 26.4378 107.082C26.4368 107.204 26.4116 107.323 26.3637 107.435C26.3159 107.546 26.2463 107.647 26.1591 107.731L18.6259 115.264C18.541 115.349 18.4402 115.417 18.3293 115.462C18.2183 115.508 18.0994 115.533 17.9794 115.533Z" fill="#262626"/>
<g clip-path="url(#clip0_2270_7397)">
<path d="M87.9616 104.46H72.2012C71.9591 104.46 71.7268 104.364 71.5556 104.193C71.3843 104.022 71.2881 103.789 71.2881 103.547C71.2881 103.305 71.3843 103.073 71.5556 102.902C71.7268 102.73 71.9591 102.634 72.2012 102.634H87.9616C88.2038 102.634 88.4361 102.73 88.6073 102.902C88.7785 103.073 88.8747 103.305 88.8747 103.547C88.8747 103.789 88.7785 104.022 88.6073 104.193C88.4361 104.364 88.2038 104.46 87.9616 104.46ZM66.2751 104.46H40.3663C40.1242 104.46 39.8919 104.364 39.7207 104.193C39.5494 104.022 39.4532 103.789 39.4532 103.547C39.4532 103.305 39.5494 103.073 39.7207 102.902C39.8919 102.73 40.1242 102.634 40.3663 102.634H66.2751C66.5173 102.634 66.7495 102.73 66.9208 102.902C67.092 103.073 67.1882 103.305 67.1882 103.547C67.1882 103.789 67.092 104.022 66.9208 104.193C66.7495 104.364 66.5173 104.46 66.2751 104.46ZM87.9616 111.765H77.1193C76.8771 111.765 76.6449 111.669 76.4736 111.498C76.3024 111.327 76.2062 111.094 76.2062 110.852C76.2062 110.61 76.3024 110.378 76.4736 110.207C76.6449 110.035 76.8771 109.939 77.1193 109.939H87.9616C88.2038 109.939 88.4361 110.035 88.6073 110.207C88.7785 110.378 88.8747 110.61 88.8747 110.852C88.8747 111.094 88.7785 111.327 88.6073 111.498C88.4361 111.669 88.2038 111.765 87.9616 111.765ZM72.2012 111.765H51.0352C50.793 111.765 50.5608 111.669 50.3895 111.498C50.2183 111.327 50.1221 111.094 50.1221 110.852C50.1221 110.61 50.2183 110.378 50.3895 110.207C50.5608 110.035 50.793 109.939 51.0352 109.939H72.2012C72.4434 109.939 72.6757 110.035 72.8469 110.207C73.0181 110.378 73.1143 110.61 73.1143 110.852C73.1143 111.094 73.0181 111.327 72.8469 111.498C72.6757 111.669 72.4434 111.765 72.2012 111.765ZM44.8169 111.765H40.3663C40.1242 111.765 39.8919 111.669 39.7207 111.498C39.5494 111.327 39.4532 111.094 39.4532 110.852C39.4532 110.61 39.5494 110.378 39.7207 110.207C39.8919 110.035 40.1242 109.939 40.3663 109.939H44.8169C45.059 109.939 45.2913 110.035 45.4625 110.207C45.6338 110.378 45.73 110.61 45.73 110.852C45.73 111.094 45.6338 111.327 45.4625 111.498C45.2913 111.669 45.059 111.765 44.8169 111.765ZM73.3518 119.07H40.3663C40.1242 119.07 39.8919 118.974 39.7207 118.803C39.5494 118.632 39.4532 118.399 39.4532 118.157C39.4532 117.915 39.5494 117.683 39.7207 117.511C39.8919 117.34 40.1242 117.244 40.3663 117.244H73.3518C73.5939 117.244 73.8262 117.34 73.9974 117.511C74.1687 117.683 74.2649 117.915 74.2649 118.157C74.2649 118.399 74.1687 118.632 73.9974 118.803C73.8262 118.974 73.5939 119.07 73.3518 119.07ZM17.9804 115.533C17.8605 115.533 17.7419 115.509 17.6312 115.463C17.5206 115.417 17.4202 115.349 17.3357 115.264L14.4448 112.373C14.3576 112.289 14.288 112.188 14.2401 112.077C14.1923 111.966 14.1671 111.846 14.1661 111.725C14.165 111.603 14.1881 111.483 14.234 111.371C14.2799 111.259 14.3477 111.157 14.4335 111.071C14.5192 110.985 14.6211 110.917 14.7334 110.872C14.8456 110.826 14.9658 110.803 15.0871 110.804C15.2083 110.805 15.3281 110.83 15.4395 110.878C15.5509 110.926 15.6517 110.995 15.7359 111.082L17.9822 113.329L24.8689 106.44C24.9532 106.353 25.0539 106.283 25.1653 106.235C25.2767 106.188 25.3965 106.162 25.5178 106.161C25.639 106.16 25.7593 106.183 25.8715 106.229C25.9837 106.275 26.0856 106.343 26.1714 106.429C26.2571 106.514 26.3249 106.616 26.3708 106.729C26.4167 106.841 26.4398 106.961 26.4388 107.082C26.4377 107.204 26.4126 107.323 26.3647 107.435C26.3168 107.546 26.2473 107.647 26.1601 107.731L18.6269 115.264C18.542 115.349 18.4412 115.417 18.3303 115.462C18.2193 115.508 18.1004 115.533 17.9804 115.533Z" fill="white"/>
</g>
<path d="M91.7561 128.884C105.85 128.884 117.276 117.459 117.276 103.365C117.276 89.2704 105.85 77.8448 91.7561 77.8448C77.6619 77.8448 66.2363 89.2704 66.2363 103.365C66.2363 117.459 77.6619 128.884 91.7561 128.884Z" fill="#515151"/>
<path d="M91.7578 120.723C82.1865 120.723 74.3994 112.936 74.3994 103.365C74.3994 93.7933 82.1865 86.0063 91.7578 86.0063C101.329 86.0063 109.114 93.7933 109.114 103.365C109.114 112.936 101.327 120.723 91.7578 120.723Z" fill="white"/>
<path d="M91.7558 111.939C87.0295 111.939 83.1816 108.093 83.1816 103.365C83.1816 98.6365 87.0295 94.7905 91.7558 94.7905C96.4821 94.7905 100.33 98.6365 100.33 103.365C100.33 108.093 96.4839 111.939 91.7558 111.939ZM91.7558 103.365L112.312 72.9944L91.7558 103.365Z" fill="#4054F9"/>
<path d="M91.7549 104.278C91.5888 104.279 91.4257 104.234 91.2832 104.149C91.1407 104.063 91.0243 103.941 90.9465 103.794C90.8688 103.647 90.8328 103.482 90.8423 103.316C90.8519 103.15 90.9066 102.99 91.0007 102.853L111.557 72.483C111.695 72.29 111.904 72.1587 112.138 72.117C112.372 72.0753 112.613 72.1265 112.81 72.2596C113.007 72.3927 113.144 72.5974 113.192 72.8301C113.241 73.0627 113.196 73.3051 113.069 73.5057L92.5128 103.876C92.4292 104 92.3166 104.101 92.1848 104.171C92.053 104.241 91.9042 104.278 91.7549 104.278Z" fill="black"/>
<path d="M111.702 78.6319L107.694 79.7222L107.447 75.5767L110.504 71.3215L110.751 75.4671L114.758 74.3768L111.702 78.6319Z" fill="#515151"/>
<defs>
<clipPath id="clip0_2270_7397">
<rect width="13" height="16" fill="white" transform="translate(14 103)"/>
</clipPath>
</defs>
</svg>
