<svg width="32" height="32" viewBox="0 0 32 32" fill="none" xmlns="http://www.w3.org/2000/svg">
<path d="M16 32C24.8366 32 32 24.8366 32 16C32 7.16344 24.8366 0 16 0C7.16344 0 0 7.16344 0 16C0 24.8366 7.16344 32 16 32Z" fill="#444444"/>
<path d="M13.0748 21.2499C12.6352 21.2499 12.7099 21.0839 12.5583 20.6654L11.2656 16.411L21.2162 10.5078" fill="#ECECEC"/>
<path d="M13.0742 21.2523C13.4134 21.2523 13.5633 21.0971 13.7527 20.913L15.5619 19.1538L13.3051 17.793" fill="#BBBBBB"/>
<path d="M13.304 17.7924L18.7722 21.8324C19.3962 22.1767 19.8466 21.9984 20.002 21.2531L22.2279 10.7639C22.4558 9.85025 21.8796 9.43585 21.2827 9.70687L8.21238 14.7467C7.32021 15.1046 7.32541 15.6023 8.04976 15.8241L11.4039 16.871L19.1691 11.972C19.5356 11.7497 19.8721 11.8692 19.596 12.1143" fill="white"/>
</svg>
