<svg width="32" height="32" viewBox="0 0 32 32" fill="none" xmlns="http://www.w3.org/2000/svg">
<circle cx="16" cy="16" r="16" fill="#444444"/>
<path fill-rule="evenodd" clip-rule="evenodd" d="M16.0775 21.9943C16.6434 21.9943 16.6434 21.1141 16.6434 20.7727C16.6434 20.1619 17.2093 19.5511 17.7752 19.5511C18.3411 19.5511 19.3116 20.5986 20.0388 21.3835C20.6047 21.9943 20.6047 21.9943 21.1705 21.9943C21.7364 21.9943 22.8682 21.9943 22.8682 21.9943C22.8682 21.9943 24 21.9479 24 20.7727C24 20.391 23.6124 19.7435 22.3023 18.3295C21.1705 17.1079 20.5899 17.7389 22.3023 15.2756C23.3453 13.7754 24.1041 12.4164 23.974 12.0243C23.8495 11.6499 20.9487 11.0537 20.6047 11.6108C19.4729 13.4432 19.2652 13.8921 18.907 14.6648C18.3411 15.8864 18.2851 16.4971 17.7752 16.4971C17.2608 16.4971 17.2093 15.3116 17.2093 14.6648C17.2093 12.6455 17.4804 11.2174 16.6434 11C16.6434 11 15.5116 11 14.9458 11C14.0347 11 13.2481 11.6108 13.2481 11.6108C13.2481 11.6108 12.5458 12.202 12.6822 12.2216C12.8508 12.246 13.814 11.9687 13.814 12.8324C13.814 13.4432 13.814 14.054 13.814 14.054C13.814 14.054 13.8191 16.4971 13.2481 16.4971C12.6822 16.4971 11.5504 14.054 10.4186 12.2216C9.97441 11.5027 9.85274 11.6108 9.28685 11.6108C8.68022 11.6108 8.15564 11.6364 7.58918 11.6364C7.02329 11.6364 6.95085 12.0255 7.02329 12.2216C8.15507 15.2756 8.96825 17.1935 11.1186 19.6098C13.0908 21.8263 14.4082 21.9442 15.5116 21.9943C15.7946 22.0071 15.5116 21.9943 16.0775 21.9943Z" fill="white"/>
</svg>
