<svg width="32" height="32" viewBox="0 0 32 32" fill="none" xmlns="http://www.w3.org/2000/svg">
<path d="M16 32C24.8366 32 32 24.8366 32 16C32 7.16344 24.8366 0 16 0C7.16344 0 0 7.16344 0 16C0 24.8366 7.16344 32 16 32Z" fill="#444444"/>
<path d="M17.35 17.35C16.25 18.485 16.17 19.9 16.075 23C18.965 23 20.96 22.99 21.99 21.99C22.99 20.96 23 18.87 23 16.075C19.9 16.175 18.485 16.25 17.35 17.35ZM9 16.075C9 18.87 9.01 20.96 10.01 21.99C11.04 22.99 13.035 23 15.925 23C15.825 19.9 15.75 18.485 14.65 17.35C13.515 16.25 12.1 16.17 9 16.075ZM15.925 9C13.04 9 11.04 9.01 10.01 10.01C9.01 11.04 9 13.13 9 15.925C12.1 15.825 13.515 15.75 14.65 14.65C15.75 13.515 15.83 12.1 15.925 9ZM17.35 14.65C16.25 13.515 16.17 12.1 16.075 9C18.965 9 20.96 9.01 21.99 10.01C22.99 11.04 23 13.13 23 15.925C19.9 15.825 18.485 15.75 17.35 14.65Z" fill="white"/>
<path d="M24 16.0857V15.9143C20.4571 15.8 18.84 15.7143 17.5429 14.4571C16.2857 13.16 16.1943 11.5429 16.0857 8H15.9143C15.8 11.5429 15.7143 13.16 14.4571 14.4571C13.16 15.7143 11.5429 15.8057 8 15.9143V16.0857C11.5429 16.2 13.16 16.2857 14.4571 17.5429C15.7143 18.84 15.8057 20.4571 15.9143 24H16.0857C16.2 20.4571 16.2857 18.84 17.5429 17.5429C18.84 16.2857 20.4571 16.1943 24 16.0857Z" fill="#444444"/>
</svg>
