<svg width="32" height="32" viewBox="0 0 32 32" fill="none" xmlns="http://www.w3.org/2000/svg">
<path d="M16 32C24.8366 32 32 24.8366 32 16C32 7.16344 24.8366 0 16 0C7.16344 0 0 7.16344 0 16C0 24.8366 7.16344 32 16 32Z" fill="#444444"/>
<path fill-rule="evenodd" clip-rule="evenodd" d="M24.83 13.0779C24.83 13.0779 24.6637 11.8981 24.1543 11.3787C23.5077 10.6966 22.7831 10.6934 22.4511 10.6538C20.0721 10.4805 16.5037 10.4805 16.5037 10.4805H16.4963C16.4963 10.4805 12.9279 10.4805 10.5489 10.6538C10.2164 10.6934 9.49228 10.6966 8.84522 11.3787C8.33575 11.8982 8.17 13.0779 8.17 13.0779C8.17 13.0779 8 14.4636 8 15.8488V17.1478C8 18.5334 8.17 19.9187 8.17 19.9187C8.17 19.9187 8.33575 21.0984 8.84522 21.6179C9.49228 22.3 10.3418 22.2786 10.72 22.3498C12.08 22.4814 16.5 22.522 16.5 22.522C16.5 22.522 20.0721 22.5167 22.4511 22.3434C22.7831 22.3033 23.5077 22.3001 24.1543 21.618C24.6637 21.0984 24.83 19.9188 24.83 19.9188C24.83 19.9188 25 18.5336 25 17.1478V15.8488C25 14.4636 24.83 13.0779 24.83 13.0779ZM14.7448 18.7219L14.7442 13.9115L19.3374 16.325L14.7448 18.7219Z" fill="white"/>
</svg>
